<svg width="48" height="45" viewBox="0 0 48 45" fill="none" xmlns="http://www.w3.org/2000/svg">
<path fill-rule="evenodd" clip-rule="evenodd" d="M20.1452 0.00454003C26.0601 0.142175 30.5361 4.4627 35.0816 8.22766C40.339 12.5822 47.9608 16.2734 47.9998 23.076C48.039 29.8852 40.6278 33.8737 35.2532 38.0949C30.7373 41.6416 25.8767 45.4711 20.1452 44.9526C14.7199 44.4617 11.2219 39.597 7.5578 35.5893C4.15314 31.8653 0.690706 28.0789 0.144505 23.076C-0.4629 17.5126 0.817888 11.755 4.49281 7.51588C8.42461 2.98042 14.1241 -0.135568 20.1452 0.00454003Z" fill="#272838"/>
<path d="M30.1185 16.9334C29.6254 16.9334 29.1667 17.0832 28.7851 17.3392V17.2C28.7851 15.8767 27.7085 14.8 26.3851 14.8C25.6315 14.8 24.9587 15.1499 24.5185 15.6948C24.0782 15.1498 23.4054 14.8 22.6518 14.8C22.1587 14.8 21.7001 14.9499 21.3185 15.2059V9.20005C21.3185 7.87672 20.2418 6.80005 18.9185 6.80005C17.5951 6.80005 16.5185 7.87672 16.5185 9.20005V23.9726L13.9205 20.7972C13.4951 20.2773 12.8926 19.9556 12.2238 19.8914C11.5553 19.8271 10.9023 20.0283 10.3858 20.4578C9.39915 21.278 9.19208 22.7016 9.90421 23.769L17.7061 35.4626C18.4319 36.5504 19.6459 37.1999 20.9537 37.1999H26.6026C29.8646 37.1999 32.5183 34.5462 32.5183 31.2842V19.6V19.3334C32.5185 18.01 31.4418 16.9334 30.1185 16.9334ZM31.4518 31.2843C31.4518 33.9582 29.2765 36.1334 26.6027 36.1334H20.9538C20.0034 36.1334 19.121 35.6614 18.5934 34.8707L10.7915 23.1771C10.3831 22.565 10.5018 21.7486 11.0677 21.2781C11.3639 21.0318 11.7375 20.9162 12.1218 20.9532C12.5053 20.9901 12.8509 21.1746 13.0949 21.4727L16.639 25.8045C16.7817 25.9789 17.0187 26.0448 17.231 25.969C17.4433 25.8932 17.585 25.6922 17.585 25.4667V9.20005C17.585 8.46485 18.1831 7.86672 18.9183 7.86672C19.6535 7.86672 20.2517 8.46485 20.2517 9.20005V17.2V19.6V22.8C20.2517 23.0946 20.4905 23.3334 20.785 23.3334C21.0795 23.3334 21.3183 23.0946 21.3183 22.8V19.6V17.2C21.3183 16.4648 21.9165 15.8667 22.6517 15.8667C23.3869 15.8667 23.985 16.4648 23.985 17.2V22.8C23.985 23.0946 24.2238 23.3334 24.5183 23.3334C24.8129 23.3334 25.0517 23.0946 25.0517 22.8V17.2C25.0517 16.4648 25.6498 15.8667 26.385 15.8667C27.1202 15.8667 27.7183 16.4648 27.7183 17.2V19.3334V23.3334C27.7183 23.6279 27.9571 23.8667 28.2517 23.8667C28.5462 23.8667 28.785 23.6279 28.785 23.3334V19.3334C28.785 18.5982 29.3831 18 30.1183 18C30.8535 18 31.4517 18.5982 31.4517 19.3334V19.6L31.4518 31.2843Z" fill="#F2F2F2"/>
</svg>
