<svg width="320" height="320" viewBox="0 0 320 320" fill="none" xmlns="http://www.w3.org/2000/svg">
<path d="M319.968 229.712L314.447 181.272C313.684 174.563 311.95 167.988 309.182 161.819C306.917 156.768 304.989 154.151 304.989 154.151C298.966 143.99 283.196 139.922 283.196 139.922C282.302 139.612 281.321 139.363 280.288 139.168C271.067 137.41 261.614 140.786 255.311 147.667C247.307 156.409 238.313 172.543 229.484 172.983H185.915C185.915 172.983 195.585 173.093 185.548 172.983C180.501 172.925 175.26 172.534 171.29 172.157C167.194 171.77 163.571 169.378 161.61 165.801L143.704 133.08C143.704 133.08 140.086 124.819 126.016 109.736C111.946 94.652 91.7168 92.9378 91.7168 92.9378C91.7168 92.9378 80.7088 90.2592 60.8856 94.5565C42.3376 98.5769 19.3073 118.478 19.3073 118.478C19.3073 118.478 -6.72748 137.797 1.66741 169.989C10.0671 202.181 33.7254 211.964 33.7254 211.964C35.8507 212.69 38.2223 212.342 39.995 210.971C44.347 207.614 48.8971 201.326 48.9116 201.316C52.1768 196.718 59.6733 183.086 61.4556 179.83C61.6488 179.472 61.8323 179.114 61.9821 178.732C63.0979 175.862 64.7594 176.215 64.7594 176.215C66.3293 176.421 66.3148 178.459 65.9622 180.303C65.6675 181.84 65.1169 183.315 64.3827 184.7L50.4911 210.909C50.2737 211.253 50.1239 211.625 50.0225 212.003C49.3753 214.462 51.1045 216.882 53.6162 217.427C61.8565 219.203 74.8836 215.149 74.8836 215.149C80.6605 213.187 90.63 208.894 97.1991 205.996C100.822 204.396 104.517 202.969 108.294 201.775C110.545 201.063 113.081 200.171 116.447 198.924C117.278 198.619 118.157 198.724 118.732 199.12C119.727 199.808 120.133 201.063 119.92 202.248C119.66 203.69 119.128 205.504 118.78 206.617C118.597 207.209 118.037 207.595 117.409 207.567C112.607 207.371 99.8943 208.355 97.2425 208.569C96.9237 208.593 96.6243 208.694 96.349 208.856C94.7212 209.844 88.3501 213.588 80.7136 216.419C65.5564 222.039 57.4176 220.946 55.5579 220.564C55.2875 220.506 55.0073 220.588 54.7996 220.774L47.9214 226.952C39.6424 233.971 39.739 248.597 39.739 248.597V258.863L39.5362 262.31C39.3381 265.695 38.9662 269.066 38.3962 272.409C37.9808 274.844 37.6717 276.243 37.6717 276.243C37.6717 276.243 37.4157 277.857 36.4303 279.074C36.3724 279.146 36.3144 279.222 36.2565 279.303C35.5802 280.273 35.2614 281.443 35.2614 282.617V282.98C35.2325 283.701 36.0246 284.198 36.8409 284.518C37.6572 284.837 38.5556 284.985 39.4492 284.985H131.783C133.281 284.976 134.503 283.758 134.503 282.283V254.928C134.503 233.098 147.8 234.014 155.065 234.525C162.832 235.07 172.328 234.525 172.328 234.525C176.269 234.525 176.134 236.932 176.134 236.932V281.72C176.134 281.748 176.134 281.777 176.134 281.801C176.154 283.586 177.714 284.985 179.52 284.985H261.933C264.807 284.976 267.159 282.646 267.159 279.805V216.414V186.792C267.159 186.792 267.159 179.114 272.753 179.133C276.206 179.147 277.655 181.644 278.254 183.554C278.554 184.5 278.674 185.493 278.674 186.486V207.089L278.815 230.128C278.815 235.614 283.254 235.265 283.254 235.265H316.007C317.93 235.093 318.944 233.957 319.475 232.849C319.944 231.87 320.079 230.768 319.958 229.693L319.968 229.712ZM59.6685 151.133C48.0856 155.946 36.1888 153.96 33.1023 146.697C30.0158 139.435 36.9037 129.647 48.4865 124.834C60.0693 120.021 71.9661 122.007 75.0526 129.269C78.1391 136.532 71.2513 146.32 59.6685 151.133Z" fill="#B45C17"/>
<path d="M273.96 35.3341C273.361 35.2529 272.762 35.1765 272.163 35.0905C270.511 34.8518 268.999 35.1431 269.951 35.3006C271.332 35.3722 272.748 35.3866 273.96 35.3388V35.3341Z" fill="#B45C17"/>
<path d="M45.0867 154.609C50.9022 154.609 55.6166 149.949 55.6166 144.2C55.6166 138.452 50.9022 133.791 45.0867 133.791C39.2712 133.791 34.5569 138.452 34.5569 144.2C34.5569 149.949 39.2712 154.609 45.0867 154.609Z" fill="#B45C17"/>
<path d="M15.719 116.148C15.719 116.148 41.8165 87.805 71.2808 86.4155C94.5865 85.3173 111.236 88.6119 128.992 102.874C141.541 112.954 157.171 145.938 162.958 157.675C163.914 159.618 166.639 159.8 167.865 158.009L177.849 143.389C178.526 142.243 178.666 140.863 178.217 139.612C175.318 131.59 162.306 111.679 143.42 88.6167C135.46 78.8952 121.5 64.7951 92.4032 61.3048C75.1546 59.2373 59.0701 63.3818 42.0967 70.0474C37.4597 71.8666 30.2144 75.4525 25.703 78.0548C20.1193 81.2778 14.5211 84.496 9.85996 88.9318C8.79248 89.9489 7.33377 91.9925 6.27112 93.5634C5.39686 94.8574 5.23263 96.4856 5.82192 97.9276C7.68637 102.483 11.821 112.615 13.0044 115.728C13.4246 116.841 14.9269 117.127 15.6755 116.201C15.6852 116.186 15.6997 116.172 15.7093 116.158L15.719 116.148Z" fill="#B45C17"/>
</svg>
