<svg width="422" height="53" viewBox="0 0 422 53" fill="none" xmlns="http://www.w3.org/2000/svg">
<g clip-path="url(#clip0_230_122)">
<path d="M288.956 24.3266C288.956 23.685 288.523 23.1875 287.657 22.8342C286.792 22.4815 285.701 22.1443 284.388 21.8231C283.074 21.5026 281.664 21.1569 280.157 20.7882C278.65 20.4195 277.24 19.8975 275.926 19.2237C274.612 18.5499 273.523 17.6591 272.657 16.5515C271.791 15.4438 271.359 13.9919 271.359 12.1944C271.359 9.62638 272.345 7.58888 274.316 6.07953C276.287 4.57094 279.115 3.81665 282.802 3.81665C286.808 3.81665 289.765 4.61923 291.672 6.22364C293.579 7.82881 294.533 10.3646 294.533 13.8309H295.254V4.29805H304.725V16.5277H293.427C293.298 15.8861 293.058 15.3081 292.706 14.7945C292.385 14.3453 291.936 13.9444 291.359 13.591C290.782 13.2384 290.013 13.0613 289.051 13.0613C287.801 13.0613 287.176 13.6554 287.176 14.8428C287.176 15.6132 287.608 16.2149 288.474 16.648C289.34 17.0811 290.421 17.4752 291.72 17.8278C293.018 18.1812 294.428 18.5583 295.95 18.9592C297.472 19.3609 298.883 19.9143 300.181 20.6203C301.48 21.3271 302.561 22.2654 303.427 23.4367C304.293 24.6087 304.725 26.1258 304.725 27.9862C304.725 29.4955 304.42 30.7956 303.812 31.8864C303.203 32.978 302.257 33.8687 300.975 34.5586C299.693 35.2493 298.058 35.7545 296.071 36.0749C294.083 36.3953 291.711 36.5563 288.955 36.5563C287.32 36.5563 285.637 36.4919 283.906 36.3639C282.176 36.2351 280.493 36.035 278.858 35.7621C277.223 35.49 275.668 35.1359 274.194 34.7028C272.72 34.2697 271.422 33.7484 270.299 33.1382L273.713 22.4493C274.898 23.0273 276.164 23.5409 277.511 23.9901C278.632 24.3749 279.931 24.7291 281.406 25.0495C282.879 25.3707 284.386 25.5309 285.925 25.5309C286.951 25.5309 287.712 25.4512 288.208 25.2902C288.705 25.13 288.954 24.8088 288.954 24.3274L288.956 24.3266Z" fill="#272838"/>
<path d="M321.789 36.0741H307.413V4.29724H321.789V18.2601H327.606V4.29724H341.982V36.0741H327.606V22.0637H321.789V36.0741Z" fill="#272838"/>
<path d="M363.179 36.5555C360.519 36.5555 358.059 36.2182 355.799 35.5444C353.54 34.8706 351.576 33.8519 349.91 32.4874C348.243 31.1237 346.945 29.4143 346.016 27.3599C345.086 25.3063 344.621 22.8985 344.621 20.1382C344.621 17.3778 345.086 14.9624 346.016 12.8919C346.945 10.8214 348.243 9.10511 349.91 7.73987C351.576 6.37617 353.54 5.35664 355.799 4.68284C358.059 4.00904 360.519 3.67175 363.179 3.67175C365.84 3.67175 368.3 4.00904 370.559 4.68284C372.819 5.35664 374.782 6.37617 376.449 7.73987C378.115 9.10434 379.414 10.8214 380.344 12.8919C381.273 14.9624 381.738 17.3778 381.738 20.1382C381.738 22.8985 381.273 25.3063 380.344 27.3599C379.414 29.4143 378.115 31.1237 376.449 32.4874C374.782 33.8519 372.819 34.8706 370.559 35.5444C368.3 36.2182 365.839 36.5555 363.179 36.5555ZM363.179 13.3971C361.993 13.3971 361.119 14.0157 360.559 15.2506C359.998 16.4863 359.718 18.1152 359.718 20.1374C359.718 22.1596 359.998 23.7962 360.559 25.0487C361.119 26.3005 361.994 26.9268 363.179 26.9268C364.365 26.9268 365.238 26.3005 365.8 25.0487C366.36 23.7969 366.641 22.1596 366.641 20.1374C366.641 18.1152 366.36 16.4863 365.8 15.2506C365.238 14.0157 364.365 13.3971 363.179 13.3971Z" fill="#272838"/>
<path d="M406.04 4.29731C409.052 4.29731 411.576 4.6024 413.612 5.21181C415.647 5.82199 417.29 6.656 418.54 7.71538C419.79 8.77477 420.68 10.0266 421.208 11.4707C421.737 12.9149 422.002 14.4726 422.002 16.1406C422.002 19.9282 420.928 22.8411 418.78 24.8794C416.632 26.9184 413.62 27.9364 409.742 27.9364C408.042 27.9364 406.552 27.7363 405.27 27.3346C403.988 26.9337 402.922 26.3879 402.073 25.6973C401.223 25.0074 400.59 24.1887 400.174 23.242C399.757 22.2953 399.549 21.2919 399.549 20.2325H398.827V36.0726H384.5V4.29578H406.039L406.04 4.29731ZM403.492 18.4043C404.709 18.4043 405.583 18.172 406.112 17.7059C406.641 17.2414 406.905 16.7355 406.905 16.1897C406.905 14.5853 405.382 13.7827 402.337 13.7827H398.827V15.4676C399.051 16.0456 399.372 16.5431 399.789 16.9601C400.141 17.3134 400.614 17.6423 401.207 17.9474C401.8 18.2525 402.561 18.405 403.491 18.405L403.492 18.4043Z" fill="#272838"/>
<path d="M14.0979 36.0473H-0.00146484V4.88062H33.9031V36.0473H19.8037L19.7563 12.4366H14.0504L14.0979 36.0473Z" fill="#272838"/>
<path d="M69.9401 22.2577C69.1601 21.4689 68.6549 20.5307 68.2324 19.5043L68.1527 19.2597C68.1527 19.2597 68.1504 19.2521 68.1497 19.2482C67.1086 16.3591 67.434 14.6228 67.434 14.6205C67.4531 14.1476 67.6001 13.7145 67.7356 13.2607C67.9078 12.6811 69.3408 9.89854 69.6462 9.44014C69.7495 9.28606 69.761 9.08829 69.6814 8.92118C69.3553 8.23511 68.8577 6.86451 68.485 5.99217C68.4375 5.88102 68.3541 5.7898 68.2469 5.73384C66.4044 4.76951 64.5435 4.17236 61.6485 4.17236C57.9068 4.17236 55.0302 4.96805 53.0185 6.55712C51.0834 8.0864 50.0791 10.2933 50.0048 13.1763C50.0002 13.3687 49.8418 13.5221 49.6496 13.5221C49.4529 13.5221 49.2937 13.3626 49.2937 13.1656V5.23711C49.2937 5.04011 49.1345 4.88066 48.9377 4.88066H37.3423C37.1455 4.88066 36.9863 5.04011 36.9863 5.23711V35.6901C36.9863 35.8871 37.1455 36.0466 37.3423 36.0466H50.7297C50.9264 36.0466 51.0857 35.8871 51.0857 35.6901V28.4232C51.0857 28.2261 51.2449 28.0667 51.4416 28.0667H54.7638C58.1273 28.0667 61.0116 27.744 63.4167 27.0985C65.8211 26.4539 67.7937 25.5562 69.3346 24.4072C69.9646 23.9373 69.9784 23.544 70.4553 23.0182C70.5257 22.9407 70.5188 22.8212 70.4431 22.7491C70.2593 22.5751 70.0925 22.4118 69.9401 22.2585V22.2577ZM58.7244 16.7332C58.5361 17.1111 58.2207 17.4491 57.7813 17.7481C57.3404 18.0478 56.751 18.2839 56.013 18.4564C55.2743 18.6296 54.3389 18.7162 53.2076 18.7162H51.4416C51.2449 18.7162 51.0857 18.5568 51.0857 18.3598V17.3464C51.0857 17.2851 51.101 17.2238 51.1308 17.1701C51.5005 16.5101 51.9568 15.9076 52.5003 15.3633C52.9404 14.8911 53.4977 14.4588 54.1744 14.0648C54.8503 13.6715 55.5966 13.4745 56.4141 13.4745C57.2317 13.4745 57.8287 13.6401 58.3003 13.9705C58.7718 14.3009 59.0076 14.8444 59.0076 15.5994C59.0076 15.9773 58.9134 16.3553 58.7244 16.7332Z" fill="#272838"/>
<path d="M172.329 36.0657V27.4244L172.282 27.3768H171.622C171.622 30.3043 170.797 32.5557 169.146 34.1294C167.496 35.7039 165.13 36.4904 162.049 36.4904C154.724 36.4904 151.062 31.957 151.062 22.8902V4.89832H165.821V21.1424C165.821 23.0948 165.994 24.4639 166.34 25.2512C166.686 26.0384 167.22 26.4317 167.944 26.4317C168.478 26.4317 168.926 26.2431 169.288 25.8652C169.648 25.4873 169.924 25.0626 170.113 24.5904C170.333 24.0239 170.49 23.3946 170.585 22.7016V4.89908H184.636V36.0657H172.329Z" fill="#272838"/>
<path d="M202.48 20.7477C202.48 18.481 202.621 16.3561 202.904 14.373C203.187 12.3899 203.689 10.6582 204.412 9.17879C205.135 7.69933 206.134 6.53416 207.407 5.68482C208.68 4.83471 210.307 4.41003 212.288 4.41003C213.671 4.41003 215.101 4.59171 216.579 4.95276C218.056 5.31457 219.361 5.90559 220.493 6.7235L217.145 17.2537C216.735 16.8758 216.264 16.5454 215.73 16.2618C215.289 16.0103 214.739 15.7819 214.08 15.5772C213.42 15.3726 212.68 15.2706 211.864 15.2706C210.826 15.2706 209.969 15.5381 209.294 16.0732C208.617 16.609 208.091 17.2062 207.714 17.8677C207.242 18.655 206.896 19.5365 206.677 20.5123L207.007 20.9845C208.138 19.7565 209.442 18.9233 210.92 18.4817C212.398 18.0409 213.797 17.939 215.118 18.1751C216.438 18.4112 217.546 18.9708 218.442 19.8516C219.338 20.7331 219.786 21.8822 219.786 23.2988V36.0489H205.026V26.9353C205.026 26.306 204.862 25.7234 204.531 25.1883C204.201 24.6533 203.517 24.3857 202.48 24.3857H201.866V36.0497H187.767V4.883H201.866V20.7492H202.48V20.7477Z" fill="#272838"/>
<path d="M134.27 4.59705V18.4165H128.512V4.59705H114.284L114.728 12.3508C114.728 12.5133 114.836 12.6513 114.991 12.7003C115.966 13.0092 116.821 13.9345 117.341 14.7486C118.005 15.7888 118.335 16.885 118.641 18.0792C119.004 19.4951 119.114 20.9408 119.277 22.3919C119.453 23.9541 119.832 27.3446 119.833 27.3837C119.853 27.8015 119.301 28.68 118.796 28.6846C117.885 28.6938 114.317 28.7168 114.284 28.7114V36.0473H128.512V22.1811H134.27V36.0473H148.498V4.59705H134.27Z" fill="#272838"/>
<path d="M118.938 27.1714L118.063 19.3946C117.942 18.3176 117.667 17.2621 117.228 16.2717C116.869 15.4607 116.564 15.0406 116.564 15.0406C115.609 13.4094 113.11 12.7563 113.11 12.7563C112.968 12.7064 112.813 12.6666 112.649 12.6351C111.188 12.3531 109.69 12.895 108.691 13.9996C107.423 15.4032 105.997 17.9934 104.598 18.0639H97.6934C97.6934 18.0639 99.2258 18.0815 97.6352 18.0639C96.8353 18.0547 96.0047 17.9918 95.3755 17.9313C94.7264 17.8692 94.1523 17.4852 93.8415 16.911L91.0039 11.6578C91.0039 11.6578 90.4305 10.3316 88.2007 7.91009C85.9708 5.48854 82.765 5.21335 82.765 5.21335C82.765 5.21335 81.0205 4.78331 77.879 5.47321C74.9395 6.11865 71.2897 9.31366 71.2897 9.31366C71.2897 9.31366 67.1638 12.4151 68.4942 17.5833C69.8254 22.7514 73.5747 24.3221 73.5747 24.3221C73.9115 24.4386 74.2874 24.3826 74.5683 24.1626C75.258 23.6237 75.9791 22.6142 75.9814 22.6126C76.4988 21.8745 77.6868 19.6859 77.9693 19.1631C77.9999 19.1057 78.029 19.0482 78.0527 18.9868C78.2296 18.5261 78.4929 18.5829 78.4929 18.5829C78.7417 18.6158 78.7394 18.9431 78.6835 19.239C78.6368 19.4859 78.5495 19.7227 78.4332 19.945L76.2317 24.1527C76.1972 24.2079 76.1735 24.2676 76.1574 24.3282C76.0548 24.723 76.3289 25.1116 76.7269 25.199C78.0328 25.4842 80.0973 24.8334 80.0973 24.8334C81.0128 24.5183 82.5928 23.8292 83.6338 23.3639C84.2079 23.1071 84.7935 22.8779 85.3921 22.6862C85.7488 22.572 86.1507 22.4287 86.6843 22.2286C86.8159 22.1795 86.9552 22.1964 87.0463 22.26C87.204 22.3704 87.2683 22.572 87.2346 22.7621C87.1933 22.9936 87.1091 23.2849 87.054 23.4635C87.0249 23.5586 86.9361 23.6207 86.8366 23.6161C86.0757 23.5846 84.061 23.7426 83.6407 23.7771C83.5902 23.7809 83.5427 23.797 83.4991 23.823C83.2411 23.9817 82.2315 24.5827 81.0213 25.0373C78.6192 25.9395 77.3294 25.764 77.0347 25.7026C76.9918 25.6934 76.9474 25.7065 76.9145 25.7364L75.8244 26.7283C74.5124 27.8551 74.5277 30.2031 74.5277 30.2031V31.8512L74.4956 32.4046C74.4642 32.9481 74.4052 33.4893 74.3149 34.0259C74.2491 34.4169 74.2001 34.6415 74.2001 34.6415C74.2001 34.6415 74.1595 34.9006 74.0034 35.096C73.9942 35.1075 73.985 35.1198 73.9758 35.1328C73.8686 35.2884 73.8181 35.4762 73.8181 35.6648V35.7231C73.8135 35.8388 73.9391 35.9185 74.0684 35.9699C74.1978 36.0213 74.3402 36.045 74.4818 36.045H89.1147C89.352 36.0435 89.5456 35.848 89.5456 35.6112V31.2196C89.5456 27.7149 91.653 27.862 92.8043 27.944C94.0351 28.0314 95.5401 27.944 95.5401 27.944C96.1647 27.944 96.1433 28.3304 96.1433 28.3304V35.5207C96.1433 35.5253 96.1433 35.5299 96.1433 35.5337C96.1463 35.8204 96.3936 36.045 96.6799 36.045H109.74C110.196 36.0435 110.569 35.6694 110.569 35.2133V25.0365V20.2808C110.569 20.2808 110.569 19.0482 111.455 19.0512C112.002 19.0535 112.232 19.4544 112.327 19.7611C112.374 19.9128 112.394 20.0723 112.394 20.2317V23.5394L112.416 27.2381C112.416 28.1188 113.119 28.0629 113.119 28.0629H118.31C118.615 28.0353 118.775 27.8528 118.86 27.675C118.934 27.5178 118.955 27.3408 118.936 27.1683L118.938 27.1714ZM77.6861 14.5561C75.8505 15.3288 73.9651 15.0099 73.476 13.844C72.9868 12.6781 74.0784 11.1066 75.914 10.3339C77.7496 9.56126 79.635 9.88014 80.1241 11.0461C80.6133 12.212 79.5217 13.7835 77.6861 14.5561Z" fill="#272838"/>
<path d="M75.375 15.115C76.2967 15.115 77.0438 14.3668 77.0438 13.4439C77.0438 12.521 76.2967 11.7728 75.375 11.7728C74.4534 11.7728 73.7063 12.521 73.7063 13.4439C73.7063 14.3668 74.4534 15.115 75.375 15.115Z" fill="#272838"/>
<path d="M70.7211 8.93955C70.7211 8.93955 74.8569 4.38927 79.5264 4.1662C83.2198 3.98989 85.8584 4.51882 88.6723 6.80852C90.661 8.42672 93.1381 13.7221 94.0551 15.6063C94.2067 15.9183 94.6384 15.9474 94.8328 15.66L96.4151 13.3128C96.5223 13.1288 96.5445 12.9072 96.4733 12.7064C96.014 11.4186 93.9518 8.22205 90.9588 4.51959C89.6973 2.95888 87.485 0.695233 82.8738 0.13488C80.1403 -0.197039 77.5912 0.468332 74.9013 1.53845C74.1665 1.8305 73.0183 2.40619 72.3033 2.82396C71.4184 3.34139 70.5312 3.85805 69.7925 4.57018C69.6234 4.73345 69.3922 5.06154 69.2238 5.31374C69.0852 5.52147 69.0592 5.78287 69.1526 6.01437C69.4481 6.74567 70.1033 8.3723 70.2909 8.87209C70.3575 9.0507 70.5955 9.09669 70.7142 8.94798C70.7157 8.94568 70.718 8.94338 70.7195 8.94108L70.7211 8.93955Z" fill="#272838"/>
<path d="M244.853 36.065V27.4083L244.806 27.3607H244.145C244.145 30.2936 243.318 32.5488 241.664 34.1256C240.011 35.7032 237.641 36.4912 234.555 36.4912C227.216 36.4912 223.548 31.9501 223.548 22.8672V4.84314H238.334V21.1164C238.334 23.0719 238.507 24.444 238.854 25.232C239.2 26.0208 239.735 26.4148 240.46 26.4148C240.995 26.4148 241.443 26.2255 241.806 25.8468C242.167 25.4681 242.444 25.0427 242.633 24.5697C242.852 24.0017 243.011 23.3716 243.105 22.6779V4.84314H257.182V36.065H244.853H244.853Z" fill="#272838"/>
<path d="M128.385 49.7688H127.582V51.4061H126.882V47.5327H127.582V49.1701H128.4L129.655 47.5327H130.407L128.94 49.3962L130.509 51.4061H129.685L128.386 49.7688H128.385Z" fill="#272838"/>
<path d="M132.353 51.2306C132.046 51.0604 131.806 50.8251 131.634 50.5254C131.461 50.2256 131.375 49.886 131.375 49.5058C131.375 49.1256 131.461 48.786 131.634 48.4863C131.807 48.1866 132.046 47.9528 132.353 47.7849C132.659 47.617 133.005 47.5327 133.389 47.5327C133.773 47.5327 134.118 47.617 134.422 47.7849C134.725 47.9528 134.964 48.1866 135.137 48.4863C135.31 48.786 135.395 49.1256 135.395 49.5058C135.395 49.886 135.309 50.2256 135.137 50.5254C134.964 50.8251 134.725 51.0604 134.422 51.2306C134.118 51.4015 133.773 51.4866 133.389 51.4866C133.005 51.4866 132.659 51.4015 132.353 51.2306ZM134.056 50.7009C134.253 50.5867 134.408 50.4257 134.52 50.2187C134.631 50.0118 134.687 49.7741 134.687 49.5058C134.687 49.2375 134.631 49.0007 134.52 48.7929C134.408 48.586 134.253 48.4265 134.056 48.3146C133.86 48.2027 133.637 48.1467 133.389 48.1467C133.141 48.1467 132.918 48.2027 132.721 48.3146C132.525 48.4265 132.369 48.586 132.255 48.7929C132.14 48.9999 132.083 49.2375 132.083 49.5058C132.083 49.7741 132.14 50.011 132.255 50.2187C132.369 50.4257 132.525 50.5867 132.721 50.7009C132.918 50.8151 133.141 50.8726 133.389 50.8726C133.637 50.8726 133.86 50.8151 134.056 50.7009Z" fill="#272838"/>
<path d="M136.951 47.5327H137.651V49.177H139.855V47.5327H140.555V51.4061H139.855V49.7833H137.651V51.4061H136.951V47.5327Z" fill="#272838"/>
<path d="M146.217 47.5687V50.9163C146.217 51.5931 146.049 52.0937 145.713 52.418C145.377 52.7422 144.876 52.904 144.21 52.904C143.845 52.904 143.497 52.8541 143.166 52.7545C142.836 52.6548 142.568 52.5122 142.363 52.3267L142.699 51.7856C142.879 51.9412 143.102 52.0646 143.367 52.1543C143.632 52.2447 143.906 52.2892 144.188 52.2892C144.641 52.2892 144.975 52.1819 145.192 51.968C145.408 51.7534 145.516 51.4268 145.516 50.9883V50.6817C145.351 50.8818 145.147 51.0313 144.907 51.1309C144.666 51.2306 144.405 51.2804 144.122 51.2804C143.753 51.2804 143.418 51.2014 143.119 51.0428C142.82 50.8848 142.585 50.6625 142.415 50.3774C142.244 50.0922 142.159 49.7672 142.159 49.4016C142.159 49.0359 142.244 48.7109 142.415 48.4257C142.585 48.1406 142.82 47.9206 143.119 47.7642C143.418 47.6086 143.753 47.5304 144.122 47.5304C144.414 47.5304 144.686 47.5841 144.936 47.6914C145.186 47.7987 145.392 47.9574 145.553 48.1666V47.5672H146.217L146.217 47.5687ZM144.885 50.5069C145.087 50.3996 145.245 50.2501 145.359 50.0577C145.473 49.8653 145.531 49.6476 145.531 49.4039C145.531 49.029 145.407 48.7255 145.159 48.494C144.911 48.2625 144.592 48.1467 144.203 48.1467C143.814 48.1467 143.488 48.2625 143.24 48.494C142.992 48.7255 142.868 49.029 142.868 49.4039C142.868 49.6476 142.925 49.8653 143.039 50.0577C143.153 50.2501 143.312 50.4004 143.514 50.5069C143.716 50.6143 143.946 50.6679 144.204 50.6679C144.461 50.6679 144.684 50.6143 144.886 50.5069H144.885Z" fill="#272838"/>
<path d="M151.724 47.5327V51.4062H151.053V50.8358C150.912 51.0305 150.727 51.1816 150.498 51.2889C150.269 51.3962 150.019 51.4499 149.746 51.4499C149.23 51.4499 148.824 51.3073 148.528 51.0221C148.231 50.737 148.082 50.3169 148.082 49.7611V47.532H148.783V49.6806C148.783 50.0563 148.873 50.3399 149.053 50.5323C149.233 50.7247 149.491 50.8213 149.827 50.8213C150.197 50.8213 150.488 50.7094 150.703 50.4848C150.917 50.2609 151.023 49.9436 151.023 49.535V47.5327H151.724H151.724Z" fill="#272838"/>
<path d="M159.702 47.9566C159.987 48.2395 160.129 48.658 160.129 49.2138V51.4429H159.429V49.2943C159.429 48.9194 159.342 48.6366 159.17 48.4464C158.997 48.2563 158.751 48.1613 158.429 48.1613C158.074 48.1613 157.792 48.2724 157.583 48.494C157.374 48.7155 157.269 49.0336 157.269 49.4476V51.4429H156.568V49.2943C156.568 48.9194 156.482 48.6366 156.31 48.4464C156.137 48.2563 155.89 48.1613 155.569 48.1613C155.213 48.1613 154.931 48.2724 154.722 48.494C154.513 48.7155 154.408 49.0336 154.408 49.4476V51.4429H153.708V47.5695H154.379V48.1467C154.52 47.9467 154.705 47.7949 154.934 47.6899C155.163 47.5848 155.423 47.5327 155.715 47.5327C156.006 47.5327 156.284 47.594 156.518 47.7152C156.751 47.837 156.931 48.0149 157.058 48.2487C157.204 48.0248 157.407 47.8493 157.668 47.7228C157.928 47.5963 158.221 47.5327 158.547 47.5327C159.034 47.5327 159.419 47.6738 159.704 47.9566H159.702Z" fill="#272838"/>
<path d="M164.841 50.405L165.221 50.858C165.05 51.0627 164.835 51.2183 164.574 51.3256C164.314 51.433 164.023 51.4866 163.703 51.4866C163.294 51.4866 162.932 51.4023 162.615 51.2344C162.299 51.0665 162.054 50.8312 161.882 50.5292C161.709 50.2272 161.623 49.886 161.623 49.5058C161.623 49.1256 161.707 48.7922 161.875 48.4901C162.042 48.1881 162.273 47.9528 162.568 47.7849C162.862 47.617 163.194 47.5327 163.564 47.5327C163.915 47.5327 164.233 47.6117 164.52 47.7703C164.807 47.929 165.036 48.1513 165.206 48.4388C165.376 48.7262 165.464 49.0574 165.469 49.433L162.396 50.0325C162.493 50.3008 162.658 50.5077 162.889 50.6534C163.12 50.7998 163.399 50.8726 163.725 50.8726C164.187 50.8726 164.559 50.717 164.842 50.405H164.841ZM162.91 48.2931C162.718 48.4051 162.568 48.5622 162.462 48.7646C162.355 48.9669 162.301 49.2023 162.301 49.4698V49.5426L164.775 49.075C164.711 48.7922 164.571 48.5637 164.352 48.3882C164.133 48.2126 163.87 48.1253 163.563 48.1253C163.32 48.1253 163.102 48.1812 162.91 48.2931Z" fill="#272838"/>
<path d="M169.95 47.7811C170.25 47.9467 170.481 48.1797 170.644 48.4787C170.807 48.7784 170.888 49.1234 170.888 49.5128C170.888 49.9022 170.808 50.2402 170.647 50.54C170.486 50.8397 170.263 51.0719 169.976 51.2375C169.689 51.4031 169.36 51.4859 168.99 51.4859C168.699 51.4859 168.435 51.4338 168.202 51.3287C167.969 51.2237 167.774 51.0719 167.618 50.8719V52.8596H166.91V49.5197C166.91 49.1303 166.994 48.7838 167.162 48.4817C167.329 48.1797 167.566 47.9459 167.87 47.7803C168.174 47.6148 168.523 47.532 168.917 47.532C169.311 47.532 169.65 47.6148 169.95 47.7803L169.95 47.7811ZM169.567 50.7009C169.767 50.5867 169.921 50.4257 170.03 50.2188C170.139 50.0118 170.195 49.7765 170.195 49.5135C170.195 49.2506 170.14 49.0153 170.03 48.8083C169.921 48.6013 169.767 48.4396 169.57 48.3223C169.373 48.205 169.148 48.1468 168.895 48.1468C168.511 48.1468 168.199 48.2725 167.961 48.5231C167.722 48.7738 167.603 49.1019 167.603 49.5059C167.603 49.7742 167.658 50.011 167.768 50.2188C167.877 50.4257 168.03 50.5867 168.224 50.7009C168.419 50.8151 168.643 50.8726 168.896 50.8726C169.148 50.8726 169.367 50.8151 169.567 50.7009Z" fill="#272838"/>
<path d="M173.159 51.2306C172.85 51.0604 172.608 50.8251 172.433 50.5254C172.258 50.2256 172.17 49.886 172.17 49.5058C172.17 49.1256 172.258 48.786 172.433 48.4863C172.608 48.1866 172.85 47.9528 173.159 47.7849C173.469 47.617 173.82 47.5327 174.214 47.5327C174.565 47.5327 174.877 47.6032 175.152 47.7443C175.427 47.8853 175.64 48.09 175.79 48.3583L175.258 48.7017C175.136 48.517 174.985 48.3775 174.805 48.2855C174.625 48.1927 174.426 48.1467 174.207 48.1467C173.953 48.1467 173.726 48.2027 173.525 48.3146C173.322 48.4265 173.165 48.586 173.05 48.7929C172.936 48.9999 172.878 49.2375 172.878 49.5058C172.878 49.7741 172.936 50.0187 173.05 50.2256C173.164 50.4326 173.322 50.592 173.525 50.704C173.727 50.8159 173.954 50.8718 174.207 50.8718C174.426 50.8718 174.625 50.8258 174.805 50.7331C174.985 50.6403 175.136 50.5016 175.258 50.3168L175.79 50.6534C175.64 50.9217 175.427 51.1271 175.152 51.2712C174.877 51.4153 174.565 51.4866 174.214 51.4866C173.82 51.4866 173.469 51.4015 173.159 51.2306Z" fill="#272838"/>
<path d="M178.816 49.7688H178.013V51.4061H177.313V47.5327H178.013V49.1701H178.831L180.086 47.5327H180.838L179.371 49.3962L180.94 51.4061H180.116L178.817 49.7688H178.816Z" fill="#272838"/>
<path d="M185.798 47.5687V51.4422H185.127V50.8281C184.971 51.0428 184.774 51.2061 184.536 51.318C184.298 51.4299 184.034 51.4858 183.747 51.4858C183.373 51.4858 183.037 51.4031 182.74 51.2375C182.443 51.0719 182.211 50.8389 182.043 50.5399C181.875 50.2402 181.791 49.896 181.791 49.5058C181.791 49.1157 181.875 48.7722 182.043 48.4756C182.21 48.1782 182.443 47.9467 182.74 47.7811C183.037 47.6155 183.372 47.5327 183.747 47.5327C184.024 47.5327 184.28 47.5848 184.514 47.6899C184.747 47.7949 184.941 47.949 185.098 48.1536V47.5687H185.798ZM184.47 50.7001C184.67 50.5859 184.825 50.4249 184.937 50.218C185.049 50.011 185.105 49.7734 185.105 49.5051C185.105 49.2368 185.049 48.9999 184.937 48.7922C184.825 48.5852 184.669 48.4258 184.47 48.3138C184.27 48.2019 184.049 48.146 183.806 48.146C183.562 48.146 183.335 48.2019 183.138 48.3138C182.941 48.4258 182.785 48.5852 182.671 48.7922C182.557 48.9991 182.5 49.2368 182.5 49.5051C182.5 49.7734 182.557 50.0102 182.671 50.218C182.785 50.4249 182.941 50.5859 183.138 50.7001C183.335 50.8143 183.557 50.8718 183.806 50.8718C184.054 50.8718 184.27 50.8143 184.47 50.7001Z" fill="#272838"/>
<path d="M190.86 47.5327V51.4061H190.233V50.1781H189.028L188.182 51.4061H187.43L188.372 50.0831C188.08 49.9957 187.856 49.8508 187.7 49.6484C187.545 49.446 187.467 49.1938 187.467 48.8918C187.467 48.4487 187.618 48.1107 187.919 47.88C188.221 47.6485 188.637 47.5327 189.167 47.5327H190.86ZM188.426 49.4874C188.589 49.6116 188.833 49.6737 189.159 49.6737H190.232V48.146H189.188C188.517 48.146 188.181 48.402 188.181 48.9133C188.181 49.1716 188.262 49.3625 188.425 49.4867L188.426 49.4874Z" fill="#272838"/>
<path d="M199.878 50.3391C199.878 50.6802 199.75 50.9431 199.495 51.1286C199.239 51.3141 198.859 51.4061 198.353 51.4061H196.492V47.5327H198.287C198.744 47.5327 199.102 47.6193 199.359 47.7918C199.617 47.9651 199.746 48.2096 199.746 48.5262C199.746 48.7308 199.691 48.9072 199.581 49.0559C199.472 49.2046 199.319 49.318 199.125 49.3954C199.626 49.5219 199.877 49.8362 199.877 50.3383L199.878 50.3391ZM197.178 49.1992H198.229C198.496 49.1992 198.699 49.1509 198.838 49.0528C198.976 48.9554 199.046 48.8144 199.046 48.6289C199.046 48.2586 198.774 48.0731 198.229 48.0731H197.178V49.1984V49.1992ZM198.958 50.727C199.104 50.6342 199.177 50.4909 199.177 50.2954C199.177 50.0999 199.11 49.9474 198.976 49.8492C198.842 49.7519 198.632 49.7028 198.345 49.7028H197.178V50.8649H198.301C198.593 50.8649 198.812 50.8189 198.958 50.7262V50.727Z" fill="#272838"/>
<path d="M203.094 49.7688H202.291V51.4061H201.591V47.5327H202.291V49.1701H203.109L204.364 47.5327H205.116L203.649 49.3962L205.218 51.4061H204.394L203.095 49.7688H203.094Z" fill="#272838"/>
<path d="M210.012 47.5327V50.8803C210.012 51.5571 209.854 52.0577 209.538 52.382C209.222 52.7062 208.747 52.8679 208.115 52.8679C207.77 52.8679 207.44 52.8181 207.126 52.7185C206.812 52.6188 206.556 52.4762 206.356 52.2907L206.699 51.7495C206.869 51.9052 207.074 52.027 207.316 52.1152C207.557 52.2026 207.811 52.247 208.078 52.247C208.501 52.247 208.813 52.1413 209.012 51.9289C209.212 51.7166 209.311 51.3916 209.311 50.9531V50.6679C209.17 50.8534 208.987 50.996 208.764 51.0957C208.54 51.1953 208.297 51.2451 208.034 51.2451C207.518 51.2451 207.112 51.1041 206.816 50.8212C206.519 50.5384 206.37 50.1198 206.37 49.5641V47.5327H207.071V49.4844C207.071 49.8546 207.161 50.1359 207.341 50.3283C207.521 50.5208 207.779 50.6173 208.115 50.6173C208.485 50.6173 208.776 50.5054 208.99 50.2808C209.205 50.057 209.311 49.7396 209.311 49.3311V47.5335H210.012L210.012 47.5327Z" fill="#272838"/>
<path d="M212.612 51.2306C212.303 51.0604 212.061 50.8251 211.886 50.5254C211.71 50.2256 211.623 49.886 211.623 49.5058C211.623 49.1256 211.71 48.786 211.886 48.4863C212.061 48.1866 212.303 47.9528 212.612 47.7849C212.921 47.617 213.273 47.5327 213.667 47.5327C214.017 47.5327 214.33 47.6032 214.605 47.7443C214.879 47.8853 215.092 48.09 215.243 48.3583L214.71 48.7017C214.589 48.517 214.438 48.3775 214.258 48.2855C214.078 48.1927 213.878 48.1467 213.659 48.1467C213.406 48.1467 213.179 48.2027 212.977 48.3146C212.775 48.4265 212.617 48.586 212.503 48.7929C212.389 48.9999 212.331 49.2375 212.331 49.5058C212.331 49.7741 212.389 50.0187 212.503 50.2256C212.617 50.4326 212.775 50.592 212.977 50.704C213.179 50.8159 213.407 50.8718 213.659 50.8718C213.878 50.8718 214.078 50.8258 214.258 50.7331C214.438 50.6403 214.589 50.5016 214.71 50.3168L215.243 50.6534C215.092 50.9217 214.879 51.1271 214.605 51.2712C214.33 51.4153 214.017 51.4866 213.667 51.4866C213.273 51.4866 212.921 51.4015 212.612 51.2306Z" fill="#272838"/>
<path d="M216.765 47.5327H217.466V49.177H219.67V47.5327H220.37V51.4061H219.67V49.7833H217.466V51.4061H216.765V47.5327Z" fill="#272838"/>
<path d="M222.974 51.2306C222.667 51.0604 222.427 50.8251 222.255 50.5254C222.082 50.2256 221.996 49.886 221.996 49.5058C221.996 49.1256 222.083 48.786 222.255 48.4863C222.428 48.1866 222.667 47.9528 222.974 47.7849C223.28 47.617 223.626 47.5327 224.01 47.5327C224.394 47.5327 224.739 47.617 225.043 47.7849C225.347 47.9528 225.585 48.1866 225.758 48.4863C225.931 48.786 226.016 49.1256 226.016 49.5058C226.016 49.886 225.93 50.2256 225.758 50.5254C225.585 50.8251 225.347 51.0604 225.043 51.2306C224.739 51.4015 224.394 51.4866 224.01 51.4866C223.626 51.4866 223.281 51.4015 222.974 51.2306ZM224.678 50.7009C224.874 50.5867 225.029 50.4257 225.141 50.2187C225.252 50.0118 225.308 49.7741 225.308 49.5058C225.308 49.2375 225.252 49.0007 225.141 48.7929C225.029 48.586 224.874 48.4265 224.678 48.3146C224.481 48.2027 224.258 48.1467 224.01 48.1467C223.762 48.1467 223.539 48.2027 223.343 48.3146C223.146 48.4265 222.99 48.586 222.876 48.7929C222.762 48.9999 222.704 49.2375 222.704 49.5058C222.704 49.7741 222.762 50.011 222.876 50.2187C222.99 50.4257 223.146 50.5867 223.343 50.7009C223.539 50.8151 223.762 50.8726 224.01 50.8726C224.258 50.8726 224.481 50.8151 224.678 50.7009Z" fill="#272838"/>
<path d="M230.495 48.146H228.35V51.4054H227.649V47.532H230.495V48.146Z" fill="#272838"/>
<path d="M232.281 51.2306C231.975 51.0604 231.734 50.8251 231.562 50.5254C231.389 50.2256 231.303 49.886 231.303 49.5058C231.303 49.1256 231.39 48.786 231.562 48.4863C231.735 48.1866 231.975 47.9528 232.281 47.7849C232.587 47.617 232.933 47.5327 233.317 47.5327C233.702 47.5327 234.046 47.617 234.35 47.7849C234.654 47.9528 234.893 48.1866 235.065 48.4863C235.238 48.786 235.324 49.1256 235.324 49.5058C235.324 49.886 235.237 50.2256 235.065 50.5254C234.892 50.8251 234.654 51.0604 234.35 51.2306C234.046 51.4015 233.702 51.4866 233.317 51.4866C232.933 51.4866 232.588 51.4015 232.281 51.2306ZM233.985 50.7009C234.182 50.5867 234.336 50.4257 234.448 50.2187C234.56 50.0118 234.616 49.7741 234.616 49.5058C234.616 49.2375 234.56 49.0007 234.448 48.7929C234.336 48.586 234.182 48.4265 233.985 48.3146C233.788 48.2027 233.565 48.1467 233.317 48.1467C233.069 48.1467 232.847 48.2027 232.65 48.3146C232.453 48.4265 232.297 48.586 232.183 48.7929C232.069 48.9999 232.012 49.2375 232.012 49.5058C232.012 49.7741 232.069 50.011 232.183 50.2187C232.297 50.4257 232.453 50.5867 232.65 50.7009C232.847 50.8151 233.069 50.8726 233.317 50.8726C233.565 50.8726 233.788 50.8151 233.985 50.7009Z" fill="#272838"/>
<path d="M240.605 47.5327H241.305V49.177H243.509V47.5327H244.209V51.4061H243.509V49.7833H241.305V51.4061H240.605V47.5327Z" fill="#272838"/>
<path d="M249.827 47.5687V51.4422H249.156V50.8281C249 51.0428 248.803 51.2061 248.565 51.318C248.327 51.4299 248.063 51.4858 247.776 51.4858C247.402 51.4858 247.066 51.4031 246.769 51.2375C246.472 51.0719 246.24 50.8389 246.072 50.5399C245.904 50.2402 245.82 49.896 245.82 49.5058C245.82 49.1157 245.904 48.7722 246.072 48.4756C246.239 48.1782 246.472 47.9467 246.769 47.7811C247.066 47.6155 247.401 47.5327 247.776 47.5327C248.053 47.5327 248.309 47.5848 248.543 47.6899C248.776 47.7949 248.971 47.949 249.127 48.1536V47.5687H249.827ZM248.499 50.7001C248.699 50.5859 248.854 50.4249 248.966 50.218C249.078 50.011 249.134 49.7734 249.134 49.5051C249.134 49.2368 249.078 48.9999 248.966 48.7922C248.854 48.5852 248.698 48.4258 248.499 48.3138C248.299 48.2019 248.078 48.146 247.835 48.146C247.591 48.146 247.364 48.2019 247.167 48.3138C246.97 48.4258 246.814 48.5852 246.7 48.7922C246.586 48.9991 246.529 49.2368 246.529 49.5051C246.529 49.7734 246.586 50.0102 246.7 50.218C246.814 50.4249 246.97 50.5859 247.167 50.7001C247.364 50.8143 247.587 50.8718 247.835 50.8718C248.083 50.8718 248.299 50.8143 248.499 50.7001Z" fill="#272838"/>
<path d="M252.419 51.2306C252.11 51.0604 251.868 50.8251 251.693 50.5254C251.517 50.2256 251.43 49.886 251.43 49.5058C251.43 49.1256 251.517 48.786 251.693 48.4863C251.868 48.1866 252.11 47.9528 252.419 47.7849C252.728 47.617 253.08 47.5327 253.474 47.5327C253.825 47.5327 254.137 47.6032 254.412 47.7443C254.687 47.8853 254.899 48.09 255.05 48.3583L254.517 48.7017C254.396 48.517 254.245 48.3775 254.065 48.2855C253.885 48.1927 253.685 48.1467 253.466 48.1467C253.213 48.1467 252.986 48.2027 252.784 48.3146C252.582 48.4265 252.425 48.586 252.31 48.7929C252.196 48.9999 252.138 49.2375 252.138 49.5058C252.138 49.7741 252.196 50.0187 252.31 50.2256C252.424 50.4326 252.582 50.592 252.784 50.704C252.986 50.8159 253.214 50.8718 253.466 50.8718C253.685 50.8718 253.885 50.8258 254.065 50.7331C254.245 50.6403 254.396 50.5016 254.517 50.3168L255.05 50.6534C254.899 50.9217 254.687 51.1271 254.412 51.2712C254.137 51.4153 253.825 51.4866 253.474 51.4866C253.08 51.4866 252.728 51.4015 252.419 51.2306Z" fill="#272838"/>
<path d="M262.645 47.9566C262.93 48.2395 263.072 48.658 263.072 49.2138V51.4429H262.372V49.2943C262.372 48.9194 262.285 48.6366 262.113 48.4464C261.94 48.2563 261.694 48.1613 261.372 48.1613C261.017 48.1613 260.734 48.2724 260.525 48.494C260.316 48.7155 260.212 49.0336 260.212 49.4476V51.4429H259.511V49.2943C259.511 48.9194 259.425 48.6366 259.252 48.4464C259.079 48.2563 258.833 48.1613 258.511 48.1613C258.156 48.1613 257.874 48.2724 257.665 48.494C257.456 48.7155 257.351 49.0336 257.351 49.4476V51.4429H256.651V47.5695H257.322V48.1467C257.463 47.9467 257.648 47.7949 257.877 47.6899C258.106 47.5848 258.366 47.5327 258.658 47.5327C258.949 47.5327 259.227 47.594 259.461 47.7152C259.694 47.837 259.874 48.0149 260.001 48.2487C260.147 48.0248 260.35 47.8493 260.61 47.7228C260.871 47.5963 261.164 47.5327 261.49 47.5327C261.977 47.5327 262.362 47.6738 262.647 47.9566H262.645Z" fill="#272838"/>
<path d="M267.887 47.7811C268.186 47.9467 268.418 48.1797 268.581 48.4787C268.744 48.7784 268.825 49.1234 268.825 49.5128C268.825 49.9022 268.744 50.2402 268.584 50.54C268.423 50.8397 268.199 51.0719 267.912 51.2375C267.625 51.4031 267.297 51.4859 266.927 51.4859C266.636 51.4859 266.372 51.4338 266.139 51.3287C265.905 51.2237 265.711 51.0719 265.555 50.8719V52.8596H264.847V49.5197C264.847 49.1303 264.931 48.7838 265.099 48.4817C265.266 48.1797 265.503 47.9459 265.807 47.7803C266.11 47.6148 266.46 47.532 266.854 47.532C267.248 47.532 267.587 47.6148 267.886 47.7803L267.887 47.7811ZM267.504 50.7009C267.703 50.5867 267.857 50.4257 267.967 50.2188C268.076 50.0118 268.131 49.7765 268.131 49.5135C268.131 49.2506 268.077 49.0153 267.967 48.8083C267.857 48.6013 267.704 48.4396 267.507 48.3223C267.31 48.205 267.085 48.1468 266.832 48.1468C266.447 48.1468 266.136 48.2725 265.898 48.5231C265.659 48.7738 265.54 49.1019 265.54 49.5059C265.54 49.7742 265.595 50.011 265.705 50.2188C265.814 50.4257 265.967 50.5867 266.161 50.7009C266.355 50.8151 266.58 50.8726 266.832 50.8726C267.085 50.8726 267.304 50.8151 267.504 50.7009Z" fill="#272838"/>
<path d="M271.084 51.2306C270.778 51.0604 270.538 50.8251 270.366 50.5254C270.193 50.2256 270.107 49.886 270.107 49.5058C270.107 49.1256 270.193 48.786 270.366 48.4863C270.539 48.1866 270.778 47.9528 271.084 47.7849C271.391 47.617 271.737 47.5327 272.121 47.5327C272.505 47.5327 272.85 47.617 273.154 47.7849C273.457 47.9528 273.696 48.1866 273.869 48.4863C274.041 48.786 274.127 49.1256 274.127 49.5058C274.127 49.886 274.041 50.2256 273.869 50.5254C273.696 50.8251 273.457 51.0604 273.154 51.2306C272.85 51.4015 272.505 51.4866 272.121 51.4866C271.737 51.4866 271.391 51.4015 271.084 51.2306ZM272.788 50.7009C272.985 50.5867 273.14 50.4257 273.252 50.2187C273.363 50.0118 273.419 49.7741 273.419 49.5058C273.419 49.2375 273.363 49.0007 273.252 48.7929C273.14 48.586 272.985 48.4265 272.788 48.3146C272.592 48.2027 272.369 48.1467 272.121 48.1467C271.873 48.1467 271.65 48.2027 271.453 48.3146C271.257 48.4265 271.101 48.586 270.986 48.7929C270.872 48.9999 270.815 49.2375 270.815 49.5058C270.815 49.7741 270.872 50.011 270.986 50.2187C271.101 50.4257 271.257 50.5867 271.453 50.7009C271.65 50.8151 271.873 50.8726 272.121 50.8726C272.369 50.8726 272.592 50.8151 272.788 50.7009Z" fill="#272838"/>
<path d="M278.606 50.405L278.986 50.858C278.815 51.0627 278.6 51.2183 278.34 51.3256C278.079 51.433 277.788 51.4866 277.468 51.4866C277.059 51.4866 276.697 51.4023 276.38 51.2344C276.064 51.0665 275.819 50.8312 275.647 50.5292C275.474 50.2272 275.388 49.886 275.388 49.5058C275.388 49.1256 275.472 48.7922 275.64 48.4901C275.807 48.1881 276.039 47.9528 276.333 47.7849C276.627 47.617 276.959 47.5327 277.329 47.5327C277.68 47.5327 277.998 47.6117 278.285 47.7703C278.572 47.929 278.801 48.1513 278.971 48.4388C279.141 48.7262 279.229 49.0574 279.234 49.433L276.161 50.0325C276.258 50.3008 276.423 50.5077 276.654 50.6534C276.885 50.7998 277.164 50.8726 277.49 50.8726C277.952 50.8726 278.324 50.717 278.607 50.405H278.606ZM276.675 48.2931C276.483 48.4051 276.333 48.5622 276.227 48.7646C276.12 48.9669 276.066 49.2023 276.066 49.4698V49.5426L278.54 49.075C278.477 48.7922 278.336 48.5637 278.117 48.3882C277.898 48.2126 277.635 48.1253 277.328 48.1253C277.085 48.1253 276.868 48.1812 276.675 48.2931Z" fill="#272838"/>
<path d="M280.921 47.5327H281.621V49.177H283.825V47.5327H284.526V51.4061H283.825V49.7833H281.621V51.4061H280.921V47.5327Z" fill="#272838"/>
<path d="M290.034 47.5327V51.4062H289.363V50.8358C289.222 51.0305 289.037 51.1816 288.808 51.2889C288.579 51.3962 288.329 51.4499 288.056 51.4499C287.54 51.4499 287.134 51.3073 286.837 51.0221C286.54 50.737 286.392 50.3169 286.392 49.7611V47.532H287.092V49.6806C287.092 50.0563 287.183 50.3399 287.362 50.5323C287.542 50.7247 287.8 50.8213 288.136 50.8213C288.506 50.8213 288.798 50.7094 289.012 50.4848C289.226 50.2609 289.333 49.9436 289.333 49.535V47.5327H290.033H290.034Z" fill="#272838"/>
<path d="M295.118 47.5327V51.4061H294.491V50.1781H293.287L292.44 51.4061H291.688L292.63 50.0831C292.338 49.9957 292.114 49.8508 291.958 49.6484C291.803 49.446 291.725 49.1938 291.725 48.8918C291.725 48.4487 291.876 48.1107 292.177 47.88C292.479 47.6485 292.895 47.5327 293.425 47.5327H295.118ZM292.684 49.4874C292.847 49.6116 293.091 49.6737 293.417 49.6737H294.49V48.146H293.447C292.775 48.146 292.439 48.402 292.439 48.9133C292.439 49.1716 292.52 49.3625 292.683 49.4867L292.684 49.4874Z" fill="#272838"/>
</g>
<defs>
<clipPath id="clip0_230_122">
<rect width="422" height="53" fill="white"/>
</clipPath>
</defs>
</svg>
