<svg width="480" height="41" viewBox="0 0 480 41" fill="none" xmlns="http://www.w3.org/2000/svg">
<g clip-path="url(#clip0_232_280)">
<path d="M328.664 27.2658C328.664 26.5454 328.172 25.9869 327.188 25.5901C326.203 25.1942 324.963 24.8155 323.469 24.4549C321.974 24.0952 320.37 23.707 318.657 23.2931C316.943 22.8791 315.339 22.293 313.845 21.5365C312.35 20.78 311.111 19.7799 310.127 18.5362C309.142 17.2926 308.65 15.6625 308.65 13.6443C308.65 10.7611 309.771 8.47354 312.013 6.77892C314.255 5.08516 317.472 4.23828 321.665 4.23828C326.222 4.23828 329.585 5.13938 331.754 6.94072C333.923 8.74292 335.008 11.5899 335.008 15.4818H335.828V4.77877H346.6V18.5096H333.749C333.603 17.7892 333.33 17.1403 332.929 16.5636C332.565 16.0593 332.054 15.6092 331.398 15.2124C330.741 14.8165 329.866 14.6177 328.773 14.6177C327.351 14.6177 326.64 15.2847 326.64 16.6179C326.64 17.4828 327.132 18.1584 328.116 18.6447C329.101 19.131 330.331 19.5733 331.808 19.9692C333.285 20.366 334.888 20.7894 336.62 21.2395C338.351 21.6905 339.955 22.3119 341.432 23.1046C342.909 23.8981 344.139 24.9515 345.123 26.2666C346.108 27.5825 346.6 29.2858 346.6 31.3746C346.6 33.0692 346.253 34.5288 345.561 35.7535C344.868 36.9791 343.793 37.9792 342.335 38.7538C340.876 39.5292 339.017 40.0964 336.757 40.4561C334.496 40.8159 331.798 40.9966 328.663 40.9966C326.804 40.9966 324.89 40.9243 322.921 40.7806C320.953 40.636 319.039 40.4114 317.18 40.105C315.32 39.7994 313.552 39.4018 311.875 38.9156C310.198 38.4293 308.721 37.844 307.445 37.159L311.327 25.1581C312.676 25.807 314.116 26.3836 315.647 26.888C316.923 27.32 318.399 27.7177 320.077 28.0774C321.753 28.438 323.467 28.6179 325.217 28.6179C326.384 28.6179 327.249 28.5284 327.814 28.3476C328.379 28.1678 328.662 27.8072 328.662 27.2667L328.664 27.2658Z" fill="#272838"/>
<path d="M366.007 40.4562H349.657V4.77881H366.007V20.4555H372.624V4.77881H388.974V40.4562H372.624V24.7261H366.007V40.4562Z" fill="#272838"/>
<path d="M413.084 40.9965C410.058 40.9965 407.261 40.6179 404.69 39.8613C402.12 39.1048 399.887 37.961 397.992 36.4291C396.096 34.898 394.62 32.9787 393.563 30.6722C392.505 28.3665 391.977 25.6632 391.977 22.564C391.977 19.4648 392.505 16.7529 393.563 14.4283C394.62 12.1037 396.096 10.1767 397.992 8.64388C399.887 7.11279 402.12 5.96812 404.69 5.21161C407.261 4.4551 410.058 4.07642 413.084 4.07642C416.11 4.07642 418.908 4.4551 421.478 5.21161C424.048 5.96812 426.28 7.11279 428.177 8.64388C430.072 10.1758 431.548 12.1037 432.606 14.4283C433.663 16.7529 434.193 19.4648 434.193 22.564C434.193 25.6632 433.663 28.3665 432.606 30.6722C431.548 32.9787 430.072 34.898 428.177 36.4291C426.28 37.961 424.048 39.1048 421.478 39.8613C418.908 40.6179 416.11 40.9965 413.084 40.9965ZM413.084 14.9955C411.735 14.9955 410.741 15.69 410.104 17.0765C409.466 18.4639 409.147 20.2928 409.147 22.5632C409.147 24.8336 409.466 26.671 410.104 28.0773C410.741 29.4828 411.736 30.1859 413.084 30.1859C414.433 30.1859 415.426 29.4828 416.064 28.0773C416.702 26.6719 417.021 24.8336 417.021 22.5632C417.021 20.2928 416.702 18.4639 416.064 17.0765C415.426 15.69 414.433 14.9955 413.084 14.9955Z" fill="#272838"/>
<path d="M461.833 4.77882C465.259 4.77882 468.13 5.12136 470.445 5.80558C472.76 6.49065 474.628 7.42704 476.05 8.61646C477.472 9.80587 478.483 11.2113 479.085 12.8328C479.687 14.4542 479.987 16.2031 479.987 18.0759C479.987 22.3283 478.766 25.5988 476.323 27.8873C473.88 30.1766 470.454 31.3195 466.043 31.3195C464.11 31.3195 462.415 31.0949 460.958 30.6439C459.499 30.1938 458.287 29.581 457.321 28.8056C456.355 28.031 455.635 27.1118 455.161 26.0489C454.687 24.986 454.45 23.8594 454.45 22.67H453.63V40.4545H437.334V4.7771H461.832L461.833 4.77882ZM458.934 20.6173C460.32 20.6173 461.313 20.3566 461.915 19.8333C462.516 19.3117 462.816 18.7437 462.816 18.1309C462.816 16.3296 461.085 15.4285 457.621 15.4285H453.63V17.3202C453.884 17.9691 454.249 18.5277 454.723 18.9959C455.124 19.3926 455.662 19.7619 456.336 20.1044C457.01 20.4469 457.876 20.6182 458.933 20.6182L458.934 20.6173Z" fill="#272838"/>
<path d="M16.0491 40.4261H0.0129395V5.43384H38.5749V40.4261H22.5388L22.4848 13.9173H15.9951L16.0491 40.4261Z" fill="#272838"/>
<path d="M79.5625 24.944C78.6753 24.0584 78.1007 23.0049 77.6201 21.8525L77.5295 21.578C77.5295 21.578 77.5269 21.5694 77.5261 21.5651C76.342 18.3213 76.712 16.3719 76.712 16.3693C76.7338 15.8383 76.901 15.352 77.0551 14.8425C77.2509 14.1919 78.8808 11.0677 79.2281 10.5531C79.3457 10.3801 79.3587 10.158 79.2682 9.97039C78.8973 9.20011 78.3314 7.66127 77.9074 6.68185C77.8534 6.55706 77.7585 6.45464 77.6366 6.39181C75.541 5.30912 73.4245 4.63867 70.1318 4.63867C65.8761 4.63867 62.6043 5.53202 60.3163 7.31615C58.1153 9.03314 56.9731 11.511 56.8886 14.7479C56.8834 14.9639 56.7032 15.136 56.4846 15.136C56.2609 15.136 56.0798 14.957 56.0798 14.7358V5.83411C56.0798 5.61293 55.8987 5.43391 55.675 5.43391H42.4866C42.2629 5.43391 42.0818 5.61293 42.0818 5.83411V40.0251C42.0818 40.2463 42.2629 40.4253 42.4866 40.4253H57.7131C57.9369 40.4253 58.1179 40.2463 58.1179 40.0251V31.8662C58.1179 31.645 58.299 31.466 58.5228 31.466H62.3013C66.1269 31.466 69.4074 31.1036 72.143 30.379C74.8776 29.6552 77.1212 28.6473 78.8738 27.3572C79.5903 26.8296 79.606 26.3881 80.1484 25.7977C80.2285 25.7108 80.2207 25.5765 80.1345 25.4956C79.9255 25.3003 79.7357 25.117 79.5625 24.9448V24.944ZM66.806 18.7413C66.5918 19.1656 66.2331 19.5451 65.7334 19.8808C65.2319 20.2173 64.5615 20.4824 63.7222 20.676C62.882 20.8705 61.8181 20.9678 60.5313 20.9678H58.5228C58.299 20.9678 58.1179 20.7888 58.1179 20.5676V19.4298C58.1179 19.3609 58.1354 19.2921 58.1693 19.2318C58.5898 18.4908 59.1087 17.8143 59.7269 17.2033C60.2275 16.6731 60.8613 16.1877 61.6309 15.7453C62.3997 15.3038 63.2486 15.0826 64.1784 15.0826C65.1083 15.0826 65.7873 15.2685 66.3236 15.6395C66.86 16.0104 67.1281 16.6206 67.1281 17.4684C67.1281 17.8927 67.021 18.317 66.806 18.7413Z" fill="#272838"/>
<path d="M196.016 40.4467V30.7446L195.962 30.6913H195.212C195.212 33.9781 194.273 36.5058 192.396 38.2727C190.519 40.0405 187.828 40.9235 184.324 40.9235C175.993 40.9235 171.828 35.8337 171.828 25.6539V5.45361H188.614V23.6916C188.614 25.8837 188.811 27.4208 189.205 28.3047C189.598 29.1886 190.206 29.6301 191.029 29.6301C191.636 29.6301 192.146 29.4184 192.557 28.9941C192.967 28.5698 193.281 28.093 193.496 27.5628C193.746 26.9268 193.925 26.2202 194.032 25.4422V5.45447H210.014V40.4467H196.016Z" fill="#272838"/>
<path d="M230.309 23.2476C230.309 20.7026 230.47 18.3169 230.791 16.0904C231.113 13.8639 231.685 11.9197 232.507 10.2586C233.329 8.59759 234.465 7.2894 235.913 6.3358C237.361 5.38134 239.211 4.90454 241.464 4.90454C243.038 4.90454 244.664 5.10852 246.345 5.51388C248.025 5.92011 249.51 6.58367 250.797 7.50198L246.989 19.3247C246.523 18.9004 245.986 18.5295 245.38 18.211C244.878 17.9287 244.253 17.6723 243.503 17.4425C242.752 17.2127 241.911 17.0982 240.982 17.0982C239.802 17.0982 238.827 17.3986 238.059 17.9993C237.29 18.6009 236.692 19.2714 236.262 20.0141C235.726 20.898 235.333 21.8877 235.083 22.9833L235.458 23.5135C236.745 22.1347 238.228 21.1992 239.909 20.7035C241.59 20.2086 243.181 20.0941 244.683 20.3592C246.185 20.6243 247.445 21.2526 248.464 22.2415C249.483 23.2312 249.993 24.5213 249.993 26.1118V40.427H233.206V30.1947C233.206 29.4881 233.018 28.834 232.642 28.2333C232.267 27.6326 231.489 27.3322 230.309 27.3322H229.612V40.4278H213.575V5.43556H229.612V23.2493H230.309V23.2476Z" fill="#272838"/>
<path d="M152.73 5.11548V20.6313H146.181V5.11548H129.998L130.502 13.8209C130.502 14.0034 130.626 14.1583 130.802 14.2134C131.911 14.5602 132.884 15.599 133.475 16.5131C134.23 17.681 134.605 18.9117 134.953 20.2526C135.366 21.8422 135.491 23.4654 135.677 25.0946C135.877 26.8486 136.308 30.6552 136.309 30.6991C136.331 31.1682 135.704 32.1545 135.13 32.1597C134.094 32.17 130.036 32.1958 129.998 32.1898V40.4262H146.181V24.8579H152.73V40.4262H168.912V5.11548H152.73Z" fill="#272838"/>
<path d="M135.291 30.4607L134.296 21.7294C134.158 20.5202 133.846 19.335 133.347 18.2231C132.938 17.3125 132.591 16.8409 132.591 16.8409C131.505 15.0094 128.663 14.2761 128.663 14.2761C128.502 14.2202 128.325 14.1755 128.139 14.1402C126.477 13.8234 124.773 14.4319 123.637 15.6721C122.194 17.248 120.573 20.1561 118.981 20.2353H111.128C111.128 20.2353 112.871 20.2551 111.062 20.2353C110.152 20.2249 109.208 20.1544 108.492 20.0864C107.754 20.0167 107.101 19.5855 106.747 18.9409L103.52 13.0428C103.52 13.0428 102.868 11.5539 100.332 8.83512C97.7954 6.11633 94.1492 5.80736 94.1492 5.80736C94.1492 5.80736 92.165 5.32453 88.5919 6.09912C85.2487 6.82378 81.0975 10.411 81.0975 10.411C81.0975 10.411 76.4048 13.8932 77.918 19.6957C79.432 25.4981 83.6964 27.2616 83.6964 27.2616C84.0794 27.3924 84.5069 27.3296 84.8264 27.0826C85.6109 26.4776 86.431 25.3441 86.4336 25.3424C87.0222 24.5136 88.3734 22.0564 88.6947 21.4695C88.7295 21.4049 88.7626 21.3404 88.7895 21.2715C88.9907 20.7543 89.2902 20.8179 89.2902 20.8179C89.5731 20.8549 89.5705 21.2224 89.5069 21.5547C89.4538 21.8318 89.3546 22.0977 89.2223 22.3473L86.7183 27.0714C86.6791 27.1334 86.6521 27.2005 86.6339 27.2685C86.5172 27.7117 86.8289 28.1481 87.2816 28.2462C88.7669 28.5664 91.115 27.8357 91.115 27.8357C92.1563 27.4819 93.9533 26.7082 95.1373 26.1858C95.7903 25.8975 96.4563 25.6402 97.1372 25.425C97.5429 25.2968 98 25.1358 98.6068 24.9112C98.7565 24.8561 98.915 24.875 99.0186 24.9465C99.1979 25.0704 99.2711 25.2968 99.2328 25.5102C99.1858 25.7701 99.09 26.0972 99.0273 26.2977C98.9942 26.4044 98.8932 26.4741 98.78 26.469C97.9146 26.4337 95.6231 26.611 95.1452 26.6497C95.0877 26.654 95.0337 26.6721 94.9841 26.7013C94.6907 26.8795 93.5423 27.5542 92.1659 28.0646C89.4338 29.0776 87.9668 28.8805 87.6316 28.8116C87.5829 28.8013 87.5324 28.816 87.4949 28.8495L86.2551 29.9632C84.7629 31.2283 84.7803 33.8645 84.7803 33.8645V35.7149L84.7437 36.3363C84.708 36.9465 84.641 37.5541 84.5383 38.1566C84.4634 38.5955 84.4077 38.8477 84.4077 38.8477C84.4077 38.8477 84.3615 39.1386 84.1839 39.358C84.1735 39.3709 84.163 39.3847 84.1526 39.3994C84.0307 39.5741 83.9732 39.7849 83.9732 39.9966V40.0621C83.968 40.192 84.1108 40.2815 84.2579 40.3392C84.405 40.3968 84.567 40.4235 84.7281 40.4235H101.371C101.641 40.4218 101.861 40.2023 101.861 39.9364V35.0057C101.861 31.0709 104.258 31.2361 105.567 31.3282C106.967 31.4263 108.679 31.3282 108.679 31.3282C109.39 31.3282 109.365 31.762 109.365 31.762V39.8348C109.365 39.84 109.365 39.8452 109.365 39.8495C109.369 40.1714 109.65 40.4235 109.975 40.4235H124.83C125.348 40.4218 125.772 40.0018 125.772 39.4897V28.0637V22.7243C125.772 22.7243 125.772 21.3404 126.78 21.3438C127.403 21.3464 127.664 21.7965 127.772 22.1408C127.826 22.3112 127.848 22.4902 127.848 22.6692V26.3829L127.873 30.5355C127.873 31.5244 128.673 31.4616 128.673 31.4616H134.577C134.923 31.4306 135.106 31.2258 135.202 31.0261C135.286 30.8497 135.311 30.6509 135.289 30.4572L135.291 30.4607ZM88.3725 16.297C86.2847 17.1645 84.1404 16.8065 83.584 15.4974C83.0277 14.1884 84.2692 12.424 86.357 11.5565C88.4448 10.689 90.5891 11.047 91.1455 12.356C91.7018 13.6651 90.4603 15.4294 88.3725 16.297Z" fill="#272838"/>
<path d="M85.7442 16.9236C86.7924 16.9236 87.6421 16.0836 87.6421 15.0474C87.6421 14.0112 86.7924 13.1711 85.7442 13.1711C84.6959 13.1711 83.8462 14.0112 83.8462 15.0474C83.8462 16.0836 84.6959 16.9236 85.7442 16.9236Z" fill="#272838"/>
<path d="M80.4507 9.99104C80.4507 9.99104 85.1547 4.88222 90.4656 4.63177C94.6664 4.43383 97.6674 5.02767 100.868 7.59843C103.13 9.41526 105.947 15.3606 106.99 17.4761C107.163 17.8264 107.654 17.8591 107.875 17.5363L109.674 14.901C109.796 14.6945 109.821 14.4458 109.74 14.2203C109.218 12.7744 106.873 9.18547 103.468 5.02853C102.034 3.27625 99.5175 0.734752 94.2728 0.105618C91.1638 -0.267043 88.2646 0.480003 85.2052 1.68147C84.3694 2.00938 83.0635 2.65572 82.2503 3.12478C81.2438 3.70571 80.2348 4.28579 79.3946 5.08534C79.2022 5.26865 78.9393 5.63701 78.7477 5.92017C78.5902 6.1534 78.5606 6.44688 78.6668 6.7068C79.0028 7.52786 79.7481 9.35415 79.9614 9.9153C80.0372 10.1158 80.3079 10.1675 80.4429 10.0005C80.4446 9.99792 80.4472 9.99534 80.449 9.99276L80.4507 9.99104Z" fill="#272838"/>
<path d="M278.504 40.4458V30.7265L278.45 30.6732H277.697C277.697 33.966 276.757 36.498 274.876 38.2684C272.996 40.0396 270.3 40.9244 266.79 40.9244C258.443 40.9244 254.271 35.8259 254.271 25.628V5.3916H271.088V23.6623C271.088 25.8578 271.285 27.3984 271.68 28.2831C272.073 29.1688 272.682 29.6111 273.506 29.6111C274.115 29.6111 274.625 29.3985 275.038 28.9734C275.448 28.5482 275.763 28.0706 275.978 27.5395C276.228 26.9018 276.408 26.1943 276.515 25.4155V5.3916H292.526V40.4458H278.503H278.504Z" fill="#272838"/>
</g>
<defs>
<clipPath id="clip0_232_280">
<rect width="480" height="41" fill="white"/>
</clipPath>
</defs>
</svg>
