<svg width="33" height="32" viewBox="0 0 33 32" fill="none" xmlns="http://www.w3.org/2000/svg">
<circle cx="16.7607" cy="16" r="15" stroke="#272838" stroke-width="2"/>
<path d="M22.0107 10.5H11.5107C11.0468 10.5005 10.6019 10.685 10.2739 11.0131C9.94577 11.3412 9.76124 11.786 9.76074 12.25V19.75C9.76124 20.214 9.94577 20.6588 10.2739 20.9869C10.6019 21.315 11.0468 21.4995 11.5107 21.5H22.0107C22.4747 21.4995 22.9195 21.315 23.2476 20.9869C23.5757 20.6588 23.7602 20.214 23.7607 19.75V12.25C23.7602 11.786 23.5757 11.3412 23.2476 11.0131C22.9195 10.685 22.4747 10.5005 22.0107 10.5ZM21.5676 13.3947L17.0676 16.8947C16.9799 16.9629 16.8719 16.9999 16.7607 16.9999C16.6496 16.9999 16.5416 16.9629 16.4539 16.8947L11.9539 13.3947C11.901 13.3548 11.8566 13.3047 11.8232 13.2475C11.7899 13.1902 11.7682 13.1269 11.7595 13.0613C11.7508 12.9956 11.7553 12.9288 11.7726 12.8649C11.7899 12.8009 11.8198 12.7411 11.8605 12.6888C11.9011 12.6365 11.9518 12.5928 12.0095 12.5602C12.0672 12.5277 12.1308 12.5069 12.1966 12.4991C12.2624 12.4914 12.3291 12.4968 12.3928 12.515C12.4565 12.5332 12.5159 12.5639 12.5676 12.6053L16.7607 15.8666L20.9539 12.6053C21.0587 12.5261 21.1905 12.4914 21.3208 12.5086C21.451 12.5259 21.5693 12.5937 21.6499 12.6974C21.7306 12.8011 21.7671 12.9324 21.7517 13.0629C21.7363 13.1934 21.6702 13.3126 21.5676 13.3947Z" fill="#272838"/>
</svg>
