<svg width="33" height="32" viewBox="0 0 33 32" fill="none" xmlns="http://www.w3.org/2000/svg">
<circle cx="16.7607" cy="16" r="15" stroke="#272838" stroke-width="2"/>
<path fill-rule="evenodd" clip-rule="evenodd" d="M15.151 20.0011C15.166 20.09 15.1632 20.1809 15.143 20.2687C15.1228 20.3565 15.0855 20.4395 15.0331 20.5128C14.9808 20.5862 14.9146 20.6485 14.8382 20.6963C14.7618 20.744 14.6767 20.7762 14.5878 20.7911C12.394 21.1594 10.3037 21.9903 8.45573 23.2286C8.30454 23.3297 8.11938 23.3666 7.94097 23.3312C7.76257 23.2958 7.60553 23.191 7.50442 23.0398C7.4033 22.8886 7.36639 22.7034 7.40179 22.525C7.4372 22.3466 7.54203 22.1896 7.69322 22.0885C9.70269 20.742 11.9756 19.8385 14.3611 19.4379C14.45 19.423 14.5409 19.4257 14.6287 19.446C14.7165 19.4662 14.7994 19.5035 14.8728 19.5558C14.9461 19.6081 15.0085 19.6744 15.0562 19.7508C15.104 19.8272 15.1362 19.9123 15.151 20.0011ZM19.2836 20.0011C19.2985 19.9123 19.3307 19.8272 19.3784 19.7508C19.4262 19.6744 19.4885 19.6081 19.5619 19.5558C19.6352 19.5035 19.7182 19.4662 19.806 19.446C19.8938 19.4257 19.9847 19.423 20.0736 19.4379C22.459 19.8385 24.732 20.742 26.7414 22.0885C26.8926 22.1896 26.9975 22.3466 27.0329 22.525C27.0683 22.7034 27.0314 22.8886 26.9303 23.0398C26.8291 23.191 26.6721 23.2958 26.4937 23.3312C26.3153 23.3666 26.1301 23.3297 25.9789 23.2286C24.1309 21.9903 22.0406 21.1594 19.8468 20.7911C19.758 20.7762 19.6729 20.744 19.5965 20.6963C19.5201 20.6485 19.4538 20.5862 19.4015 20.5128C19.3492 20.4395 19.3119 20.3565 19.2917 20.2687C19.2714 20.1809 19.2687 20.09 19.2836 20.0011Z" fill="#272838"/>
<path fill-rule="evenodd" clip-rule="evenodd" d="M11.96 14.6287C11.96 13.2344 12.5138 11.8973 13.4997 10.9114C14.4856 9.92546 15.8228 9.37158 17.2171 9.37158C18.6114 9.37158 19.9486 9.92546 20.9345 10.9114C21.9204 11.8973 22.4742 13.2344 22.4742 14.6287C22.4742 17.1357 21.2272 19.34 20.0468 20.8751C19.3942 21.7196 18.6635 22.5008 17.8644 23.2084C17.7982 23.2657 17.7311 23.3221 17.6633 23.3775L17.6514 23.3885L17.6477 23.3912H17.6459C17.6459 23.3922 17.6459 23.3931 17.2171 22.8573L16.824 23.4187L16.8212 23.4168L16.8176 23.4141L16.8038 23.405L16.759 23.372L16.599 23.2514C16.411 23.1039 16.2275 22.9509 16.0486 22.7924C15.4493 22.262 14.8963 21.6814 14.3956 21.0571C13.1979 19.5604 11.96 17.356 11.96 14.6287ZM17.2171 22.8573L16.824 23.4187C16.9453 23.5038 17.091 23.5474 17.2392 23.5428C17.3874 23.5381 17.5301 23.4856 17.6459 23.3931L17.2171 22.8573ZM17.1933 21.9677C17.2726 21.8958 17.3597 21.8135 17.4548 21.7208C17.9966 21.1973 18.4995 20.635 18.9597 20.0386C20.0642 18.6031 21.1028 16.6932 21.1028 14.6287C21.1028 13.5982 20.6934 12.6098 19.9647 11.8811C19.236 11.1524 18.2477 10.743 17.2171 10.743C16.1865 10.743 15.1982 11.1524 14.4695 11.8811C13.7408 12.6098 13.3314 13.5982 13.3314 14.6287C13.3314 16.93 14.3782 18.8399 15.4672 20.2004C15.9842 20.8438 16.5623 21.4356 17.1933 21.9677ZM17.2171 13.4859C16.914 13.4859 16.6233 13.6063 16.409 13.8206C16.1947 14.0349 16.0742 14.3256 16.0742 14.6287C16.0742 14.9318 16.1947 15.2225 16.409 15.4368C16.6233 15.6512 16.914 15.7716 17.2171 15.7716C17.5202 15.7716 17.8109 15.6512 18.0252 15.4368C18.2396 15.2225 18.36 14.9318 18.36 14.6287C18.36 14.3256 18.2396 14.0349 18.0252 13.8206C17.8109 13.6063 17.5202 13.4859 17.2171 13.4859ZM14.7028 14.6287C14.7028 13.9619 14.9677 13.3224 15.4392 12.8509C15.9108 12.3793 16.5503 12.1144 17.2171 12.1144C17.8839 12.1144 18.5235 12.3793 18.995 12.8509C19.4665 13.3224 19.7314 13.9619 19.7314 14.6287C19.7314 15.2956 19.4665 15.9351 18.995 16.4066C18.5235 16.8781 17.8839 17.143 17.2171 17.143C16.5503 17.143 15.9108 16.8781 15.4392 16.4066C14.9677 15.9351 14.7028 15.2956 14.7028 14.6287Z" fill="#272838"/>
</svg>
