<svg width="7" height="13" viewBox="0 0 7 13" fill="none" xmlns="http://www.w3.org/2000/svg">
<path d="M0.379954 6.86196L5.95295 12.172C6.04594 12.2606 6.16948 12.3101 6.29795 12.3101C6.42642 12.3101 6.54997 12.2606 6.64295 12.172L6.64895 12.166C6.69419 12.123 6.73021 12.0713 6.75482 12.0139C6.77944 11.9566 6.79213 11.8949 6.79213 11.8325C6.79213 11.7701 6.77944 11.7083 6.75482 11.651C6.73021 11.5937 6.69419 11.5419 6.64895 11.499L1.40095 6.49896L6.64895 1.50096C6.69419 1.45799 6.73021 1.40626 6.75482 1.34893C6.77944 1.2916 6.79213 1.22986 6.79213 1.16746C6.79213 1.10507 6.77944 1.04333 6.75482 0.985997C6.73021 0.928664 6.69419 0.876937 6.64895 0.833964L6.64295 0.827964C6.54997 0.739319 6.42642 0.689868 6.29795 0.689868C6.16948 0.689868 6.04594 0.739319 5.95295 0.827964L0.379954 6.13796C0.330942 6.18466 0.291922 6.24082 0.265262 6.30305C0.238601 6.36528 0.224854 6.43227 0.224854 6.49996C0.224854 6.56766 0.238601 6.63465 0.265262 6.69688C0.291922 6.7591 0.330942 6.81527 0.379954 6.86196Z" fill="#F2B7C6"/>
</svg>
