<svg width="33" height="32" viewBox="0 0 33 32" fill="none" xmlns="http://www.w3.org/2000/svg">
<circle cx="16.7607" cy="16" r="15" stroke="#272838" stroke-width="2"/>
<path fill-rule="evenodd" clip-rule="evenodd" d="M19.274 21.3331C18.5047 21.3048 16.3245 21.0035 14.0411 18.7207C11.7583 16.4374 11.4576 14.2577 11.4287 13.4878C11.386 12.3147 12.2846 11.1751 13.3226 10.7301C13.4476 10.6761 13.5845 10.6556 13.7198 10.6705C13.8551 10.6854 13.9843 10.7352 14.0946 10.8151C14.9493 11.438 15.5391 12.3804 16.0456 13.1214C16.157 13.2842 16.2047 13.4823 16.1794 13.6779C16.1542 13.8736 16.0579 14.0531 15.9088 14.1824L14.8665 14.9565C14.8162 14.9928 14.7807 15.0462 14.7668 15.1068C14.7528 15.1673 14.7613 15.2308 14.7907 15.2856C15.0268 15.7145 15.4467 16.3535 15.9275 16.8343C16.4083 17.3151 17.0777 17.7628 17.5366 18.0256C17.5942 18.0579 17.6619 18.067 17.7259 18.0509C17.7899 18.0348 17.8453 17.9948 17.8807 17.9391L18.5592 16.9064C18.6839 16.7407 18.8679 16.6297 19.0727 16.5967C19.2774 16.5636 19.487 16.611 19.6576 16.7291C20.4092 17.2494 21.2864 17.8291 21.9286 18.6512C22.0149 18.7623 22.0699 18.8945 22.0876 19.0341C22.1054 19.1737 22.0853 19.3154 22.0296 19.4446C21.5824 20.4879 20.4509 21.3764 19.274 21.3331Z" fill="#272838"/>
</svg>
