<svg width="33" height="32" viewBox="0 0 33 32" fill="none" xmlns="http://www.w3.org/2000/svg">
<circle cx="16.7607" cy="16" r="15" stroke="#272838" stroke-width="2"/>
<g clip-path="url(#clip0_232_308)">
<path d="M16.7507 18.2719L18.9121 20.7293C19.7121 21.6393 20.1127 22.0946 20.5321 21.9833C20.9507 21.8726 21.0947 21.2739 21.3821 20.0759L22.9754 13.4306C23.4187 11.5853 23.6401 10.6633 23.1481 10.2079C22.6561 9.75261 21.8034 10.0913 20.0981 10.7679L12.1874 13.9099C10.8234 14.4519 10.1414 14.7226 10.0981 15.1879C10.093 15.2354 10.093 15.2832 10.0981 15.3306C10.1401 15.7966 10.8207 16.0693 12.1834 16.6153C12.8001 16.8626 13.1087 16.9866 13.3301 17.2233C13.355 17.2499 13.379 17.2775 13.4021 17.3059C13.6061 17.5593 13.6927 17.8926 13.8667 18.5566L14.1927 19.8013C14.3614 20.4479 14.4461 20.7719 14.6681 20.8159C14.8901 20.8599 15.0827 20.5919 15.4687 20.0553L16.7507 18.2719ZM16.7507 18.2719L16.5394 18.0519C16.2981 17.7999 16.1774 17.6746 16.1774 17.5186C16.1774 17.3626 16.2974 17.2366 16.5394 16.9853L18.9214 14.5026" stroke="#272838" stroke-width="1.5" stroke-linecap="round" stroke-linejoin="round"/>
</g>
<defs>
<clipPath id="clip0_232_308">
<rect width="16" height="16" fill="white" transform="translate(8.76074 8)"/>
</clipPath>
</defs>
</svg>
