<svg width="33" height="32" viewBox="0 0 33 32" fill="none" xmlns="http://www.w3.org/2000/svg">
<circle cx="16.7607" cy="16" r="15" stroke="#272838" stroke-width="2"/>
<g clip-path="url(#clip0_232_309)">
<path fill-rule="evenodd" clip-rule="evenodd" d="M24.3639 19.2432C24.0012 18.5129 23.5233 17.8457 22.9486 17.2672C22.7561 17.0502 22.5548 16.8412 22.3452 16.6406L22.3199 16.6159C22.242 16.5405 22.1651 16.464 22.0892 16.3866C22.8751 15.2938 23.5475 14.1238 24.0959 12.8946L24.1179 12.8452L24.1332 12.7932C24.2059 12.5512 24.2886 12.0912 23.9952 11.6752C23.6912 11.2459 23.2052 11.1686 22.8792 11.1686H21.3812C21.0675 11.1541 20.7573 11.2393 20.495 11.412C20.2327 11.5847 20.0319 11.836 19.9212 12.1299C19.5989 12.8977 19.1953 13.6287 18.7172 14.3106V12.5552C18.7172 12.3286 18.6959 11.9486 18.4526 11.6286C18.1619 11.2446 17.7412 11.1686 17.4492 11.1686H15.0719C14.7617 11.1614 14.4606 11.2739 14.231 11.4826C14.0014 11.6914 13.8609 11.9804 13.8386 12.2899L13.8366 12.3199V12.3499C13.8366 12.6732 13.9646 12.9119 14.0672 13.0619C14.1132 13.1292 14.1619 13.1906 14.1932 13.2292L14.1999 13.2379C14.2332 13.2792 14.2552 13.3066 14.2772 13.3372C14.3359 13.4159 14.4192 13.5386 14.4432 13.8546V14.8366C13.9661 14.0374 13.5748 13.19 13.2759 12.3086L13.2706 12.2939L13.2652 12.2799C13.1839 12.0672 13.0539 11.7579 12.7932 11.5219C12.4892 11.2452 12.1292 11.1686 11.8019 11.1686H10.2819C9.95058 11.1686 9.55125 11.2459 9.25325 11.5599C8.96058 11.8692 8.92725 12.2399 8.92725 12.4359V12.5252L8.94591 12.6119C9.36609 14.566 10.2335 16.3961 11.4799 17.9586C12.0495 18.8568 12.8227 19.6082 13.737 20.1516C14.6512 20.6951 15.6807 21.0154 16.7419 21.0866L16.7692 21.0886H16.7972C17.2812 21.0886 17.7859 21.0466 18.1652 20.7939C18.6766 20.4526 18.7172 19.9292 18.7172 19.6679V18.9092C18.8486 19.0159 19.0112 19.1586 19.2106 19.3506C19.4519 19.5919 19.6439 19.8012 19.8086 19.9839L19.8966 20.0812C20.0246 20.2239 20.1506 20.3646 20.2652 20.4799C20.4092 20.6246 20.5872 20.7839 20.8099 20.9019C21.0519 21.0292 21.3059 21.0872 21.5752 21.0872H23.0959C23.4166 21.0872 23.8759 21.0112 24.1992 20.6366C24.5512 20.2286 24.5246 19.7279 24.4139 19.3686L24.3939 19.3039L24.3639 19.2432ZM20.5506 19.3139C20.344 19.0829 20.1313 18.8575 19.9126 18.6379L19.9106 18.6359C19.0059 17.7639 18.5839 17.6126 18.2852 17.6126C18.1259 17.6126 17.9506 17.6299 17.8366 17.7726C17.7859 17.841 17.7523 17.9205 17.7386 18.0046C17.7227 18.1024 17.7155 18.2015 17.7172 18.3006V19.6679C17.7172 19.8379 17.6892 19.9092 17.6106 19.9612C17.5059 20.0312 17.2826 20.0879 16.8032 20.0879C15.8927 20.026 15.0099 19.7488 14.2274 19.2792C13.4448 18.8096 12.7849 18.1609 12.3019 17.3866L12.2966 17.3779L12.2899 17.3699C11.1287 15.9257 10.3198 14.231 9.92725 12.4199C9.92991 12.3332 9.94858 12.2806 9.97925 12.2486C10.0106 12.2152 10.0872 12.1686 10.2819 12.1686H11.8019C11.9706 12.1686 12.0586 12.2059 12.1219 12.2626C12.1926 12.3279 12.2552 12.4379 12.3299 12.6339C12.7032 13.7312 13.2072 14.7579 13.6852 15.5126C13.9239 15.8892 14.1586 16.2032 14.3706 16.4252C14.4766 16.5359 14.5799 16.6279 14.6792 16.6932C14.7746 16.7559 14.8832 16.8059 14.9952 16.8059C15.0539 16.8059 15.1226 16.7992 15.1886 16.7706C15.2599 16.7392 15.3187 16.6847 15.3552 16.6159C15.4239 16.4906 15.4432 16.3059 15.4432 16.0639V13.8152C15.4079 13.2699 15.2432 12.9626 15.0832 12.7446C15.0508 12.701 15.0174 12.6581 14.9832 12.6159L14.9746 12.6052C14.9463 12.5706 14.9192 12.535 14.8932 12.4986C14.8608 12.4576 14.8411 12.408 14.8366 12.3559C14.8418 12.3029 14.8671 12.254 14.9072 12.219C14.9474 12.1841 14.9994 12.1658 15.0526 12.1679H17.4492C17.5866 12.1679 17.6326 12.2012 17.6559 12.2326C17.6892 12.2759 17.7172 12.3659 17.7172 12.5552V15.5739C17.7172 15.9326 17.8826 16.1752 18.1226 16.1752C18.3986 16.1752 18.5979 16.0079 18.9459 15.6599L18.9519 15.6532L18.9572 15.6472C19.738 14.6955 20.3758 13.635 20.8506 12.4992L20.8532 12.4912C20.8887 12.3908 20.9562 12.3047 21.0453 12.2463C21.1345 12.1879 21.2403 12.1604 21.3466 12.1679H22.8799C23.0879 12.1679 23.1559 12.2212 23.1786 12.2526C23.2019 12.2859 23.2186 12.3572 23.1786 12.4972C22.631 13.7215 21.9541 14.8837 21.1592 15.9639L21.1539 15.9719C21.0772 16.0899 20.9926 16.2206 20.9806 16.3699C20.9672 16.5312 21.0366 16.6772 21.1586 16.8346C21.2472 16.9652 21.4306 17.1446 21.6166 17.3266L21.6339 17.3439C21.8286 17.5346 22.0399 17.7412 22.2092 17.9412L22.2139 17.9459L22.2186 17.9512C22.7234 18.455 23.1433 19.0372 23.4619 19.6752C23.5126 19.8486 23.4819 19.9379 23.4419 19.9839C23.3959 20.0372 23.2926 20.0872 23.0966 20.0872H21.5752C21.4715 20.0901 21.3689 20.066 21.2772 20.0172C21.1651 19.9515 21.0631 19.8698 20.9746 19.7746C20.8792 19.6792 20.7759 19.5639 20.6492 19.4232L20.5506 19.3139Z" fill="#272838"/>
</g>
<defs>
<clipPath id="clip0_232_309">
<rect width="16" height="16" fill="white" transform="translate(8.76074 8)"/>
</clipPath>
</defs>
</svg>
