<svg width="32" height="32" viewBox="0 0 32 32" fill="none" xmlns="http://www.w3.org/2000/svg">
<path d="M11.7606 13.3334C12.497 13.3334 13.0939 12.7365 13.0939 12.0001C13.0939 11.2637 12.497 10.6667 11.7606 10.6667C11.0242 10.6667 10.4272 11.2637 10.4272 12.0001C10.4272 12.7365 11.0242 13.3334 11.7606 13.3334Z" stroke="#272838" stroke-width="2" stroke-linecap="round" stroke-linejoin="round"/>
<path d="M19.7606 21.3334C20.497 21.3334 21.0939 20.7365 21.0939 20.0001C21.0939 19.2637 20.497 18.6667 19.7606 18.6667C19.0242 18.6667 18.4272 19.2637 18.4272 20.0001C18.4272 20.7365 19.0242 21.3334 19.7606 21.3334Z" stroke="#272838" stroke-width="2.5" stroke-linecap="round" stroke-linejoin="round"/>
<path d="M10.4275 12.0001C10.4275 14.4754 11.4108 16.8494 13.1611 18.5997C14.9115 20.3501 17.2854 21.3334 19.7608 21.3334M7.76079 28.2668C10.7984 30.2492 14.4629 31.0356 18.0464 30.4743C21.63 29.9129 24.8784 28.0435 27.1643 25.2272C29.4502 22.4109 30.6114 18.8474 30.4236 15.225C30.2358 11.6026 28.7123 8.17827 26.1475 5.61341C23.5826 3.04855 20.1583 1.5251 16.5359 1.33731C12.9135 1.14952 9.35002 2.3107 6.53368 4.59659C3.71735 6.88248 1.84798 10.1309 1.28661 13.7145C0.725249 17.298 1.51172 20.9625 3.49413 24.0001L2.42746 29.3334L7.76079 28.2668Z" stroke="#272838" stroke-width="2" stroke-linecap="round" stroke-linejoin="round"/>
</svg>
