<?xml version="1.0" standalone="no"?>
  <!DOCTYPE svg PUBLIC "-//W3C//DTD SVG 1.1//EN" "http://www.w3.org/Graphics/SVG/1.1/DTD/svg11.dtd" >
  <svg>
  <metadata>
  Created by font-carrier
  </metadata>
  <defs>
  <font id="Valisca" horiz-adv-x="1258" vert-adv-y="1258" >
    <font-face
      
      font-family="Valisca "
      
      font-weight="400"
      
      font-stretch="normal"
      
      units-per-em="1000"
      
      ascent="1100"
      
      descent="-285"
      
    />
      <missing-glyph />

      

      
      <glyph glyph-name="uni4d" unicode="&#x4d;" d="M319 0L20 0L20 660L373 660L452 220L467 220L547 660L899 660L899 0L600 0L600 344L585 344L507 0L412 0L334 344L319 344L319 0Z"  horiz-adv-x="919" vert-adv-y="1000"  />

      
      <glyph glyph-name="uni47" unicode="&#x47;" d="M727 331L781 0L482 0L458 148L441 148Q452 78 409.50 34Q367-10 276-10Q211-10 161.50 12.50Q112 35 78.50 77Q45 119 27.50 179Q10 239 10 313Q10 494 112.50 581.50Q215 669 420 669Q510 669 596.50 653Q683 637 757 599L686 377Q650 395 610 409Q576 421 533 431Q490 441 445 441Q379 441 351.50 405.50Q324 370 324 307Q324 251 343 220.50Q362 190 391 190Q409 190 419.50 198.50Q430 207 435 217.50Q440 228 440.50 238Q441 248 441 252L428 331L727 331Z"  horiz-adv-x="782" vert-adv-y="1000"  />

      
      <glyph glyph-name="uni4e" unicode="&#x4e;" d="M319 0L20 0L20 660L350 660L453 277L468 277L468 660L767 660L767 0L438 0L334 383L319 383L319 0Z"  horiz-adv-x="787" vert-adv-y="1000"  />

      
      <glyph glyph-name="uni4b" unicode="&#x4b;" d="M722 169Q722 124 725 94.50Q728 65 733 47Q738 26 745 15L745 0L431 0Q424 14 420 34Q415 51 412 77Q409 103 409 138L409 232Q409 263 394 280.50Q379 298 333 298L320 298L320 0L21 0L21 660L320 660L320 376L333 376Q359 376 375 382Q391 388 400 398.50Q409 409 412.50 422Q416 435 416 449L416 660L730 660L730 513Q730 472 714 441.50Q698 411 669.50 391Q641 371 603 361.50Q565 352 520 352L520 337Q578 337 616.50 328.50Q655 320 678.50 302.50Q702 285 712 257.50Q722 230 722 193L722 169Z"  horiz-adv-x="750" vert-adv-y="1000"  />

      
      <glyph glyph-name="uni48" unicode="&#x48;" d="M319 0L20 0L20 660L319 660L319 370L440 370L440 660L739 660L739 0L440 0L440 291L319 291L319 0Z"  horiz-adv-x="759" vert-adv-y="1000"  />

      
      <glyph glyph-name="uni44" unicode="&#x44;" d="M20 0L20 660L282 660L282 477L297 477Q297 570 354 620Q411 670 522 670Q655 670 728 590.50Q801 511 801 367Q801 286 778 219Q755 152 706 103Q657 54 580.50 27Q504 0 397 0L20 0M411 478Q387 478 369.50 465.50Q352 453 341 438Q330 423 324.50 410.50Q319 398 319 398L319 198L365 198Q397 198 420 209.50Q443 221 458 241Q473 261 480 287.50Q487 314 487 345Q487 408 468.50 443Q450 478 411 478Z"  horiz-adv-x="811" vert-adv-y="1000"  />

      
      <glyph glyph-name="uni49" unicode="&#x49;" d="M579 0L10 0L10 199L145 199L145 461L10 461L10 660L579 660L579 461L444 461L444 199L579 199L579 0Z"  horiz-adv-x="589" vert-adv-y="1000"  />

      
      <glyph glyph-name="uni42" unicode="&#x42;" d="M831 176Q831 134 811.50 101Q792 68 747.50 45.50Q703 23 630 11.50Q557 0 450 0L21 0L21 660L282 660L282 477L297 477Q297 528 315.50 565Q334 602 367.50 625Q401 648 447 659Q493 670 548 670Q598 670 639 660Q680 650 709.50 630Q739 610 755 580.50Q771 551 771 513Q771 472 755 441.50Q739 411 711 391Q683 371 644.50 361.50Q606 352 561 352L561 337Q635 337 686.50 326Q738 315 770 294Q802 273 816.50 243Q831 213 831 176M420 478Q395 478 377 465.50Q359 453 346 438Q331 420 320 398L320 376L404 376Q437 376 447.50 393Q458 410 458 429Q458 449 449 463.50Q440 478 420 478M518 248Q518 279 488.50 288.50Q459 298 404 298L320 298L320 198L404 198Q459 198 488.50 207.50Q518 217 518 248Z"  horiz-adv-x="832" vert-adv-y="1000"  />

      
      <glyph glyph-name="uni4c" unicode="&#x4c;" d="M573 1L20 1L20 660L334 660L334 200L573 200L573 1Z"  horiz-adv-x="576" vert-adv-y="1000"  />

      
      <glyph glyph-name="uni46" unicode="&#x46;" d="M334 1L21 1L21 660L589 660L589 461L334 461L334 347L574 347L574 268L334 268L334 1Z"  horiz-adv-x="591" vert-adv-y="1000"  />

      
      <glyph glyph-name="uni45" unicode="&#x45;" d="M315 445L552 396L536 322Q517 328 497 333Q480 337 458 340.50Q436 344 413 344Q372 344 343 329.50Q314 315 314 281Q314 264 322 252.50Q330 241 343.50 233.50Q357 226 374.50 222.50Q392 219 410 219Q448 219 482 229Q516 239 542 251Q573 265 599 283L670 60Q604 22 519.50 6Q435-10 340-10Q164-10 82 47.50Q0 105 0 206Q0 267 26 307Q52 347 94.50 367.50Q137 388 190.50 390Q244 392 299 379L303 392L38 460L38 659L633 659L633 460L315 460L315 445Z"  horiz-adv-x="661" vert-adv-y="1000"  />

      
      <glyph glyph-name="uni41" unicode="&#x41;" d="M215-10Q180-10 145-1.50Q110 7 82 25.50Q54 44 36.50 75Q19 106 19 153Q19 208 38.50 246Q58 284 93 308.50Q128 333 175 343Q222 353 277 353Q325 353 363.50 347Q402 341 420 335L420 386Q420 454 385 454Q365 454 353 442.50Q341 431 334 417Q327 401 323 381L54 381L54 649L279 649L279 472L297 472Q297 519 314 553.50Q331 588 360.50 612.50Q390 637 432.50 649.50Q475 662 523 662Q582 662 626.50 647.50Q671 633 701 602Q731 571 746.50 521.50Q762 472 762 400L762 3L464 3L464 191L447 191Q447 80 388.50 35Q330-10 215-10M378 269Q358 269 347 254.50Q336 240 336 221Q336 198 347 187.50Q358 177 370 177Q386 177 395.50 188Q405 199 411 213Q417 229 420 251L420 260Q411 262 400.50 265.50Q390 269 378 269Z"  horiz-adv-x="786" vert-adv-y="1000"  />

      
      <glyph glyph-name="uni43" unicode="&#x43;" d="M414-10Q307-10 230.50 17Q154 44 105 92.50Q56 141 33 209Q10 277 10 360Q10 433 31.50 491Q53 549 90 588.50Q127 628 177 649Q227 670 285 670Q395 670 447 620Q499 570 499 462L514 462L514 660L712 660L712 406L477 406Q476 426 468 442Q461 456 447.50 467Q434 478 409 478Q369 478 346.50 445Q324 412 324 352Q324 292 352.50 255.50Q381 219 446 219Q487 219 524.50 229Q562 239 591 251Q625 265 656 283L727 61Q657 23 578.50 6.50Q500-10 414-10Z"  horiz-adv-x="733" vert-adv-y="1000"  />

      
      <glyph glyph-name="uni4a" unicode="&#x4a;" d="M533 660L533 315Q533 150 463.50 70Q394-10 236-10Q83-10-19 46L52 268Q69 254 87 243Q103 234 123.50 226.50Q144 219 167 219Q202 219 218 239.50Q234 260 234 307L234 461L27 461L27 660L533 660Z"  horiz-adv-x="548" vert-adv-y="1000"  />

      
      <glyph glyph-name="uni58" unicode="&#x58;" d="M337 0L0 0L147 330L0 660L330 660L369 471L384 471L423 660L760 660L612 330L760 0L430 0L391 189L376 189L337 0Z"  horiz-adv-x="760" vert-adv-y="1000"  />

      
      <glyph glyph-name="uni4f" unicode="&#x4f;" d="M396-10Q313-10 242.50 11Q172 32 120 74.50Q68 117 39 181Q10 245 10 331Q10 417 39 481.50Q68 546 120 588.50Q172 631 242.50 652Q313 673 396 673Q479 673 549.50 652Q620 631 672 588.50Q724 546 753 481.50Q782 417 782 331Q782 245 753 181Q724 117 672 74.50Q620 32 549.50 11Q479-10 396-10M396 471Q359 471 341.50 432.50Q324 394 324 331Q324 268 341.50 229Q359 190 396 190Q433 190 450.50 229Q468 268 468 331Q468 394 450.50 432.50Q433 471 396 471Z"  horiz-adv-x="792" vert-adv-y="1000"  />

      
      <glyph glyph-name="uni5a" unicode="&#x5a;" d="M314 289L314 274L641 274L641 0L15 0L15 274L342 371L342 386L15 386L15 660L641 660L641 386L314 289Z"  horiz-adv-x="656" vert-adv-y="1000"  />

      
      <glyph glyph-name="uni59" unicode="&#x59;" d="M445 661L775 661L626 0L60 0L60 198L347 198L347 213Q266 213 215 226.50Q164 240 134 263Q104 286 89.50 316Q75 346 67 380L1 661L337 661L384 276L399 276L445 661Z"  horiz-adv-x="775" vert-adv-y="1000"  />

      
      <glyph glyph-name="uni56" unicode="&#x56;" d="M149 0L1 660L330 660L377 275L392 275L438 660L775 660L619 0L149 0Z"  horiz-adv-x="776" vert-adv-y="1000"  />

      
      <glyph glyph-name="uni57" unicode="&#x57;" d="M119 0L1 660L360 660L384 343L399 343L453 660L555 660L609 343L624 343L648 660L1007 660L889 0L567 0L511 413L496 413L441 0L119 0Z"  horiz-adv-x="1008" vert-adv-y="1000"  />

      
      <glyph glyph-name="uni51" unicode="&#x51;" d="M351-6Q285-6 223.50 14Q162 34 114.50 75Q67 116 38.50 178.50Q10 241 10 327Q10 415 39 479.50Q68 544 120 586.50Q172 629 242.50 649.50Q313 670 396 670Q479 670 549.50 649.50Q620 629 672 587Q724 545 753 481Q782 417 782 330Q782 243 753 179Q724 115 673.50 73Q623 31 555.50 10.50Q488-10 411-10Q411-20 426.50-27Q442-34 474-34Q519-34 559-28Q599-22 631-14Q668-5 700 6L736-221Q682-238 614.50-249.50Q547-261 450-261Q324-261 271-229.50Q218-198 218-139Q218-88 252-54.50Q286-21 351-21L351-6M396 471Q359 471 341.50 432.50Q324 394 324 331Q324 268 341.50 229Q359 190 396 190Q433 190 450.50 229Q468 268 468 331Q468 394 450.50 432.50Q433 471 396 471Z"  horiz-adv-x="792" vert-adv-y="1000"  />

      
      <glyph glyph-name="uni55" unicode="&#x55;" d="M467 0L467 183L466 184L452 184Q452 91 399.50 41Q347-9 249-9Q16-9 16 279L16 660L329 660L329 316Q329 254 340 229Q351 204 374 204Q391 204 402.50 216Q414 228 420 243Q427 261 430 283L430 660L728 660L728 0L467 0Z"  horiz-adv-x="749" vert-adv-y="1000"  />

      
      <glyph glyph-name="uni52" unicode="&#x52;" d="M801 39Q753 13 690.50 1.50Q628-10 570-10Q487-10 434 16Q381 42 350 88Q319 134 307.50 195.50Q296 257 296 329L281 329L281 0L20 0L20 660L468 660Q554 660 614.50 645.50Q675 631 713 604.50Q751 578 768.50 540.50Q786 503 786 457Q786 407 766.50 370Q747 333 715.50 307.50Q684 282 643.50 268Q603 254 560.50 251Q518 248 476.50 255Q435 262 402 278L396 268Q410 255 434 244Q454 235 486 227.50Q518 220 563 220Q597 220 627 226.50Q657 233 680 241Q706 250 729 262L801 39M319 428Q325 410 336 397Q345 386 360 376.50Q375 367 398 367Q430 367 443.50 381.50Q457 396 457 413Q457 463 379 463L319 463L319 428Z"  horiz-adv-x="801" vert-adv-y="1000"  />

      
      <glyph glyph-name="uni50" unicode="&#x50;" d="M469 660Q563 660 626.50 641Q690 622 729 589Q768 556 784.50 511Q801 466 801 414Q801 296 734 232.50Q667 169 546 169Q493 169 453 181.50Q413 194 386.50 215.50Q360 237 347 266.50Q334 296 334 329L319 329L319 0L21 0L21 660L469 660M416 367Q454 367 470.50 381.50Q487 396 487 413Q487 463 392 463L319 463L319 428Q326 410 339 397Q350 386 368.50 376.50Q387 367 416 367Z"  horiz-adv-x="802" vert-adv-y="1000"  />

      
      <glyph glyph-name="uni53" unicode="&#x53;" d="M394 244Q394 264 367 275Q340 286 299 296Q258 306 211 317.50Q164 329 123 350Q82 371 55 405.50Q28 440 28 496Q28 576 89.50 623Q151 670 266 670Q391 670 450.50 620Q510 570 510 462L525 462L525 660L722 660L722 406L487 406Q483 426 472 442Q462 456 444 467Q426 478 396 478Q357 478 357 441Q357 417 384 403.50Q411 390 451.50 379Q492 368 539.50 355.50Q587 343 627.50 321Q668 299 695 262.50Q722 226 722 168Q722 121 703 87Q684 53 644 31.50Q604 10 542 0Q480-10 394-10Q343-10 289-6Q235-2 184 6.50Q133 15 87 28.50Q41 42 6 61L77 283Q114 265 156 251Q191 239 237 229Q283 219 331 219Q363 219 378.50 224Q394 229 394 244Z"  horiz-adv-x="733" vert-adv-y="1000"  />

      
      <glyph glyph-name="uni54" unicode="&#x54;" d="M5 223Q5 337 82.50 391.50Q160 446 314 446L314 461L20 461L20 660L676 660L676 424L440 424Q409 424 386.50 414.50Q364 405 349 389.50Q334 374 326.50 354Q319 334 319 312Q319 220 425 220Q462 220 497 230Q532 240 559 252Q591 266 619 284L691 62Q621 24 534.50 7.50Q448-9 348-9Q180-9 92.50 50Q5 109 5 223Z"  horiz-adv-x="696" vert-adv-y="1000"  />

      
      <glyph glyph-name="uni35" unicode="&#x35;" d="M218 391Q266 399 319.50 403.50Q373 408 426 405.50Q479 403 527.50 391.50Q576 380 613 355Q650 330 672 289.50Q694 249 694 189Q694 151 681.50 115Q669 79 642 51Q615 23 573 6.50Q531-10 472-10Q346-10 287 40.50Q228 91 228 199L213 199L213 1L15 1L15 255L250 255Q252 235 261 219Q269 205 284 194Q299 183 326 183Q344 183 355 192.50Q366 202 366 220Q366 246 351 264Q336 282 311 294Q286 306 254.50 312Q223 318 190 321Q113 327 15 317L15 660L657 660L657 461L218 461L218 391L218 391Z"  horiz-adv-x="700" vert-adv-y="1000"  />

      
      <glyph glyph-name="uni37" unicode="&#x37;" d="M2 660L584 660L584 408Q534 392 495 344Q478 323 462 293Q446 263 433.50 221Q421 179 413.50 124Q406 69 406-1L78-1Q78 109 105.50 192.50Q133 276 182.50 332.50Q232 389 302 417.50Q372 446 458 446L458 461L2 461L2 660Z"  horiz-adv-x="586" vert-adv-y="1000"  />

      
      <glyph glyph-name="uni34" unicode="&#x34;" d="M597 0L298 0L298 110L5 110L5 309Q51 348 87 407Q118 457 144 535.50Q170 614 170 724L396 724Q396 658 382 603Q368 548 345 500L597 500L597 0M298 309L298 423Q272 388 244 359.50Q216 331 188 309L298 309Z"  horiz-adv-x="612" vert-adv-y="1000"  />

      
      <glyph glyph-name="uni30" unicode="&#x30;" d="M374-9Q301-9 235 11.50Q169 32 119 74Q69 116 39.50 180Q10 244 10 330Q10 416 39.50 480Q69 544 119 586Q169 628 235 649Q301 670 374 670Q446 670 512 649Q578 628 628 586Q678 544 707.50 480Q737 416 737 330Q737 244 707.50 180Q678 116 628 74Q578 32 512 11.50Q446-9 374-9M374 471Q348 471 336 432Q324 393 324 330Q324 267 336 228.50Q348 190 374 190Q399 190 411.50 228.50Q424 267 424 330Q424 393 411.50 432Q399 471 374 471Z"  horiz-adv-x="748" vert-adv-y="1000"  />

      
      <glyph glyph-name="uni39" unicode="&#x39;" d="M311 670Q393 670 459.50 649Q526 628 573.50 586Q621 544 647 480Q673 416 673 330Q673 273 657 213Q641 153 602.50 103.50Q564 54 500 22Q436-10 340-10Q258-10 177.50 7.50Q97 25 33 63L104 243Q134 228 166 217Q193 207 226 199Q259 191 291 191Q351 191 381 237.50Q411 284 411 381L396 381Q396 352 383.50 328.50Q371 305 349 288.50Q327 272 295.50 263Q264 254 227 254Q179 254 139.50 265.50Q100 277 71 301.50Q42 326 26 364Q10 402 10 454Q10 511 33.50 552Q57 593 97.50 619.50Q138 646 193 658Q248 670 311 670M330 381Q347 381 354.50 400.50Q362 420 362 452Q362 484 354.50 504Q347 524 330 524Q313 524 305 504Q297 484 297 452Q297 420 305 400.50Q313 381 330 381Z"  horiz-adv-x="678" vert-adv-y="1000"  />

      
      <glyph glyph-name="uni31" unicode="&#x31;" d="M470 0L1 0L1 199L85 199L85 461L1 461L1 660L384 660L384 199L470 199L470 0Z"  horiz-adv-x="470" vert-adv-y="1000"  />

      
      <glyph glyph-name="uni36" unicode="&#x36;" d="M451 406Q499 406 538.50 394.50Q578 383 607 358.50Q636 334 652 296Q668 258 668 206Q668 149 644.50 108Q621 67 580.50 41Q540 15 485 3Q430-9 366-9Q285-9 218 12Q151 33 104 75Q57 117 31 180.50Q5 244 5 330Q5 387 21 447Q37 507 75.50 556.50Q114 606 178 638Q242 670 338 670Q420 670 500 653Q580 636 645 598L574 418Q544 432 512 443Q485 453 452 461Q419 469 387 469Q326 469 296 422.50Q266 376 266 279L281 279Q281 308 293.50 331.50Q306 355 328.50 371.50Q351 388 382 397Q413 406 451 406M348 137Q365 137 372.50 156.50Q380 176 380 208Q380 240 372.50 259.50Q365 279 348 279Q331 279 323.50 259.50Q316 240 316 208Q316 176 323.50 156.50Q331 137 348 137Z"  horiz-adv-x="678" vert-adv-y="1000"  />

      
      <glyph glyph-name="uni33" unicode="&#x33;" d="M355 460L38 460L38 659L633 659L633 460L367 392L372 379Q426 392 479.50 390Q533 388 575.50 367.50Q618 347 644 307Q670 267 670 206Q670 105 588 48Q506-9 331-9Q236-9 151 6.50Q66 22 0 60L72 283Q98 265 129 251Q155 239 188.50 229Q222 219 260 219Q278 219 295.50 222.50Q313 226 326.50 233.50Q340 241 348.50 252.50Q357 264 357 281Q357 315 327.50 329.50Q298 344 258 344Q235 344 212.50 340.50Q190 337 173 333Q152 328 134 322L118 396L355 445L355 460Z"  horiz-adv-x="671" vert-adv-y="1000"  />

      
      <glyph glyph-name="uni38" unicode="&#x38;" d="M481 344Q541 344 582 328Q623 312 648 287.50Q673 263 684 233Q695 203 695 175Q695 127 671 91.50Q647 56 602 32.50Q557 9 494-2.50Q431-14 353-14Q275-14 211.50-2.50Q148 9 103.50 32.50Q59 56 34.50 91.50Q10 127 10 175Q10 203 21 233Q32 263 57 287.50Q82 312 123 328Q164 344 224 344L224 359Q174 359 138 371.50Q102 384 78.50 404Q55 424 44 450.50Q33 477 33 505Q33 591 116.50 633Q200 675 353 675Q505 675 588.50 633Q672 591 672 505Q672 477 661 450.50Q650 424 626.50 404Q603 384 567 371.50Q531 359 481 359L481 344M353 524Q336 524 328 505Q320 486 320 455Q320 424 328 405Q336 386 353 386Q370 386 378 405Q386 424 386 455Q386 486 378 505Q370 524 353 524M353 137Q381 137 394.50 162Q408 187 408 227Q408 266 394.50 291Q381 316 353 316Q324 316 310.50 291Q297 266 297 227Q297 187 310.50 162Q324 137 353 137Z"  horiz-adv-x="706" vert-adv-y="1000"  />

      
      <glyph glyph-name="uni32" unicode="&#x32;" d="M694 479Q694 431 675.50 397.50Q657 364 626 340.50Q595 317 556 302.50Q517 288 476 278Q435 268 396 261Q357 254 326 246Q295 238 276.50 227Q258 216 258 199L694 199L694 0L15 0L15 199Q15 239 41 261Q67 283 106 295.50Q145 308 190.50 316Q236 324 275 336.50Q314 349 340 371Q366 393 366 433Q366 477 323 477Q300 477 285.50 466Q271 455 263 441Q253 426 250 405L15 405L15 660L213 660L213 461L228 461Q228 570 286.50 620Q345 670 472 670Q531 670 573 654.50Q615 639 642 612.50Q669 586 681.50 551.50Q694 517 694 479Z"  horiz-adv-x="705" vert-adv-y="1000"  />

      
      <glyph glyph-name="uni2e" unicode="&#x2e;" d="M21 88Q21 125 45 150.50Q69 176 109 176Q149 176 173 150.50Q197 125 197 88Q197 51 173 25.50Q149 0 109 0Q69 0 45 25.50Q21 51 21 88Z"  horiz-adv-x="218" vert-adv-y="1000"  />

      
      <glyph glyph-name="uni2026" unicode="&#x2026;" d="M374 176Q415 176 438.50 150.50Q462 125 462 88Q462 51 438.50 25.50Q415 0 374 0Q334 0 310 25.50Q286 51 286 88Q286 125 310 150.50Q334 176 374 176M108 176Q149 176 172.50 150.50Q196 125 196 88Q196 51 172.50 25.50Q149 0 108 0Q68 0 44 25.50Q20 51 20 88Q20 125 44 150.50Q68 176 108 176M640 176Q681 176 705 150.50Q729 125 729 88Q729 51 705 25.50Q681 0 640 0Q600 0 576 25.50Q552 51 552 88Q552 125 576 150.50Q600 176 640 176Z"  horiz-adv-x="749" vert-adv-y="1000"  />

      
      <glyph glyph-name="uni25" unicode="&#x25;" d="M388 508Q388 471 373.50 441Q359 411 334.50 390Q310 369 276.50 358Q243 347 204 347Q166 347 132.50 358Q99 369 74 390Q49 411 35 441Q21 471 21 508Q21 545 35 575Q49 605 74 626Q99 647 132.50 658.50Q166 670 204 670Q243 670 276.50 658.50Q310 647 334.50 626Q359 605 373.50 575Q388 545 388 508M682 660L249 0L155 0L588 660L682 660M145 508Q145 463 159.50 435Q174 407 204 407Q235 407 249.50 435Q264 463 264 508Q264 553 249.50 581.50Q235 610 204 610Q174 610 159.50 581.50Q145 553 145 508M632 314Q670 314 703.50 302.50Q737 291 762 270Q787 249 801.50 219Q816 189 816 152Q816 115 801.50 85Q787 55 762 34Q737 13 703.50 1.50Q670-10 632-10Q594-10 560.50 1.50Q527 13 502 34Q477 55 463 85Q449 115 449 152Q449 189 463 219Q477 249 502 270Q527 291 560.50 302.50Q594 314 632 314M632 50Q662 50 676.50 78.50Q691 107 691 152Q691 197 676.50 225.50Q662 254 632 254Q602 254 587.50 225.50Q573 197 573 152Q573 107 587.50 78.50Q602 50 632 50Z"  horiz-adv-x="836" vert-adv-y="1000"  />

      
      <glyph glyph-name="uni29" unicode="&#x29;" d="M99 268Q99 365 83.50 440Q68 515 50 568Q28 630 1 675L91 675Q136 642 171 587Q186 563 200.50 532Q215 501 226.50 461.50Q238 422 245 373.50Q252 325 252 268Q252 210 245 162Q238 114 226.50 74.50Q215 35 200.50 4Q186-27 171-51Q136-107 91-140L1-140Q28-95 50-33Q68 20 83.50 95.50Q99 171 99 268Z"  horiz-adv-x="262" vert-adv-y="1000"  />

      
      <glyph glyph-name="uni2022" unicode="&#x2022;" d="M21 250Q21 275 29.50 297Q38 319 54 335.50Q70 352 92.50 361.50Q115 371 142 371Q170 371 192.50 361.50Q215 352 231 335.50Q247 319 255.50 297Q264 275 264 250Q264 225 255.50 203Q247 181 231 164.50Q215 148 192.50 138.50Q170 129 142 129Q115 129 92.50 138.50Q70 148 54 164.50Q38 181 29.50 203Q21 225 21 250Z"  horiz-adv-x="284" vert-adv-y="1000"  />

      
      <glyph glyph-name="unib7" unicode="&#xb7;" d="M20 88Q20 125 44 150.50Q68 176 108 176Q148 176 172 150.50Q196 125 196 88Q196 51 172 25.50Q148 0 108 0Q68 0 44 25.50Q20 51 20 88Z"  horiz-adv-x="217" vert-adv-y="1000"  />

      
      <glyph glyph-name="uni5d" unicode="&#x5d;" d="M222-140L3-140L3-75L106-75L106 610L3 610L3 675L222 675L222-140Z"  horiz-adv-x="243" vert-adv-y="1000"  />

      
      <glyph glyph-name="uni5b" unicode="&#x5b;" d="M240 675L240 610L138 610L138-75L240-75L240-140L21-140L21 675L240 675Z"  horiz-adv-x="243" vert-adv-y="1000"  />

      
      <glyph glyph-name="uni7d" unicode="&#x7d;" d="M212 235Q189 229 177 219Q165 209 159.50 193.50Q154 178 153.50 156Q153 134 155 104Q156 90 156.50 76.50Q157 63 157 49Q157-14 146.50-52Q136-90 124-111Q109-136 91-146L1-146Q12-134 21-114Q29-97 35.50-70Q42-43 42-1Q42 13 41.50 27Q41 41 40 55Q38 86 36.50 122Q35 158 42.50 189Q50 220 73 240Q96 260 144 260L144 269Q96 269 73 289Q50 309 42.50 340Q35 371 36.50 406.50Q38 442 40 474Q41 488 41.50 502Q42 516 42 530Q42 571 35.50 598.50Q29 626 21 643Q12 663 1 675L91 675Q109 665 124 640Q136 619 146.50 581Q157 543 157 480Q157 466 156.50 452.50Q156 439 155 425Q153 395 153.50 373Q154 351 159.50 335.50Q165 320 177 310Q189 300 212 294L212 235Z"  horiz-adv-x="218" vert-adv-y="1000"  />

      
      <glyph glyph-name="uni21" unicode="&#x21;" d="M70 229L1 659L300 659L231 229L70 229M150 197Q196 197 224.50 167Q253 137 253 94Q253 51 224.50 21Q196-9 150-9Q104-9 75.50 21Q47 51 47 94Q47 137 75.50 167Q104 197 150 197Z"  horiz-adv-x="300" vert-adv-y="1000"  />

      
      <glyph glyph-name="unibb" unicode="&#xbb;" d="M474 250L297 94L201 94L377 250L201 406L297 406L474 250M294 250L117 94L21 94L197 250L21 406L117 406L294 250Z"  horiz-adv-x="494" vert-adv-y="1000"  />

      
      <glyph glyph-name="uniab" unicode="&#xab;" d="M117 250L294 94L197 94L21 250L197 406L294 406L117 250M297 250L474 94L377 94L201 250L377 406L474 406L297 250Z"  horiz-adv-x="494" vert-adv-y="1000"  />

      
      <glyph glyph-name="uni3f" unicode="&#x3f;" d="M300 670Q423 670 488 632.50Q553 595 553 520Q553 473 533.50 444.50Q514 416 485.50 396.50Q457 377 423 363Q389 349 360.50 332.50Q332 316 312.50 292Q293 268 293 229L132 229Q132 275 146.50 303Q161 331 178 350Q195 369 209.50 383Q224 397 224 416Q224 430 214.50 435.50Q205 441 194 441Q172 441 150.50 433Q129 425 112 416Q92 405 72 392L1 615Q30 629 66.50 639.50Q103 650 142.50 656.50Q182 663 222 666.50Q262 670 300 670M213 197Q259 197 287.50 167Q316 137 316 94Q316 51 287.50 20.50Q259-10 213-10Q167-10 138.50 20.50Q110 51 110 94Q110 137 138.50 167Q167 197 213 197Z"  horiz-adv-x="563" vert-adv-y="1000"  />

      
      <glyph glyph-name="uni203A" unicode="&#x203A;" d="M117 406L294 250L117 94L21 94L197 250L21 406L117 406Z"  horiz-adv-x="314" vert-adv-y="1000"  />

      
      <glyph glyph-name="uni2039" unicode="&#x2039;" d="M197 94L21 250L197 406L294 406L117 250L294 94L197 94Z"  horiz-adv-x="314" vert-adv-y="1000"  />

      
      <glyph glyph-name="uni7b" unicode="&#x7b;" d="M5 294Q28 300 40.50 310Q53 320 58 335.50Q63 351 63 373Q63 395 62 425Q61 439 60.50 452.50Q60 466 60 480Q60 543 70 581Q80 619 93 640Q108 665 127 675L217 675Q205 663 196 643Q188 626 182 598.50Q176 571 176 530Q176 516 176 502Q176 488 177 474Q179 442 181 406.50Q183 371 175.50 340Q168 309 145 289Q122 269 74 269L74 260Q122 260 145 240Q168 220 175.50 189Q183 158 181 122Q179 86 177 54Q176 40 176 26.50Q176 13 176-1Q176-43 182-70Q188-97 196-114Q205-134 217-146L127-146Q108-136 93-111Q80-90 70-52Q60-14 60 49Q60 63 60.50 76.50Q61 90 62 104Q63 134 63 156Q63 178 58 193.50Q53 209 40.50 219Q28 229 5 235L5 294Z"  horiz-adv-x="217" vert-adv-y="1000"  />

      
      <glyph glyph-name="uni28" unicode="&#x28;" d="M163 268Q163 171 178 95.50Q193 20 212-33Q233-95 261-140L171-140Q125-107 90-51Q75-27 60.50 4Q46 35 35 74.50Q24 114 17 162Q10 210 10 268Q10 383 35 461.50Q60 540 90 587Q125 642 171 675L261 675Q233 630 212 568Q193 515 178 440Q163 365 163 268Z"  horiz-adv-x="261" vert-adv-y="1000"  />

      
      <glyph glyph-name="uni3b" unicode="&#x3b;" d="M108 324Q68 324 44 349.50Q20 375 20 412Q20 449 44 474.50Q68 500 108 500Q149 500 172.50 474.50Q196 449 196 412Q196 375 172.50 349.50Q149 324 108 324M108 176Q150 176 173 150Q196 124 196 73Q196 28 185-6.50Q174-41 156-66.50Q138-92 116-109Q94-126 72-135L47-70Q68-62 88.50-47Q109-32 121 2Q116 1 111.50 0.50Q107 0 102 0Q64 0 42 25.50Q20 51 20 88Q20 125 43.50 150.50Q67 176 108 176Z"  horiz-adv-x="217" vert-adv-y="1000"  />

      
      <glyph glyph-name="uni201E" unicode="&#x201E;" d="M109 176Q150 176 173.50 150Q197 124 197 73Q197 28 186-6.50Q175-41 157-66.50Q139-92 117-109Q95-126 73-135L48-70Q69-62 89-47Q109-32 121 2Q116 1 112 0.50Q108 0 103 0Q65 0 43 25.50Q21 51 21 88Q21 125 44 150.50Q67 176 109 176M336 176Q377 176 400.50 150Q424 124 424 73Q424 28 413-6.50Q402-41 384-66.50Q366-92 344-109Q322-126 300-135L275-70Q296-62 316-47Q336-32 348 2Q343 1 339 0.50Q335 0 330 0Q292 0 270 25.50Q248 51 248 88Q248 125 271 150.50Q294 176 336 176Z"  horiz-adv-x="445" vert-adv-y="1000"  />

      
      <glyph glyph-name="uni201A" unicode="&#x201A;" d="M109 176Q150 176 173.50 150Q197 124 197 73Q197 28 186-6.50Q175-41 157-66.50Q139-92 117-109Q95-126 73-135L48-70Q69-62 89-47Q109-32 121 2Q116 1 112 0.50Q108 0 103 0Q65 0 43 25.50Q21 51 21 88Q21 125 44 150.50Q67 176 109 176Z"  horiz-adv-x="218" vert-adv-y="1000"  />

      
      <glyph glyph-name="uni2c" unicode="&#x2c;" d="M109 176Q150 176 173.50 150Q197 124 197 73Q197 28 186-6.50Q175-41 157-66.50Q139-92 117-109Q95-126 73-135L48-70Q69-62 89-47Q109-32 121 2Q116 1 112 0.50Q108 0 103 0Q65 0 43 25.50Q21 51 21 88Q21 125 44 150.50Q67 176 109 176Z"  horiz-adv-x="218" vert-adv-y="1000"  />

      
      <glyph glyph-name="uni2f" unicode="&#x2f;" d="M0-15L248 660L332 660L84-15L0-15Z"  horiz-adv-x="332" vert-adv-y="1000"  />

      
      <glyph glyph-name="uni5c" unicode="&#x5c;" d="M85 660L333-15L249-15L1 660L85 660Z"  horiz-adv-x="333" vert-adv-y="1000"  />

      
      <glyph glyph-name="uni3a" unicode="&#x3a;" d="M108 324Q68 324 44 349.50Q20 375 20 412Q20 449 44 474.50Q68 500 108 500Q149 500 172.50 474.50Q196 449 196 412Q196 375 172.50 349.50Q149 324 108 324M108 176Q149 176 172.50 150.50Q196 125 196 88Q196 51 172.50 25.50Q149 0 108 0Q68 0 44 25.50Q20 51 20 88Q20 125 44 150.50Q68 176 108 176Z"  horiz-adv-x="217" vert-adv-y="1000"  />

      
      <glyph glyph-name="uni2020" unicode="&#x2020;" d="M279 462L190 462L190 213L111 213L111 462L21 462L21 525L111 525L111 660L190 660L190 525L279 525L279 462Z"  horiz-adv-x="300" vert-adv-y="1000"  />

      
      <glyph glyph-name="uni2013" unicode="&#x2013;" d="M11 288L269 288L269 213L11 213L11 288Z"  horiz-adv-x="280" vert-adv-y="1000"  />

      
      <glyph glyph-name="uni2d" unicode="&#x2d;" d="M11 282L494 282L494 218L11 218L11 282Z"  horiz-adv-x="505" vert-adv-y="1000"  />

      
      <glyph glyph-name="uni2014" unicode="&#x2014;" d="M719 282L719 218L11 218L11 282L719 282Z"  horiz-adv-x="730" vert-adv-y="1000"  />

      
      <glyph glyph-name="uni2a" unicode="&#x2a;" d="M245 485L361 426L319 359L220 433L230 310L151 310L162 433L62 359L21 426L137 485L21 543L62 611L162 537L151 660L230 660L220 537L319 611L361 543L245 485Z"  horiz-adv-x="381" vert-adv-y="1000"  />

      
      <glyph glyph-name="uni2212" unicode="&#x2212;" d="M11 282L494 282L494 218L11 218L11 282Z"  horiz-adv-x="505" vert-adv-y="1000"  />

      
      <glyph glyph-name="uni201C" unicode="&#x201C;" d="M343 526Q381 526 402.50 500Q424 474 424 437Q424 401 401 375Q378 349 336 349Q295 349 271.50 375.50Q248 402 248 452Q248 497 259 531.50Q270 566 288 592Q306 618 328 634.50Q350 651 372 660L397 596Q376 588 356 572.50Q336 557 324 523Q333 526 343 526M115 526Q153 526 175 500Q197 474 197 437Q197 401 174 375Q151 349 109 349Q68 349 44.50 375.50Q21 402 21 452Q21 497 32 531.50Q43 566 61 592Q79 618 101 634.50Q123 651 145 660L170 596Q149 588 129 572.50Q109 557 97 523Q106 526 115 526Z"  horiz-adv-x="445" vert-adv-y="1000"  />

      
      <glyph glyph-name="uni201D" unicode="&#x201D;" d="M109 660Q150 660 173.50 634Q197 608 197 557Q197 512 186 477.50Q175 443 157 417.50Q139 392 117 375Q95 358 73 349L48 414Q69 422 89 437Q109 452 121 486Q116 485 112 484.50Q108 484 103 484Q65 484 43 509.50Q21 535 21 572Q21 609 44 634.50Q67 660 109 660M336 660Q378 660 401 634Q424 608 424 557Q424 512 413 477.50Q402 443 384 417.50Q366 392 344 375Q322 358 300 349L275 414Q296 422 316.50 437Q337 452 348 486Q343 485 339 484.50Q335 484 330 484Q292 484 270 509.50Q248 535 248 572Q248 609 271 634.50Q294 660 336 660Z"  horiz-adv-x="445" vert-adv-y="1000"  />

      
      <glyph glyph-name="uni2018" unicode="&#x2018;" d="M109 349Q68 349 44.50 375.50Q21 402 21 452Q21 497 32 531.50Q43 566 61 592Q79 618 101 634.50Q123 651 145 660L170 596Q149 588 129 572.50Q109 557 97 523Q102 525 106 525Q110 525 115 525Q153 525 175 499.50Q197 474 197 437Q197 401 174 375Q151 349 109 349Z"  horiz-adv-x="218" vert-adv-y="1000"  />

      
      <glyph glyph-name="uni2019" unicode="&#x2019;" d="M109 660Q150 660 173.50 634Q197 608 197 557Q197 512 186 477.50Q175 443 157 417.50Q139 392 117 375Q95 358 73 349L48 414Q69 422 89 437Q109 452 121 486Q116 485 112 484.50Q108 484 103 484Q65 484 43 509.50Q21 535 21 572Q21 609 44 634.50Q67 660 109 660Z"  horiz-adv-x="218" vert-adv-y="1000"  />

      
      <glyph glyph-name="uni7c" unicode="&#x7c;" d="M21 660L86 660L86 0L21 0L21 660Z"  horiz-adv-x="106" vert-adv-y="1000"  />

      
      <glyph glyph-name="unia7" unicode="&#xa7;" d="M510 194Q549 183 585 167.50Q621 152 648.50 129.50Q676 107 693 76Q710 45 710 4Q710-75 648.50-122.50Q587-170 472-170Q347-170 287.50-120Q228-70 228 38L213 38L213-160L16-160L16 94L251 94Q255 74 266 58Q276 44 293.50 33.50Q311 23 342 23Q381 23 381 47Q381 67 354 79Q327 91 286.50 100.50Q246 110 198.50 119Q151 128 110.50 143Q70 158 43 181.50Q16 205 16 242Q16 270 32 285Q48 300 75 304.50Q102 309 137.50 305Q173 301 213 290L216 303Q177 313 141 329Q105 345 77.50 368.50Q50 392 33 423.50Q16 455 16 496Q16 576 77 623Q138 670 253 670Q379 670 438 620Q497 570 497 462L512 462L512 660L710 660L710 406L475 406Q471 426 460 442Q450 456 432 467Q414 478 384 478Q344 478 344 454Q344 433 371 421Q398 409 439 399Q480 389 527 379.50Q574 370 615 354.50Q656 339 683 315Q710 291 710 254Q710 227 694 212Q678 197 651 192Q624 187 588 191.50Q552 196 512 207L510 194M269 276Q269 262 284 252Q299 242 324.50 234.50Q350 227 383 220.50Q416 214 452 207Q456 212 456 221Q456 235 441 244.50Q426 254 401 261.50Q376 269 343 275Q310 281 274 289Q269 284 269 276Z"  horiz-adv-x="725" vert-adv-y="1000"  />

      
      <glyph glyph-name="unia9" unicode="&#xa9;" d="M319 643Q375 643 428.50 623Q482 603 524 564Q566 525 592 466.50Q618 408 618 331Q618 254 592 195.50Q566 137 524 97.50Q482 58 428.50 38Q375 18 319 18Q263 18 209.50 38Q156 58 114 97.50Q72 137 46.50 195.50Q21 254 21 331Q21 408 46.50 466.50Q72 525 114 564Q156 603 209.50 623Q263 643 319 643M319 78Q362 78 405 93Q448 108 482 139Q516 170 537 218Q558 266 558 331Q558 396 537 443.50Q516 491 482 522Q448 553 405 568Q362 583 319 583Q276 583 233.50 568Q191 553 157 522Q123 491 102 443.50Q81 396 81 331Q81 266 102 218Q123 170 157 139Q191 108 233.50 93Q276 78 319 78M331 289Q351 289 371.50 294Q392 299 409 306Q428 313 447 323L479 188Q444 168 403.50 158Q363 148 321 148Q273 148 236.50 162.50Q200 177 176 203.50Q152 230 140 266Q128 302 128 346Q128 430 162 471.50Q196 513 244 513Q289 513 311.50 485.50Q334 458 334 398L343 398L343 502L469 502L469 349L319 349Q319 356 316 361Q314 366 310 369.50Q306 373 301 373Q291 373 286.50 363.50Q282 354 282 341Q282 314 295.50 301.50Q309 289 331 289Z"  horiz-adv-x="638" vert-adv-y="1000"  />

      
      <glyph glyph-name="uniae" unicode="&#xae;" d="M304 628Q357 628 408 609Q459 590 499 552.50Q539 515 563.50 459.50Q588 404 588 331Q588 258 563.50 202.50Q539 147 499 109.50Q459 72 408 53Q357 34 304 34Q251 34 200 53Q149 72 109.50 109.50Q70 147 45.50 202.50Q21 258 21 331Q21 404 45.50 459.50Q70 515 109.50 552.50Q149 590 200 609Q251 628 304 628M304 86Q347 86 388.50 101.50Q430 117 462.50 148Q495 179 515 225Q535 271 535 331Q535 391 515 436.50Q495 482 462.50 513Q430 544 388.50 559.50Q347 575 304 575Q261 575 219.50 559.50Q178 544 145.50 513Q113 482 93 436.50Q73 391 73 331Q73 271 93 225Q113 179 145.50 148Q178 117 219.50 101.50Q261 86 304 86M359 298Q393 298 415 292Q437 286 450 276.50Q463 267 467.50 254Q472 241 472 227L472 179L341 179L341 212Q341 239 327 248Q313 257 290 257L277 257L277 180L152 180L152 481L373 481Q426 481 449 455.50Q472 430 472 393Q472 349 443 327Q414 305 359 305L359 298M293 347Q322 347 331.50 355Q341 363 341 373Q341 390 321 390L277 390L277 347L293 347Z"  horiz-adv-x="608" vert-adv-y="1000"  />

      
      <glyph glyph-name="uni26" unicode="&#x26;" d="M753 294L705 294L753 0L455 0L434 128L419 128Q422 59 366.50 24.50Q311-10 217-10Q173-10 134-1Q95 8 65 28.50Q35 49 17.50 81Q0 113 0 159Q0 193 13 226.50Q26 260 55 286Q84 312 130.50 328Q177 344 245 344L245 359Q204 359 168.50 367Q133 375 106.50 392Q80 409 64.50 435.50Q49 462 49 499Q49 577 125 623.50Q201 670 353 670Q441 670 522 653Q603 636 663 598L592 383Q568 399 540 411Q517 422 487.50 431Q458 440 428 440Q399 440 381 431.50Q363 423 363 404Q363 383 384.50 371Q406 359 439 359L753 359L753 294M351 137Q373 137 385 148.50Q397 160 403 177.50Q409 195 410.50 216.50Q412 238 412 258L406 294Q355 292 328 266Q301 240 301 201Q301 173 314.50 155Q328 137 351 137Z"  horiz-adv-x="754" vert-adv-y="1000"  />

      
      <glyph glyph-name="uni23" unicode="&#x23;" d="M397 450L376 210L460 210L455 146L370 146L357 0L292 0L305 146L150 146L138 0L72 0L85 146L1 146L6 210L91 210L112 450L27 450L33 514L117 514L130 660L195 660L182 514L337 514L350 660L415 660L402 514L487 514L481 450L397 450M332 450L177 450L156 210L311 210L332 450Z"  horiz-adv-x="487" vert-adv-y="1000"  />

      
      <glyph glyph-name="uni40" unicode="&#x40;" d="M472 674Q551 674 625 647.50Q699 621 754 569Q809 517 839 439Q869 361 860 259Q851 159 796 102Q741 45 650 45Q576 45 536 81.50Q496 118 503 198L491 198Q484 120 436.50 78.50Q389 37 306 37Q258 37 224 53.50Q190 70 169 98.50Q148 127 140 166.50Q132 206 136 251Q145 354 199 410Q253 466 342 466Q398 466 434 450.50Q470 435 492 415L495 454L737 454L718 236Q715 204 722.50 182.50Q730 161 750 161Q763 161 772 171Q781 181 786.50 196Q792 211 795 228Q798 245 800 259Q807 346 781.50 412.50Q756 479 708.50 524Q661 569 597.50 591.50Q534 614 466 614Q398 614 331 591.50Q264 569 209 524Q154 479 117 412.50Q80 346 73 259Q65 172 90.50 105.50Q116 39 163-6Q210-51 273.50-73.50Q337-96 405-96Q470-96 533.50-76Q597-56 651-15L687-61Q624-109 549.50-132.50Q475-156 400-156Q321-156 247-129.50Q173-103 118-50.50Q63 2 33.50 79.50Q4 157 13 259Q22 361 65 439Q108 517 172.50 569Q237 621 315 647.50Q393 674 472 674M432 197Q446 197 455.50 207Q465 217 470 229Q476 243 479 261L484 329Q477 343 466 354Q455 365 439 365Q421 365 409 346.50Q397 328 393 286Q385 197 432 197Z"  horiz-adv-x="872" vert-adv-y="1000"  />

      
      <glyph glyph-name="unib1" unicode="&#xb1;" d="M284 234L284 56L494 56L494-8L11-8L11 56L220 56L220 234L11 234L11 298L220 298L220 508L284 508L284 298L494 298L494 234L284 234Z"  horiz-adv-x="505" vert-adv-y="1000"  />

      
      <glyph glyph-name="uni2b" unicode="&#x2b;" d="M494 218L284 218L284 8L220 8L220 218L11 218L11 282L220 282L220 492L284 492L284 282L494 282L494 218Z"  horiz-adv-x="505" vert-adv-y="1000"  />

      
      <glyph glyph-name="uni3d" unicode="&#x3d;" d="M494 348L494 284L11 284L11 348L494 348M11 216L494 216L494 152L11 152L11 216Z"  horiz-adv-x="505" vert-adv-y="1000"  />

      
      <glyph glyph-name="unib0" unicode="&#xb0;" d="M118 483Q76 483 48.50 510.50Q21 538 21 580Q21 622 48.50 649.50Q76 677 118 677Q160 677 187.50 649.50Q215 622 215 580Q215 538 187.50 510.50Q160 483 118 483M118 613Q99 613 91.50 602Q84 591 84 580Q84 569 91.50 558Q99 547 118 547Q136 547 143.50 558Q151 569 151 580Q151 591 143.50 602Q136 613 118 613Z"  horiz-adv-x="235" vert-adv-y="1000"  />

      
      <glyph glyph-name="uni5f" unicode="&#x5f;" d="M506-40L506-104L1-104L1-40L506-40Z"  horiz-adv-x="507" vert-adv-y="1000"  />

      
      <glyph glyph-name="uni60" unicode="&#x60;" d="M157 877L278 714L194 714L21 877L157 877Z"  horiz-adv-x="299" vert-adv-y="1000"  />

      
      <glyph glyph-name="uni3c" unicode="&#x3c;" d="M409 10L21 222L21 278L409 490L409 417L103 250L409 83L409 10Z"  horiz-adv-x="430" vert-adv-y="1000"  />

      
      <glyph glyph-name="uni3e" unicode="&#x3e;" d="M20 490L408 278L408 222L20 11L20 83L326 250L20 417L20 490Z"  horiz-adv-x="429" vert-adv-y="1000"  />

      
      <glyph glyph-name="uni5e" unicode="&#x5e;" d="M93 318L20 318L197 643L253 643L429 318L357 318L225 561L93 318Z"  horiz-adv-x="450" vert-adv-y="1000"  />

      
      <glyph glyph-name="uni2122" unicode="&#x2122;" d="M916 666L916 289L745 289L745 486L736 486L692 289L637 289L592 486L584 486L584 289L413 289L413 666L614 666L660 414L669 414L714 666L916 666M21 666L389 666L389 553L295 553L295 289L115 289L115 553L21 553L21 666Z"  horiz-adv-x="936" vert-adv-y="1000"  />

      
      <glyph glyph-name="uni24" unicode="&#x24;" d="M525 660L723 660L723 406L487 406Q483 426 472 442Q463 456 445 467Q427 478 397 478Q357 478 357 441Q357 417 384 403.50Q411 390 452 379Q493 368 540 355.50Q587 343 628 321Q669 299 696 262.50Q723 226 723 168Q723 74 645.50 29.50Q568-15 397-15L397-93L332-93L332-13Q287-11 241.50-5Q196 1 153.50 10Q111 19 73.50 32Q36 45 6 61L77 283Q114 265 156 251Q191 239 237 229Q283 219 331 219Q363 219 378.50 224Q394 229 394 244Q394 264 367 275Q340 286 299 296Q258 306 211 317.50Q164 329 123 350Q82 371 55 405.50Q28 440 28 496Q28 536 43.50 569Q59 602 89.50 625.50Q120 649 164.50 662Q209 675 266 675Q284 675 300.50 674Q317 673 332 671L332 754L397 754L397 654Q510 610 510 462L525 462L525 660Z"  horiz-adv-x="733" vert-adv-y="1000"  />

      
      <glyph glyph-name="uni20AC" unicode="&#x20AC;" d="M446 219Q487 219 524.50 229Q562 239 591 251Q625 265 655 283L727 61Q586-15 414-15Q326-15 258.50 4Q191 23 143 57.50Q95 92 64.50 141.50Q34 191 21 251L-48 251L-48 314L12 314Q11 325 10.50 336.50Q10 348 10 360Q10 365 10 371Q10 377 11 382L-48 382L-48 446L19 446Q30 500 55 542.50Q80 585 114.50 614.50Q149 644 192.50 659.50Q236 675 285 675Q395 675 447 622.50Q499 570 499 462L514 462L514 660L712 660L712 406L477 406Q476 426 468 442Q461 456 447.50 467Q434 478 409 478Q370 478 347 446L435 446L435 382L325 382Q324 375 324 367.50Q324 360 324 352Q324 332 327 314L435 314L435 251L358 251Q388 219 446 219Z"  horiz-adv-x="732" vert-adv-y="1000"  />

      
      <glyph glyph-name="uni2044" unicode="&#x2044;" d="M0-15L248 660L332 660L84-15L0-15Z"  horiz-adv-x="332" vert-adv-y="1000"  />

      
      <glyph glyph-name="uni7e" unicode="&#x7e;" d="M271 735Q248 735 228 742.50Q208 750 190 759.50Q172 769 156 776.50Q140 784 125 784Q114 784 106.50 779Q99 774 94 768Q89 762 86.50 756Q84 750 84 747L21 747Q21 763 27.50 782Q34 801 47 817Q60 833 79.50 844Q99 855 125 855Q146 855 167 847.50Q188 840 207 830.50Q226 821 242.50 813.50Q259 806 271 806Q282 806 289.50 811Q297 816 302 822Q307 828 309.50 834.50Q312 841 312 844L376 844Q376 827 369.50 808Q363 789 349.50 773Q336 757 316.50 746Q297 735 271 735Z"  horiz-adv-x="396" vert-adv-y="1000"  />

      
      <glyph glyph-name="uni22" unicode="&#x22;" d="M21 660L171 660L133 387L58 387L21 660M357 660L320 387L245 387L207 660L357 660Z"  horiz-adv-x="378" vert-adv-y="1000"  />

      
      <glyph glyph-name="uni27" unicode="&#x27;" d="M171 660L133 387L58 387L21 660L171 660Z"  horiz-adv-x="191" vert-adv-y="1000"  />

      
      <glyph glyph-name="uni0410" unicode="&#x0410;" d="M337 0L0 0L156 660L626 660L774 0L445 0L428 142L354 142L337 0M384 385L363 219L419 219L399 385L384 385Z"  horiz-adv-x="775" vert-adv-y="1000"  />

      
      <glyph glyph-name="uni0412" unicode="&#x0412;" d="M831 176Q831 134 811.50 101Q792 68 747.50 45.50Q703 23 630 11.50Q557 0 450 0L21 0L21 660L282 660L282 477L297 477Q297 528 315.50 565Q334 602 367.50 625Q401 648 447 659Q493 670 548 670Q598 670 639 660Q680 650 709.50 630Q739 610 755 580.50Q771 551 771 513Q771 472 755 441.50Q739 411 711 391Q683 371 644.50 361.50Q606 352 561 352L561 337Q635 337 686.50 326Q738 315 770 294Q802 273 816.50 243Q831 213 831 176M420 478Q395 478 377 465.50Q359 453 346 438Q331 420 320 398L320 376L404 376Q437 376 447.50 393Q458 410 458 429Q458 449 449 463.50Q440 478 420 478M518 248Q518 279 488.50 288.50Q459 298 404 298L320 298L320 198L404 198Q459 198 488.50 207.50Q518 217 518 248Z"  horiz-adv-x="832" vert-adv-y="1000"  />

      
      <glyph glyph-name="uni0413" unicode="&#x0413;" d="M573 461L334 461L334 1L20 1L20 660L573 660L573 461Z"  horiz-adv-x="589" vert-adv-y="1000"  />

      
      <glyph glyph-name="uni0415" unicode="&#x0415;" d="M10 660L578 660L578 461L323 461L323 347L563 347L563 268L323 268L325 199L580 199L580 0L12 0L10 660Z"  horiz-adv-x="592" vert-adv-y="1000"  />

      
      <glyph glyph-name="uni0416" unicode="&#x0416;" d="M436 298L423 298Q377 298 362 280.50Q347 263 347 232L347 138Q347 103 344 77Q341 51 336 34Q332 14 325 0L11 0L11 15Q18 26 23 47Q28 65 31 94.50Q34 124 34 169L34 193Q34 230 44 257.50Q54 285 77.50 302.50Q101 320 139.50 328.50Q178 337 236 337L236 352Q191 352 153 361.50Q115 371 86.50 391Q58 411 42 441.50Q26 472 26 513L26 660L340 660L340 449Q340 435 343.50 422Q347 409 356 398.50Q365 388 381 382Q397 376 423 376L436 376L436 660L735 660L735 376L748 376Q774 376 790 382Q806 388 815 398.50Q824 409 827.50 422Q831 435 831 449L831 660L1145 660L1145 513Q1145 472 1129 441.50Q1113 411 1084.50 391Q1056 371 1018 361.50Q980 352 935 352L935 337Q993 337 1031.50 328.50Q1070 320 1093.50 302.50Q1117 285 1127 257.50Q1137 230 1137 193L1137 169Q1137 124 1140 94.50Q1143 65 1148 47Q1153 26 1160 15L1160 0L846 0Q839 14 835 34Q830 51 827 77Q824 103 824 138L824 232Q824 263 809 280.50Q794 298 748 298L735 298L735 0L436 0L436 298Z"  horiz-adv-x="1165" vert-adv-y="1000"  />

      
      <glyph glyph-name="uni041A" unicode="&#x041A;" d="M722 169Q722 124 725 94.50Q728 65 733 47Q738 26 745 15L745 0L431 0Q424 14 420 34Q415 51 412 77Q409 103 409 138L409 232Q409 263 394 280.50Q379 298 333 298L320 298L320 0L21 0L21 660L320 660L320 376L333 376Q359 376 375 382Q391 388 400 398.50Q409 409 412.50 422Q416 435 416 449L416 660L730 660L730 513Q730 472 714 441.50Q698 411 669.50 391Q641 371 603 361.50Q565 352 520 352L520 337Q578 337 616.50 328.50Q655 320 678.50 302.50Q702 285 712 257.50Q722 230 722 193L722 169Z"  horiz-adv-x="750" vert-adv-y="1000"  />

      
      <glyph glyph-name="uni0418" unicode="&#x0418;" d="M468 383L453 383L349 0L20 0L20 660L319 660L319 277L334 277L437 660L767 660L767 0L468 0L468 383Z"  horiz-adv-x="787" vert-adv-y="1000"  />

      
      <glyph glyph-name="uni0419" unicode="&#x0419;" d="M468 0L767 0L767 660L437 660L334 277L319 277L319 660L20 660L20 0L349 0L453 383L468 383L468 0M380 709Q336 709 299 723.50Q262 738 235 763Q208 788 192.50 820Q177 852 177 888L282 888Q280 867 294.50 852.50Q309 838 332 831Q355 824 382 824Q409 824 431 831Q453 838 466 852.50Q479 867 475 888L579 888Q579 852 564 820Q549 788 523 763Q497 738 460 723.50Q423 709 380 709Z"  horiz-adv-x="787" vert-adv-y="1000"  />

      
      <glyph glyph-name="uni041F" unicode="&#x041F;" d="M319 0L20 0L20 660L739 660L739 0L440 0L439 500L318 500L319 0Z"  horiz-adv-x="759" vert-adv-y="1000"  />

      
      <glyph glyph-name="uni041D" unicode="&#x041D;" d="M319 0L20 0L20 660L319 660L319 370L440 370L440 660L739 660L739 0L440 0L440 291L319 291L319 0Z"  horiz-adv-x="759" vert-adv-y="1000"  />

      
      <glyph glyph-name="uni041E" unicode="&#x041E;" d="M396-10Q313-10 242.50 11Q172 32 120 74.50Q68 117 39 181Q10 245 10 331Q10 417 39 481.50Q68 546 120 588.50Q172 631 242.50 652Q313 673 396 673Q479 673 549.50 652Q620 631 672 588.50Q724 546 753 481.50Q782 417 782 331Q782 245 753 181Q724 117 672 74.50Q620 32 549.50 11Q479-10 396-10M396 471Q359 471 341.50 432.50Q324 394 324 331Q324 268 341.50 229Q359 190 396 190Q433 190 450.50 229Q468 268 468 331Q468 394 450.50 432.50Q433 471 396 471Z"  horiz-adv-x="792" vert-adv-y="1000"  />

      
      <glyph glyph-name="uni0420" unicode="&#x0420;" d="M469 660Q563 660 626.50 641Q690 622 729 589Q768 556 784.50 511Q801 466 801 414Q801 296 734 232.50Q667 169 546 169Q493 169 453 181.50Q413 194 386.50 215.50Q360 237 347 266.50Q334 296 334 329L319 329L319 0L21 0L21 660L469 660M416 367Q454 367 470.50 381.50Q487 396 487 413Q487 463 392 463L319 463L319 428Q326 410 339 397Q350 386 368.50 376.50Q387 367 416 367Z"  horiz-adv-x="802" vert-adv-y="1000"  />

      
      <glyph glyph-name="uni0421" unicode="&#x0421;" d="M414-10Q307-10 230.50 17Q154 44 105 92.50Q56 141 33 209Q10 277 10 360Q10 433 31.50 491Q53 549 90 588.50Q127 628 177 649Q227 670 285 670Q395 670 447 620Q499 570 499 462L514 462L514 660L712 660L712 406L477 406Q476 426 468 442Q461 456 447.50 467Q434 478 409 478Q369 478 346.50 445Q324 412 324 352Q324 292 352.50 255.50Q381 219 446 219Q487 219 524.50 229Q562 239 591 251Q625 265 656 283L727 61Q657 23 578.50 6.50Q500-10 414-10Z"  horiz-adv-x="733" vert-adv-y="1000"  />

      
      <glyph glyph-name="uni0422" unicode="&#x0422;" d="M5 223Q5 337 82.50 391.50Q160 446 314 446L314 461L20 461L20 660L676 660L676 424L440 424Q409 424 386.50 414.50Q364 405 349 389.50Q334 374 326.50 354Q319 334 319 312Q319 220 425 220Q462 220 497 230Q532 240 559 252Q591 266 619 284L691 62Q621 24 534.50 7.50Q448-9 348-9Q180-9 92.50 50Q5 109 5 223Z"  horiz-adv-x="696" vert-adv-y="1000"  />

      
      <glyph glyph-name="uni0423" unicode="&#x0423;" d="M445 661L775 661L626 0L60 0L60 198L347 198L347 213Q266 213 215 226.50Q164 240 134 263Q104 286 89.50 316Q75 346 67 380L1 661L337 661L384 276L399 276L445 661Z"  horiz-adv-x="775" vert-adv-y="1000"  />

      
      <glyph glyph-name="uni0424" unicode="&#x0424;" d="M745 569Q844 612 930.50 609.50Q1017 607 1080.50 568Q1144 529 1179 458Q1214 387 1209 292Q1206 236 1188.50 188.50Q1171 141 1139 107Q1107 73 1061 54.50Q1015 36 956 36Q901 37 863 53Q825 69 801.50 97.50Q778 126 767 165Q756 204 755 252L745 253L745 0L484 0L484 253L474 252Q473 204 462 165Q451 126 427.50 97.50Q404 69 366 53Q328 37 273 36Q214 36 168 54.50Q122 73 90 107Q58 141 40.50 188.50Q23 236 20 292Q15 387 50 458Q85 529 148.50 568Q212 607 298.50 609.50Q385 612 484 569L484 660L745 660L745 569M408 393Q378 397 360.50 389.50Q343 382 334 369.50Q325 357 323 341.50Q321 326 321 315Q323 292 333.50 271.50Q344 251 370 251Q409 252 430 274Q451 296 456 336L456 385Q442 389 428.50 390.50Q415 392 408 393M821 393Q814 392 800.50 390.50Q787 389 773 385L773 336Q778 296 799 274Q820 252 859 251Q885 251 895.50 271.50Q906 292 908 315Q908 326 905.50 341.50Q903 357 894 369.50Q885 382 868 389.50Q851 397 821 393Z"  horiz-adv-x="1237" vert-adv-y="1000"  />

      
      <glyph glyph-name="uni0425" unicode="&#x0425;" d="M337 0L0 0L147 330L0 660L330 660L369 471L384 471L423 660L760 660L612 330L760 0L430 0L391 189L376 189L337 0Z"  horiz-adv-x="760" vert-adv-y="1000"  />

      
      <glyph glyph-name="uni0417" unicode="&#x0417;" d="M389 379Q412 382 442 382Q472 382 503.50 376.50Q535 371 565 359Q595 347 618 327Q641 307 655.50 277Q670 247 670 206Q670 105 588 47.50Q506-10 330-10Q234-10 150 6Q66 22 0 60L71 283Q98 264 128 251Q154 239 188 229Q222 219 260 219Q278 219 295.50 222.50Q313 226 326.50 233.50Q340 241 348 252.50Q356 264 356 281Q355 308 323.50 326.50Q292 345 250 344L128 344L127 405L254 404Q285 404 305 414.50Q325 425 325 442Q325 458 311.50 465Q298 472 277.50 472.50Q257 473 231.50 468Q206 463 182 456Q158 449 138.50 440.50Q119 432 109 425L42 608Q99 641 175 655.50Q251 670 335 670Q478 670 549 630.50Q620 591 622 524Q624 463 567.50 426.50Q511 390 390 392L389 379Z"  horiz-adv-x="685" vert-adv-y="1000"  />

      
      <glyph glyph-name="uni042D" unicode="&#x042D;" d="M205 378L412 378Q407 414 391 437Q369 470 329 470Q304 470 290.50 459Q277 448 270 434Q262 418 261 398L26 398L26 652L224 652L224 454L239 454Q239 562 291 612Q343 662 453 662Q511 662 561 641Q611 620 648 580.50Q685 541 706.50 483Q728 425 728 352Q728 269 705 201Q682 133 633 84.50Q584 36 507.50 9Q431-18 324-18Q238-18 159.50-1.50Q81 15 11 53L82 275Q113 257 147 243Q176 231 213.50 221Q251 211 292 211Q357 211 385 247Q402 269 409 299L205 299L205 378Z"  horiz-adv-x="748" vert-adv-y="1000"  />

      
      <glyph glyph-name="uni042E" unicode="&#x042E;" d="M747-11Q669-11 601.50 7.50Q534 26 483 63.50Q432 101 400.50 158Q369 215 362 291L319 291L319 0L20 0L20 660L319 660L319 370L362 370Q369 446 400.50 503Q432 560 483 597.50Q534 635 601.50 653.50Q669 672 747 672Q830 672 900.50 651Q971 630 1023 587.50Q1075 545 1104 480.50Q1133 416 1133 330Q1133 244 1104 180Q1075 116 1023 73.50Q971 31 900.50 10Q830-11 747-11M747 470Q710 470 692.50 431.50Q675 393 675 330Q675 267 692.50 228Q710 189 747 189Q784 189 801.50 228Q819 267 819 330Q819 393 801.50 431.50Q784 470 747 470Z"  horiz-adv-x="1160" vert-adv-y="1000"  />

      
      <glyph glyph-name="uni042F" unicode="&#x042F;" d="M76 262Q99 250 125 241Q148 233 178 226.50Q208 220 242 220Q287 220 319 227.50Q351 235 371 244Q395 255 409 268L403 278Q370 262 328.50 255Q287 248 244.50 251Q202 254 161.50 268Q121 282 89.50 307.50Q58 333 38.50 370Q19 407 19 457Q19 503 36.50 540.50Q54 578 92 604.50Q130 631 190.50 645.50Q251 660 337 660L785 660L785 0L524 0L524 329L509 329Q509 257 497.50 195.50Q486 134 455 88Q424 42 371 16Q318-10 235-10Q177-10 114.50 1.50Q52 13 4 39L76 262M486 463L426 463Q348 463 348 413Q348 396 361.50 381.50Q375 367 407 367Q430 367 445 376.50Q460 386 469 397Q480 410 486 428L486 463Z"  horiz-adv-x="801" vert-adv-y="1000"  />

      
      <glyph glyph-name="uni0414" unicode="&#x0414;" d="M-3 196L89 196L216 660L771 660L771 197L842 197L842-154L644-154L644 0L195 0L195-155L-3-155L-3 196M458 385L443 385L405 196L457 196L458 385Z"  horiz-adv-x="852" vert-adv-y="1000"  />

      
      <glyph glyph-name="uni0411" unicode="&#x0411;" d="M320 349L320 197L404 197Q459 197 490.50 212.50Q522 228 523 271Q524 316 491.50 332.50Q459 349 404 349L320 349M812 229Q815 176 795.50 133.50Q776 91 730 61.50Q684 32 609.50 16Q535 0 428 0L21 0L21 660L755 660L755 461L319 461L319 428L404 428Q522 430 600 414Q678 398 724.50 370.50Q771 343 790.50 306Q810 269 812 229Z"  horiz-adv-x="832" vert-adv-y="1000"  />

      
      <glyph glyph-name="uni0426" unicode="&#x0426;" d="M20 0L20 660L319 660L318 197L439 197L440 660L739 660L738 194L806 194L806-155L608-155L608 0L20 0Z"  horiz-adv-x="817" vert-adv-y="1000"  />

      
      <glyph glyph-name="uni0427" unicode="&#x0427;" d="M467 0L467 348L466 349L452 349Q452 256 399.50 206Q347 156 249 156Q16 156 16 444L16 660L329 660L329 500Q329 419 340 394Q351 369 374 369Q391 369 402.50 381Q414 393 420 408Q427 426 430 448L430 660L728 660L728 0L467 0Z"  horiz-adv-x="749" vert-adv-y="1000"  />

      
      <glyph glyph-name="uni0429" unicode="&#x0429;" d="M26 660L325 660L324 197L446 197L446 660L745 660L744 197L866 197L866 660L1165 660L1164 194L1232 194L1232-155L1034-155L1034 0L26 0L26 660Z"  horiz-adv-x="1243" vert-adv-y="1000"  />

      
      <glyph glyph-name="uni0428" unicode="&#x0428;" d="M26 660L325 660L324 197L446 197L446 660L745 660L744 197L866 197L866 660L1165 660L1165 0L26 0L26 660Z"  horiz-adv-x="1195" vert-adv-y="1000"  />

      
      <glyph glyph-name="uni042C" unicode="&#x042C;" d="M489 276Q487 297 464 311Q441 325 387 325L319 325L319 197L392 197Q440 197 466 214Q492 231 489 276M802 246Q802 187 785.50 141.50Q769 96 730 64.50Q691 33 627 16.50Q563 0 469 0L21 0L21 660L319 660L319 364L334 364Q334 392 347.50 418Q361 444 387.50 463.50Q414 483 454 494.50Q494 506 547 506Q607 506 654.50 487.50Q702 469 735 434.50Q768 400 785 352Q802 304 802 246Z"  horiz-adv-x="803" vert-adv-y="1000"  />

      
      <glyph glyph-name="uni042B" unicode="&#x042B;" d="M489 276Q487 297 464 311Q441 325 387 325L319 325L319 197L392 197Q440 197 466 214Q492 231 489 276M802 246Q802 187 785.50 141.50Q769 96 730 64.50Q691 33 627 16.50Q563 0 469 0L21 0L21 660L319 660L319 364L334 364Q334 392 347.50 419Q361 446 387.50 467Q414 488 454 500.50Q494 513 547 513Q607 513 654.50 493Q702 473 735 438Q768 403 785 353.50Q802 304 802 246M845 660L1144 660L1144 0L845 0L845 660Z"  horiz-adv-x="1171" vert-adv-y="1000"  />

      
      <glyph glyph-name="uni042A" unicode="&#x042A;" d="M658 276Q656 297 633 311Q610 325 556 325L488 325L488 197L561 197Q609 197 635 214Q661 231 658 276M191 461L20 461L20 660L488 660L488 364L503 364Q503 392 516.50 419Q530 446 556.50 467Q583 488 623 500.50Q663 513 716 513Q776 513 823.50 493Q871 473 904 438Q937 403 954 353.50Q971 304 971 246Q971 187 954.50 141.50Q938 96 899 64.50Q860 33 796 16.50Q732 0 638 0L190 0L191 461Z"  horiz-adv-x="972" vert-adv-y="1000"  />

      
      <glyph glyph-name="uni0430" unicode="&#x0430;" d="M786 0L501 0L478 181L463 181Q466 136 452 100.50Q438 65 409.50 40.50Q381 16 339.50 3Q298-10 247-10Q130-10 68 46.50Q6 103 6 200Q6 257 24.50 302.50Q43 348 81.50 380Q120 412 178 429Q236 446 315 446L315 461L96 461L96 660L630 660L786 0M380 189Q398 189 409.50 198.50Q421 208 427.50 220Q434 232 436 242Q438 252 438 253L411 458Q388 452 370.50 436.50Q353 421 341.50 399.50Q330 378 324.50 352Q319 326 319 299Q319 240 338 214.50Q357 189 380 189Z"  horiz-adv-x="786" vert-adv-y="1000"  />

      
      <glyph glyph-name="uni0431" unicode="&#x0431;" d="M489 276Q487 297 464 311Q441 325 387 325L319 325L319 197L392 197Q440 197 466 214Q492 231 489 276M319 364L334 364Q338 385 352 405Q366 425 391.50 440Q417 455 455.50 464.50Q494 474 547 474Q607 474 654.50 457.50Q702 441 734.50 411Q767 381 784 339Q801 297 802 246Q803 187 786 141.50Q769 96 730 64.50Q691 33 627 16.50Q563 0 469 0L21 0L21 660L740 660L740 500L319 500L319 364Z"  horiz-adv-x="803" vert-adv-y="1000"  />

      
      <glyph glyph-name="uni0432" unicode="&#x0432;" d="M831 176Q831 134 811.50 101Q792 68 747.50 45.50Q703 23 630 11.50Q557 0 450 0L21 0L21 660L282 660L282 477L297 477Q297 528 315.50 565Q334 602 367.50 625Q401 648 447 659Q493 670 548 670Q598 670 639 660Q680 650 709.50 630Q739 610 755 580.50Q771 551 771 513Q771 472 755 441.50Q739 411 711 391Q683 371 644.50 361.50Q606 352 561 352L561 337Q635 337 686.50 326Q738 315 770 294Q802 273 816.50 243Q831 213 831 176M420 478Q395 478 377 465.50Q359 453 346 438Q331 420 320 398L320 376L404 376Q437 376 447.50 393Q458 410 458 429Q458 449 449 463.50Q440 478 420 478M518 248Q518 279 488.50 288.50Q459 298 404 298L320 298L320 198L404 198Q459 198 488.50 207.50Q518 217 518 248Z"  horiz-adv-x="832" vert-adv-y="1000"  />

      
      <glyph glyph-name="uni0433" unicode="&#x0433;" d="M342 244Q342 229 357.50 224Q373 219 405 219Q453 219 499 229Q545 239 580 251Q622 265 659 283L730 61Q695 42 649 28.50Q603 15 552 6.50Q501-2 447-6Q393-10 342-10Q256-10 194 0Q132 10 92 31.50Q52 53 33 87Q14 121 14 168Q14 226 41 262.50Q68 299 108.50 321Q149 343 196.50 355.50Q244 368 284.50 379Q325 390 352 403.50Q379 417 379 441Q379 478 340 478Q310 478 292 467Q274 456 264 442Q253 426 249 406L14 406L14 660L211 660L211 462L226 462Q226 570 285.50 620Q345 670 470 670Q585 670 646.50 623Q708 576 708 496Q708 440 681 405.50Q654 371 613 350Q572 329 525 317.50Q478 306 437 296Q396 286 369 275Q342 264 342 244Z"  horiz-adv-x="733" vert-adv-y="1000"  />

      
      <glyph glyph-name="uni0435" unicode="&#x0435;" d="M537 255L734 255L734 0L537 0L537 177L522 177Q522 124 503.50 88Q485 52 454 29.50Q423 7 381.50-3Q340-13 295-13Q235-13 183 7.50Q131 28 92.50 69Q54 110 32 171.50Q10 233 10 315Q10 397 34.50 462.50Q59 528 106.50 574Q154 620 225 645Q296 670 389 670Q464 670 525.50 658Q587 646 630 622Q673 598 696.50 562.50Q720 527 720 481Q720 421 692 385Q664 349 621 329.50Q578 310 526 304Q474 298 426 298L325 298Q330 245 353 213.50Q376 182 421 182Q452 182 474 193Q496 204 510 218Q527 234 537 254L537 255M414 478Q371 478 350.50 446.50Q330 415 325 363L391 363Q427 363 452 376.50Q477 390 477 421Q477 447 463 462.50Q449 478 414 478Z"  horiz-adv-x="737" vert-adv-y="1000"  />

      
      <glyph glyph-name="uni043A" unicode="&#x043A;" d="M332 324Q332 396 341 459Q350 522 373 569Q396 616 436.50 643Q477 670 540 670Q584 670 631 658.50Q678 647 714 621L643 398Q630 410 613 419Q599 427 578 433.50Q557 440 531 440Q498 440 476.50 423Q455 406 443 385Q428 360 421 329L428 319Q464 358 511 372Q558 386 600 378.50Q642 371 670.50 343Q699 315 699 270L699 0L386 0L386 193Q386 213 375.50 230Q365 247 332 247L319 247L319 0L20 0L20 660L319 660L319 324L332 324Z"  horiz-adv-x="715" vert-adv-y="1000"  />

      
      <glyph glyph-name="uni0436" unicode="&#x0436;" d="M400 0L400 247L387 247Q354 247 343.50 230Q333 213 333 193L333 0L20 0L20 270Q20 315 48.50 343Q77 371 119 379Q161 387 208 372.50Q255 358 291 319L298 329Q291 360 276 385Q264 406 242.50 423Q221 440 188 440Q162 440 141 433.50Q120 427 106 419Q89 410 76 398L5 621Q41 647 87.50 658.50Q134 670 179 670Q242 670 282.50 643Q323 616 346 569Q369 522 378 459Q387 396 387 324L400 324L400 660L699 660L699 324L712 324Q712 396 721 459Q730 522 753 569Q776 616 816.50 643Q857 670 920 670Q965 670 1011.50 658.50Q1058 647 1094 621L1023 398Q1009 410 993 419Q979 427 958 433.50Q937 440 911 440Q878 440 856.50 423Q835 406 823 385Q808 360 801 329L808 319Q844 358 891 372.50Q938 387 980 379Q1022 371 1050.50 343Q1079 315 1079 270L1079 0L766 0L766 193Q766 213 755.50 230Q745 247 712 247L699 247L699 0L400 0Z"  horiz-adv-x="1095" vert-adv-y="1000"  />

      
      <glyph glyph-name="uni0437" unicode="&#x0437;" d="M389 379Q412 382 442 382Q472 382 503.50 376.50Q535 371 565 359Q595 347 618 327Q641 307 655.50 277Q670 247 670 206Q670 105 588 47.50Q506-10 330-10Q234-10 150 6Q66 22 0 60L71 283Q98 264 128 251Q154 239 188 229Q222 219 260 219Q278 219 295.50 222.50Q313 226 326.50 233.50Q340 241 348 252.50Q356 264 356 281Q355 308 323.50 326.50Q292 345 250 344L128 344L127 405L254 404Q285 404 305 414.50Q325 425 325 442Q325 458 311.50 465Q298 472 277.50 472.50Q257 473 231.50 468Q206 463 182 456Q158 449 138.50 440.50Q119 432 109 425L42 608Q99 641 175 655.50Q251 670 335 670Q478 670 549 630.50Q620 591 622 524Q624 463 567.50 426.50Q511 390 390 392L389 379Z"  horiz-adv-x="685" vert-adv-y="1000"  />

      
      <glyph glyph-name="uni043D" unicode="&#x043D;" d="M319 0L20 0L20 660L319 660L319 370L440 370L440 660L739 660L739 0L440 0L440 291L319 291L319 0Z"  horiz-adv-x="759" vert-adv-y="1000"  />

      
      <glyph glyph-name="uni043E" unicode="&#x043E;" d="M396-10Q313-10 242.50 11Q172 32 120 74.50Q68 117 39 181Q10 245 10 331Q10 417 39 481.50Q68 546 120 588.50Q172 631 242.50 652Q313 673 396 673Q479 673 549.50 652Q620 631 672 588.50Q724 546 753 481.50Q782 417 782 331Q782 245 753 181Q724 117 672 74.50Q620 32 549.50 11Q479-10 396-10M396 471Q359 471 341.50 432.50Q324 394 324 331Q324 268 341.50 229Q359 190 396 190Q433 190 450.50 229Q468 268 468 331Q468 394 450.50 432.50Q433 471 396 471Z"  horiz-adv-x="792" vert-adv-y="1000"  />

      
      <glyph glyph-name="uni043F" unicode="&#x043F;" d="M499 670Q733 670 733 381L733 0L419 0L419 344Q419 406 408 431Q397 456 374 456Q357 456 346 443.50Q335 431 329 416Q322 398 319 377L319 0L20 0L20 660L281 660L281 476L296 476Q296 569 348.50 619.50Q401 670 499 670Z"  horiz-adv-x="749" vert-adv-y="1000"  />

      
      <glyph glyph-name="uni0440" unicode="&#x0440;" d="M319 0L20 0L20 660L281 660L281 477L296 477Q296 574 360 624.50Q424 675 543 675Q674 675 737.50 613.50Q801 552 801 444Q801 384 778 333.50Q755 283 706 246.50Q657 210 580.50 189.50Q504 169 397 169L319 169L319 0M432 478Q406 478 384.50 465.50Q363 453 349 438Q331 420 319 398L319 367L364 367Q400 367 423.50 372.50Q447 378 461 387.50Q475 397 481 409Q487 421 487 433Q487 457 472 467.50Q457 478 432 478Z"  horiz-adv-x="801" vert-adv-y="1000"  />

      
      <glyph glyph-name="uni0441" unicode="&#x0441;" d="M369-10Q280-10 213 13.50Q146 37 101 82Q56 127 33 191.50Q10 256 10 338Q10 419 30.50 481Q51 543 88 585Q125 627 176.50 648.50Q228 670 291 670Q350 670 391 658Q432 646 458 620.50Q484 595 495.50 556Q507 517 507 463L522 463L522 660L719 660L719 407L507 407Q501 427 489 443Q478 457 460.50 468Q443 479 414 479Q364 479 344 437.50Q324 396 324 331Q324 266 342.50 224.50Q361 183 402 183Q449 183 468 223Q487 263 487 331L735 331Q735 243 709 179Q683 115 635 73Q587 31 519.50 10.50Q452-10 369-10Z"  horiz-adv-x="737" vert-adv-y="1000"  />

      
      <glyph glyph-name="uni0442" unicode="&#x0442;" d="M5 660L644 660L644 461L474 461L474 0L175 0L175 461L5 461L5 660Z"  horiz-adv-x="649" vert-adv-y="1000"  />

      
      <glyph glyph-name="uni0443" unicode="&#x0443;" d="M385 660L716 660L559 0L267 0L307 160L116 160L-7 660L316 660L342 375L359 375L385 660Z"  horiz-adv-x="714" vert-adv-y="1000"  />

      
      <glyph glyph-name="uni0444" unicode="&#x0444;" d="M745 569Q844 612 930.50 609.50Q1017 607 1080.50 568Q1144 529 1179 458Q1214 387 1209 292Q1206 236 1188.50 188.50Q1171 141 1139 107Q1107 73 1061 54.50Q1015 36 956 36Q901 37 863 53Q825 69 801.50 97.50Q778 126 767 165Q756 204 755 252L745 253L745 0L484 0L484 253L474 252Q473 204 462 165Q451 126 427.50 97.50Q404 69 366 53Q328 37 273 36Q214 36 168 54.50Q122 73 90 107Q58 141 40.50 188.50Q23 236 20 292Q15 387 50 458Q85 529 148.50 568Q212 607 298.50 609.50Q385 612 484 569L484 660L745 660L745 569M408 393Q378 397 360.50 389.50Q343 382 334 369.50Q325 357 323 341.50Q321 326 321 315Q323 292 333.50 271.50Q344 251 370 251Q409 252 430 274Q451 296 456 336L456 385Q442 389 428.50 390.50Q415 392 408 393M821 393Q814 392 800.50 390.50Q787 389 773 385L773 336Q778 296 799 274Q820 252 859 251Q885 251 895.50 271.50Q906 292 908 315Q908 326 905.50 341.50Q903 357 894 369.50Q885 382 868 389.50Q851 397 821 393Z"  horiz-adv-x="1237" vert-adv-y="1000"  />

      
      <glyph glyph-name="uni0445" unicode="&#x0445;" d="M337 0L0 0L147 330L0 660L330 660L369 471L384 471L423 660L760 660L612 330L760 0L430 0L391 189L376 189L337 0Z"  horiz-adv-x="760" vert-adv-y="1000"  />

      
      <glyph glyph-name="uni0448" unicode="&#x0448;" d="M449 186Q449 92 397 42.50Q345-7 246-7Q13-7 13 281L13 662L326 662L326 318Q326 255 340 230.50Q354 206 377 206Q406 206 420.50 222Q435 238 444 285L444 662L770 660L770 316Q770 253 781 228.50Q792 204 815 204Q832 204 845.50 216Q859 228 865 243Q872 259 875 283L875 660L1173 660L1173 0L912 0L912 183L911 184L897 184Q897 90 845 40.50Q793-9 694-9Q601-9 540 35.50Q479 80 463 186L449 186Z"  horiz-adv-x="1194" vert-adv-y="1000"  />

      
      <glyph glyph-name="uni0449" unicode="&#x0449;" d="M1172 197L1243 197L1243-154L1045-154L1045 0L912 0L912 183L911 184L897 184Q897 90 845 40.50Q793-9 694-9Q601-9 540 35.50Q479 80 463 186L449 186Q449 92 397 42.50Q345-7 246-7Q13-7 13 281L13 662L326 662L326 318Q326 255 340 230.50Q354 206 377 206Q406 206 420.50 222Q435 238 444 285L444 662L770 660L770 316Q770 253 781 228.50Q792 204 815 204Q832 204 845.50 216Q859 228 865 243Q872 259 875 283L875 660L1173 660L1172 197Z"  horiz-adv-x="1255" vert-adv-y="1000"  />

      
      <glyph glyph-name="uni0438" unicode="&#x0438;" d="M467 0L467 183L466 184L452 184Q452 91 399.50 41Q347-9 249-9Q16-9 16 279L16 660L329 660L329 316Q329 254 340 229Q351 204 374 204Q391 204 402.50 216Q414 228 420 243Q427 261 430 283L430 660L728 660L728 0L467 0Z"  horiz-adv-x="749" vert-adv-y="1000"  />

      
      <glyph glyph-name="uni0439" unicode="&#x0439;" d="M467 0L467 183L466 184L452 184Q452 91 399.50 41Q347-9 249-9Q16-9 16 279L16 660L329 660L329 316Q329 254 340 229Q351 204 374 204Q391 204 402.50 216Q414 228 420 243Q427 261 430 283L430 660L728 660L728 0L467 0M379 709Q335 709 298 723.50Q261 738 234 763Q207 788 191.50 820Q176 852 176 888L281 888Q279 867 293.50 852.50Q308 838 331 831Q354 824 381 824Q408 824 430 831Q452 838 465 852.50Q478 867 474 888L578 888Q578 852 563 820Q548 788 522 763Q496 738 459 723.50Q422 709 379 709Z"  horiz-adv-x="749" vert-adv-y="1000"  />

      
      <glyph glyph-name="uni0447" unicode="&#x0447;" d="M467 0L467 367L466 368L452 368Q452 275 399.50 225Q347 175 249 175Q16 175 16 463L16 660L329 660L329 500Q329 438 340 413Q351 388 374 388Q391 388 402.50 400Q414 412 420 427Q427 445 430 467L430 660L728 660L728 0L467 0Z"  horiz-adv-x="749" vert-adv-y="1000"  />

      
      <glyph glyph-name="uni044A" unicode="&#x044A;" d="M658 276Q656 297 633 311Q610 325 556 325L488 325L488 197L561 197Q609 197 635 214Q661 231 658 276M191 461L20 461L20 660L488 660L488 364L503 364Q503 392 516.50 419Q530 446 556.50 467Q583 488 623 500.50Q663 513 716 513Q776 513 823.50 493Q871 473 904 438Q937 403 954 353.50Q971 304 971 246Q971 187 954.50 141.50Q938 96 899 64.50Q860 33 796 16.50Q732 0 638 0L190 0L191 461Z"  horiz-adv-x="972" vert-adv-y="1000"  />

      
      <glyph glyph-name="uni044B" unicode="&#x044B;" d="M489 276Q487 297 464 311Q441 325 387 325L319 325L319 197L392 197Q440 197 466 214Q492 231 489 276M802 246Q802 187 785.50 141.50Q769 96 730 64.50Q691 33 627 16.50Q563 0 469 0L21 0L21 660L319 660L319 364L334 364Q334 392 347.50 419Q361 446 387.50 467Q414 488 454 500.50Q494 513 547 513Q607 513 654.50 493Q702 473 735 438Q768 403 785 353.50Q802 304 802 246M845 660L1144 660L1144 0L845 0L845 660Z"  horiz-adv-x="1171" vert-adv-y="1000"  />

      
      <glyph glyph-name="uni044C" unicode="&#x044C;" d="M489 276Q487 297 464 311Q441 325 387 325L319 325L319 197L392 197Q440 197 466 214Q492 231 489 276M802 246Q802 187 785.50 141.50Q769 96 730 64.50Q691 33 627 16.50Q563 0 469 0L21 0L21 660L319 660L319 364L334 364Q334 392 347.50 418Q361 444 387.50 463.50Q414 483 454 494.50Q494 506 547 506Q607 506 654.50 487.50Q702 469 735 434.50Q768 400 785 352Q802 304 802 246Z"  horiz-adv-x="803" vert-adv-y="1000"  />

      
      <glyph glyph-name="uni044D" unicode="&#x044D;" d="M205 378L412 378Q407 414 391 437Q369 470 329 470Q304 470 290.50 459Q277 448 270 434Q262 418 261 398L26 398L26 652L224 652L224 454L239 454Q239 562 291 612Q343 662 453 662Q511 662 561 641Q611 620 648 580.50Q685 541 706.50 483Q728 425 728 352Q728 269 705 201Q682 133 633 84.50Q584 36 507.50 9Q431-18 324-18Q238-18 159.50-1.50Q81 15 11 53L82 275Q113 257 147 243Q176 231 213.50 221Q251 211 292 211Q357 211 385 247Q402 269 409 299L205 299L205 378Z"  horiz-adv-x="755" vert-adv-y="1000"  />

      
      <glyph glyph-name="uni044E" unicode="&#x044E;" d="M747-11Q669-11 601.50 7.50Q534 26 483 63.50Q432 101 400.50 158Q369 215 362 291L319 291L319 0L20 0L20 660L319 660L319 370L362 370Q369 446 400.50 503Q432 560 483 597.50Q534 635 601.50 653.50Q669 672 747 672Q830 672 900.50 651Q971 630 1023 587.50Q1075 545 1104 480.50Q1133 416 1133 330Q1133 244 1104 180Q1075 116 1023 73.50Q971 31 900.50 10Q830-11 747-11M747 470Q710 470 692.50 431.50Q675 393 675 330Q675 267 692.50 228Q710 189 747 189Q784 189 801.50 228Q819 267 819 330Q819 393 801.50 431.50Q784 470 747 470Z"  horiz-adv-x="1160" vert-adv-y="1000"  />

      
      <glyph glyph-name="uni044F" unicode="&#x044F;" d="M6 15Q10 19 14 29Q17 37 19 50.50Q21 64 21 85L21 116Q21 146 32.50 172.50Q44 199 74 218.50Q104 238 156.50 249Q209 260 291 260L291 275Q159 275 90 325.50Q21 376 21 476Q21 518 34 553Q47 588 74.50 614Q102 640 145 654.50Q188 669 249 669Q304 669 349 657Q394 645 426.50 621Q459 597 477 561Q495 525 495 477L510 477L510 660L771 660L771 0L473 0L473 169L422 169Q395 169 378 164Q361 159 351.50 149.50Q342 140 338.50 126.50Q335 113 335 97L335 77Q335 54 333 39.50Q331 25 328 16Q324 5 320 0L6 0L6 15M374 478Q360 478 347.50 467.50Q335 457 335 433Q335 421 339.50 409Q344 397 356 387.50Q368 378 389 372.50Q410 367 442 367L473 367L473 398Q463 420 448 438Q435 453 416.50 465.50Q398 478 374 478Z"  horiz-adv-x="787" vert-adv-y="1000"  />

      
      <glyph glyph-name="uni043C" unicode="&#x043C;" d="M319 0L20 0L20 660L373 660L452 220L467 220L547 660L899 660L899 0L600 0L600 344L585 344L507 0L412 0L334 344L319 344L319 0Z"  horiz-adv-x="919" vert-adv-y="1000"  />

      
      <glyph glyph-name="uni041C" unicode="&#x041C;" d="M441 660L496 247L511 247L567 660L889 660L1007 0L648 0L624 317L609 317L555 0L453 0L399 317L384 317L360 0L1 0L119 660L441 660Z"  horiz-adv-x="1008" vert-adv-y="1000"  />

      
      <glyph glyph-name="uni0406" unicode="&#x0406;" d="M579 0L10 0L10 199L145 199L145 461L10 461L10 660L579 660L579 461L444 461L444 199L579 199L579 0Z"  horiz-adv-x="589" vert-adv-y="1000"  />

      
      <glyph glyph-name="uni0407" unicode="&#x0407;" d="M272 795Q272 758 248 732.50Q224 707 184 707Q143 707 119.50 732.50Q96 758 96 795Q96 832 119.50 857.50Q143 883 184 883Q224 883 248 857.50Q272 832 272 795M408 883Q448 883 472 857.50Q496 832 496 795Q496 758 472 732.50Q448 707 408 707Q367 707 343.50 732.50Q320 758 320 795Q320 832 343.50 857.50Q367 883 408 883M579 0L11 0L11 199L146 199L146 461L11 461L11 660L579 660L579 461L444 461L444 199L579 199L579 0Z"  horiz-adv-x="590" vert-adv-y="1000"  />

      
      <glyph glyph-name="uni0401" unicode="&#x0401;" d="M12 0L580 0L580 199L325 199L323 268L563 268L563 347L323 347L323 461L578 461L578 660L10 660L12 0M181 700Q141 700 117 725.50Q93 751 93 788Q93 825 117 850.50Q141 876 181 876Q221 876 245 850.50Q269 825 269 788Q269 751 245 725.50Q221 700 181 700M405 700Q365 700 341 725.50Q317 751 317 788Q317 825 341 850.50Q365 876 405 876Q445 876 469 850.50Q493 825 493 788Q493 751 469 725.50Q445 700 405 700Z"  horiz-adv-x="592" vert-adv-y="1000"  />

      
      <glyph glyph-name="uni0451" unicode="&#x0451;" d="M537 255L734 255L734 0L537 0L537 177L522 177Q522 124 503.50 88Q485 52 454 29.50Q423 7 381.50-3Q340-13 295-13Q235-13 183 7.50Q131 28 92.50 69Q54 110 32 171.50Q10 233 10 315Q10 397 34.50 462.50Q59 528 106.50 574Q154 620 225 645Q296 670 389 670Q464 670 525.50 658Q587 646 630 622Q673 598 696.50 562.50Q720 527 720 481Q720 421 692 385Q664 349 621 329.50Q578 310 526 304Q474 298 426 298L325 298Q330 245 353 213.50Q376 182 421 182Q452 182 474 193Q496 204 510 218Q527 234 537 254L537 255M414 478Q371 478 350.50 446.50Q330 415 325 363L391 363Q427 363 452 376.50Q477 390 477 421Q477 447 463 462.50Q449 478 414 478M291 700Q251 700 227 725.50Q203 751 203 788Q203 825 227 850.50Q251 876 291 876Q331 876 355 850.50Q379 825 379 788Q379 751 355 725.50Q331 700 291 700M515 700Q475 700 451 725.50Q427 751 427 788Q427 825 451 850.50Q475 876 515 876Q555 876 579 850.50Q603 825 603 788Q603 751 579 725.50Q555 700 515 700Z"  horiz-adv-x="737" vert-adv-y="1000"  />

      
      <glyph glyph-name="uni0454" unicode="&#x0454;" d="M415-18Q308-18 231.50 9Q155 36 106 84.50Q57 133 34 201Q11 269 11 352Q11 425 32.50 483Q54 541 91 580.50Q128 620 178 641Q228 662 286 662Q397 662 448.50 612.50Q500 563 500 454L515 454L515 652L713 652L713 398L478 398Q476 417 469 434Q462 448 448.50 459Q435 470 410 470Q376 470 354.50 446.50Q333 423 327 378L534 378L534 299L329 299Q338 258 366 234.50Q394 211 447 211Q489 211 526 221Q563 231 592 243Q609 250 625 258Q641 266 657 275L728 53Q658 15 580-1.50Q502-18 415-18Z"  horiz-adv-x="755" vert-adv-y="1000"  />

      
      <glyph glyph-name="uni0404" unicode="&#x0404;" d="M415-18Q308-18 231.50 9Q155 36 106 84.50Q57 133 34 201Q11 269 11 352Q11 425 32.50 483Q54 541 91 580.50Q128 620 178 641Q228 662 286 662Q397 662 448.50 612.50Q500 563 500 454L515 454L515 652L713 652L713 398L478 398Q476 417 469 434Q462 448 448.50 459Q435 470 410 470Q376 470 354.50 446.50Q333 423 327 378L534 378L534 299L329 299Q338 258 366 234.50Q394 211 447 211Q489 211 526 221Q563 231 592 243Q609 250 625 258Q641 266 657 275L728 53Q658 15 580-1.50Q502-18 415-18Z"  horiz-adv-x="755" vert-adv-y="1000"  />

      
      <glyph glyph-name="uni045E" unicode="&#x045E;" d="M385 660L716 660L559 0L267 0L307 160L116 160L-7 660L316 660L342 375L359 375L385 660M362 701Q318 701 281 715.50Q244 730 217 755Q190 780 174.50 812Q159 844 159 880L264 880Q262 859 276.50 844.50Q291 830 314 823Q337 816 364 816Q391 816 413 823Q435 830 448 844.50Q461 859 457 880L561 880Q561 844 546 812Q531 780 505 755Q479 730 442 715.50Q405 701 362 701Z"  horiz-adv-x="714" vert-adv-y="1000"  />

      
      <glyph glyph-name="uni040E" unicode="&#x040E;" d="M445 661L775 661L626 0L60 0L60 198L347 198L347 213Q266 213 215 226.50Q164 240 134 263Q104 286 89.50 316Q75 346 67 380L1 661L337 661L384 276L399 276L445 661M380 705Q336 705 299 719.50Q262 734 235 759Q208 784 192.50 816Q177 848 177 884L282 884Q280 863 294.50 848.50Q309 834 332 827Q355 820 382 820Q409 820 431 827Q453 834 466 848.50Q479 863 475 884L579 884Q579 848 564 816Q549 784 523 759Q497 734 460 719.50Q423 705 380 705Z"  horiz-adv-x="775" vert-adv-y="1000"  />

      
      <glyph glyph-name="uni0490" unicode="&#x0490;" d="M375 812L573 812L573 461L334 461L334 1L20 1L20 660L375 660L375 812Z"  horiz-adv-x="589" vert-adv-y="1000"  />

      
      <glyph glyph-name="uni0491" unicode="&#x0491;" d="M342 244Q342 229 357.50 224Q373 219 405 219Q453 219 499 229Q545 239 580 251Q622 265 659 283L730 61Q695 42 649 28.50Q603 15 552 6.50Q501-2 447-6Q393-10 342-10Q256-10 194 0Q132 10 92 31.50Q52 53 33 87Q14 121 14 168Q14 226 41 262.50Q68 299 108.50 321Q149 343 196.50 355.50Q244 368 284.50 379Q325 390 352 403.50Q379 417 379 441Q379 478 340 478Q310 478 292 467Q274 456 264 442Q253 426 249 406L14 406L14 749L211 749L211 462L226 462Q226 570 285.50 620Q345 670 470 670Q585 670 646.50 623Q708 576 708 496Q708 440 681 405.50Q654 371 613 350Q572 329 525 317.50Q478 306 437 296Q396 286 369 275Q342 264 342 244Z"  horiz-adv-x="733" vert-adv-y="1000"  />

      
      <glyph glyph-name="uni2116" unicode="&#x2116;" d="M319 0L20 0L20 660L350 660L453 277L468 277L468 660L767 660L767 0L438 0L334 383L319 383L319 0M831 313L1233 313L1233 249L831 249L831 313M1022 657Q1060 657 1093.50 645.50Q1127 634 1152 613Q1177 592 1191.50 562Q1206 532 1206 495Q1206 458 1191.50 428Q1177 398 1152 377Q1127 356 1093.50 344.50Q1060 333 1022 333Q984 333 950.50 344.50Q917 356 892 377Q867 398 853 428Q839 458 839 495Q839 532 853 562Q867 592 892 613Q917 634 950.50 645.50Q984 657 1022 657M1022 393Q1052 393 1066.50 421.50Q1081 450 1081 495Q1081 540 1066.50 568.50Q1052 597 1022 597Q992 597 977.50 568.50Q963 540 963 495Q963 450 977.50 421.50Q992 393 1022 393Z"  horiz-adv-x="1258" vert-adv-y="1000"  />

      
      <glyph glyph-name="uni0462" unicode="&#x0462;" d="M906 276Q904 297 881 311Q858 325 804 325L736 325L736 197L809 197Q857 197 883 214Q909 231 906 276M736 660L736 364L751 364Q751 392 764.50 419Q778 446 804.50 467Q831 488 871 500.50Q911 513 964 513Q1024 513 1071.50 493Q1119 473 1152 438Q1185 403 1202 353.50Q1219 304 1219 246Q1219 187 1202.50 141.50Q1186 96 1147 64.50Q1108 33 1044 16.50Q980 0 886 0L438 0L439 500L318 500L319 0L20 0L20 660L736 660Z"  horiz-adv-x="1235" vert-adv-y="1000"  />

      
      <glyph glyph-name="uni0463" unicode="&#x0463;" d="M592 241Q590 262 567 276Q544 290 490 290L422 290L422 197L495 197Q543 197 568.50 205.50Q594 214 592 241M18 583L557 583L557 500L18 500L18 583M905 246Q906 187 889 141.50Q872 96 833 64.50Q794 33 730 16.50Q666 0 572 0L124 0L124 660L422 660L422 329L437 329Q437 357 450.50 383Q464 409 490.50 428.50Q517 448 557 459.50Q597 471 650 471Q710 471 757.50 453.50Q805 436 837.50 405.50Q870 375 887 334Q904 293 905 246Z"  horiz-adv-x="906" vert-adv-y="1000"  />

      
      <glyph glyph-name="uni0472" unicode="&#x0472;" d="M396-10Q313-10 242.50 11Q172 32 120 74.50Q68 117 39 181Q10 245 10 331Q10 417 39 481.50Q68 546 120 588.50Q172 631 242.50 652Q313 673 396 673Q479 673 549.50 652Q620 631 672 588.50Q724 546 753 481.50Q782 417 782 331Q782 245 753 181Q724 117 672 74.50Q620 32 549.50 11Q479-10 396-10M396 471Q335 471 326 377Q336 383 352 383Q367 383 381 378.50Q395 374 407 369Q419 364 429 359.50Q439 355 448 355Q456 355 460.50 359.50Q465 364 467 369Q465 423 447.50 447Q430 471 396 471M448 289Q430 289 417.50 292.50Q405 296 394 300.50Q383 305 373.50 309Q364 313 352 313Q344 313 339.50 309.50Q335 306 333 301Q331 296 330 291Q329 286 329 284L326 284Q335 190 396 190Q425 190 442.50 218.50Q460 247 465 291Q455 289 448 289Z"  horiz-adv-x="792" vert-adv-y="1000"  />

      
      <glyph glyph-name="uni0473" unicode="&#x0473;" d="M396-10Q313-10 242.50 11Q172 32 120 74.50Q68 117 39 181Q10 245 10 331Q10 417 39 481.50Q68 546 120 588.50Q172 631 242.50 652Q313 673 396 673Q479 673 549.50 652Q620 631 672 588.50Q724 546 753 481.50Q782 417 782 331Q782 245 753 181Q724 117 672 74.50Q620 32 549.50 11Q479-10 396-10M396 471Q335 471 326 377Q336 383 352 383Q367 383 381 378.50Q395 374 407 369Q419 364 429 359.50Q439 355 448 355Q456 355 460.50 359.50Q465 364 467 369Q465 423 447.50 447Q430 471 396 471M448 289Q430 289 417.50 292.50Q405 296 394 300.50Q383 305 373.50 309Q364 313 352 313Q344 313 339.50 309.50Q335 306 333 301Q331 296 330 291Q329 286 329 284L326 284Q335 190 396 190Q425 190 442.50 218.50Q460 247 465 291Q455 289 448 289Z"  horiz-adv-x="792" vert-adv-y="1000"  />

      
      <glyph glyph-name="uni043B" unicode="&#x043B;" d="M399 384L384 384L337 0L0 0L67 280Q75 314 89 344.50Q103 375 133.50 398Q164 421 215 434.50Q266 448 347 448L347 463L60 463L60 660L626 660L771 0L445 0L399 384Z"  horiz-adv-x="768" vert-adv-y="1000"  />

      
      <glyph glyph-name="uni041B" unicode="&#x041B;" d="M337 0L0 0L156 660L626 660L774 0L445 0L399 385L384 385L337 0Z"  horiz-adv-x="775" vert-adv-y="1000"  />

      
      <glyph glyph-name="uni61" unicode="&#x61;" d="M337 0L0 0L156 660L626 660L774 0L445 0L428 142L354 142L337 0M384 385L363 219L419 219L399 385L384 385Z"  horiz-adv-x="775" vert-adv-y="1000"  />

      
      <glyph glyph-name="uni62" unicode="&#x62;" d="M831 161Q831 82 769 36Q707-10 568-10Q432-10 364 44Q296 98 296 198L281 198L281 0L20 0L20 660L551 660Q670 660 720.50 619Q771 578 771 505Q771 427 715.50 389.50Q660 352 560 352L560 337Q636 337 688 323.50Q740 310 771.50 286.50Q803 263 817 230.50Q831 198 831 161M457 421Q457 438 447 450.50Q437 463 411 463L319 463L319 376L403 376Q436 376 446.50 390Q457 404 457 421M450 183Q485 183 501 199Q517 215 517 240Q517 271 489 284.50Q461 298 403 298L319 298L319 264Q330 241 348 223Q364 208 389 195.50Q414 183 450 183Z"  horiz-adv-x="836" vert-adv-y="1000"  />

      
      <glyph glyph-name="uni63" unicode="&#x63;" d="M369-10Q280-10 213 13.50Q146 37 101 82Q56 127 33 191.50Q10 256 10 338Q10 419 30.50 481Q51 543 88 585Q125 627 176.50 648.50Q228 670 291 670Q350 670 391 658Q432 646 458 620.50Q484 595 495.50 556Q507 517 507 463L522 463L522 660L719 660L719 407L507 407Q501 427 489 443Q478 457 460.50 468Q443 479 414 479Q364 479 344 437.50Q324 396 324 331Q324 266 342.50 224.50Q361 183 402 183Q449 183 468 223Q487 263 487 331L735 331Q735 243 709 179Q683 115 635 73Q587 31 519.50 10.50Q452-10 369-10Z"  horiz-adv-x="737" vert-adv-y="1000"  />

      
      <glyph glyph-name="uni65" unicode="&#x65;" d="M446 220Q487 220 525.50 230Q564 240 595 252Q631 266 663 284L735 61Q665 23 582.50 3.50Q500-16 414-16Q307-16 230.50 8.50Q154 33 105 78.50Q56 124 33 189.50Q10 255 10 338Q10 409 34.50 470.50Q59 532 106.50 577.50Q154 623 225 649Q296 675 389 675Q464 675 525 662Q586 649 629 624Q672 599 695.50 562.50Q719 526 719 480Q719 420 691.50 384.50Q664 349 621 329.50Q578 310 526 304Q474 298 426 298L326 298Q331 260 358 240Q385 220 446 220M414 478Q371 478 350.50 446.50Q330 415 325 363L391 363Q427 363 452 376.50Q477 390 477 421Q477 447 463 462.50Q449 478 414 478Z"  horiz-adv-x="740" vert-adv-y="1000"  />

      
      <glyph glyph-name="uni66" unicode="&#x66;" d="M334 1L21 1L21 660L589 660L589 461L334 461L334 347L574 347L574 268L334 268L334 1Z"  horiz-adv-x="591" vert-adv-y="1000"  />

      
      <glyph glyph-name="uni67" unicode="&#x67;" d="M727 331L781 0L482 0L458 148L441 148Q452 78 409.50 34Q367-10 276-10Q211-10 161.50 12.50Q112 35 78.50 77Q45 119 27.50 179Q10 239 10 313Q10 494 112.50 581.50Q215 669 420 669Q510 669 596.50 653Q683 637 757 599L686 377Q650 395 610 409Q576 421 533 431Q490 441 445 441Q379 441 351.50 405.50Q324 370 324 307Q324 251 343 220.50Q362 190 391 190Q409 190 419.50 198.50Q430 207 435 217.50Q440 228 440.50 238Q441 248 441 252L428 331L727 331Z"  horiz-adv-x="782" vert-adv-y="1000"  />

      
      <glyph glyph-name="uni68" unicode="&#x68;" d="M319 0L20 0L20 660L319 660L319 370L440 370L440 660L739 660L739 0L440 0L440 291L319 291L319 0Z"  horiz-adv-x="759" vert-adv-y="1000"  />

      
      <glyph glyph-name="uni69" unicode="&#x69;" d="M319 0L20 0L20 660L319 660L319 0Z"  horiz-adv-x="339" vert-adv-y="1000"  />

      
      <glyph glyph-name="uni6a" unicode="&#x6a;" d="M-102-91Q-70-91-46.50-87Q-23-83-8-69.50Q7-56 14-30.50Q21-5 21 37L21 660L335 660L335 82Q335 0 310.50-49.50Q286-99 233-126Q180-153 97.50-161.50Q15-170-102-170L-102-91Z"  horiz-adv-x="355" vert-adv-y="1000"  />

      
      <glyph glyph-name="uni6b" unicode="&#x6b;" d="M319 336L319 0L20 0L20 660L319 660L319 413L332 413Q365 413 375.50 430Q386 447 386 467L386 660L699 660L699 390Q699 345 670.50 317Q642 289 600 281.50Q558 274 511 288Q464 302 428 341L421 331Q428 300 443 275Q455 254 476.50 237Q498 220 531 220Q557 220 578 226.50Q599 233 613 241Q630 250 643 262L714 39Q678 13 631 1.50Q584-10 540-10Q477-10 436.50 17Q396 44 373 91Q350 138 341 201Q332 264 332 336L319 336Z"  horiz-adv-x="715" vert-adv-y="1000"  />

      
      <glyph glyph-name="uni6c" unicode="&#x6c;" d="M573 1L20 1L20 660L334 660L334 200L573 200L573 1Z"  horiz-adv-x="576" vert-adv-y="1000"  />

      
      <glyph glyph-name="uni6d" unicode="&#x6d;" d="M913 670Q1147 670 1147 381L1147 0L834 0L834 344Q834 406 823 431Q812 456 789 456Q771 456 760 443.50Q749 431 743 416Q736 398 733 377L733 0L419 0L419 344Q419 406 408 431Q397 456 374 456Q357 456 346 443.50Q335 431 329 416Q322 398 319 377L319 0L20 0L20 660L281 660L281 476L296 476Q296 569 345 619.50Q394 670 485 670Q663 670 696 476L711 476Q711 569 763 619.50Q815 670 913 670Z"  horiz-adv-x="1163" vert-adv-y="1000"  />

      
      <glyph glyph-name="uni6e" unicode="&#x6e;" d="M499 670Q733 670 733 381L733 0L419 0L419 344Q419 406 408 431Q397 456 374 456Q357 456 346 443.50Q335 431 329 416Q322 398 319 377L319 0L20 0L20 660L281 660L281 476L296 476Q296 569 348.50 619.50Q401 670 499 670Z"  horiz-adv-x="749" vert-adv-y="1000"  />

      
      <glyph glyph-name="uni6f" unicode="&#x6f;" d="M396-10Q313-10 242.50 11Q172 32 120 74.50Q68 117 39 181Q10 245 10 331Q10 417 39 481.50Q68 546 120 588.50Q172 631 242.50 652Q313 673 396 673Q479 673 549.50 652Q620 631 672 588.50Q724 546 753 481.50Q782 417 782 331Q782 245 753 181Q724 117 672 74.50Q620 32 549.50 11Q479-10 396-10M396 471Q359 471 341.50 432.50Q324 394 324 331Q324 268 341.50 229Q359 190 396 190Q433 190 450.50 229Q468 268 468 331Q468 394 450.50 432.50Q433 471 396 471Z"  horiz-adv-x="792" vert-adv-y="1000"  />

      
      <glyph glyph-name="uni70" unicode="&#x70;" d="M469 660Q563 660 626.50 641Q690 622 729 589Q768 556 784.50 511Q801 466 801 414Q801 296 734 232.50Q667 169 546 169Q493 169 453 181.50Q413 194 386.50 215.50Q360 237 347 266.50Q334 296 334 329L319 329L319 0L21 0L21 660L469 660M416 367Q454 367 470.50 381.50Q487 396 487 413Q487 463 392 463L319 463L319 428Q326 410 339 397Q350 386 368.50 376.50Q387 367 416 367Z"  horiz-adv-x="802" vert-adv-y="1000"  />

      
      <glyph glyph-name="uni71" unicode="&#x71;" d="M351-6Q285-6 223.50 14Q162 34 114.50 75Q67 116 38.50 178.50Q10 241 10 327Q10 415 39 479.50Q68 544 120 586.50Q172 629 242.50 649.50Q313 670 396 670Q479 670 549.50 649.50Q620 629 672 587Q724 545 753 481Q782 417 782 330Q782 243 753 179Q724 115 673.50 73Q623 31 555.50 10.50Q488-10 411-10Q411-20 426.50-27Q442-34 474-34Q519-34 559-28Q599-22 631-14Q668-5 700 6L736-221Q682-238 614.50-249.50Q547-261 450-261Q324-261 271-229.50Q218-198 218-139Q218-88 252-54.50Q286-21 351-21L351-6M396 471Q359 471 341.50 432.50Q324 394 324 331Q324 268 341.50 229Q359 190 396 190Q433 190 450.50 229Q468 268 468 331Q468 394 450.50 432.50Q433 471 396 471Z"  horiz-adv-x="792" vert-adv-y="1000"  />

      
      <glyph glyph-name="uni72" unicode="&#x72;" d="M786 0L472 0Q468 5 464 16Q461 25 459 39.50Q457 54 457 77L457 97Q457 113 453.50 126.50Q450 140 440.50 149.50Q431 159 414 164Q397 169 370 169L319 169L319 0L21 0L21 660L282 660L282 477L297 477Q297 525 315 561Q333 597 365.50 621Q398 645 443 657Q488 669 543 669Q604 669 647 654.50Q690 640 717.50 614Q745 588 758 553Q771 518 771 476Q771 376 702 325.50Q633 275 501 275L501 260Q583 260 635.50 249Q688 238 718 218.50Q748 199 759.50 172.50Q771 146 771 116L771 85Q771 64 773 50.50Q775 37 778 29Q782 19 786 15L786 0M418 478Q394 478 375.50 465.50Q357 453 344 438Q329 420 319 398L319 367L350 367Q382 367 403 372.50Q424 378 436 387.50Q448 397 452.50 409Q457 421 457 433Q457 457 444.50 467.50Q432 478 418 478Z"  horiz-adv-x="787" vert-adv-y="1000"  />

      
      <glyph glyph-name="uni73" unicode="&#x73;" d="M344 441Q344 417 371 403.50Q398 390 438.50 379.50Q479 369 526.50 357Q574 345 614.50 323Q655 301 682 264Q709 227 709 168Q709 121 690.50 87.50Q672 54 640 32.50Q608 11 565 1Q522-9 474-9Q415-9 369 2.50Q323 14 291.50 39Q260 64 243.50 103.50Q227 143 227 199L213 199L213 0L15 0L15 255L250 255Q260 245 273 237Q284 230 300.50 224.50Q317 219 339 219Q352 219 366.50 224Q381 229 381 244Q381 264 354 275Q327 286 286 296Q245 306 198 317.50Q151 329 110 350Q69 371 42 405.50Q15 440 15 496Q15 576 76.50 622.50Q138 669 253 669Q378 669 437.50 619.50Q497 570 497 462L512 462L512 660L709 660L709 406L474 406Q470 426 459 442Q449 456 431 467Q413 478 383 478Q344 478 344 441Z"  horiz-adv-x="720" vert-adv-y="1000"  />

      
      <glyph glyph-name="uni74" unicode="&#x74;" d="M5 660L644 660L644 461L474 461L474 0L175 0L175 461L5 461L5 660Z"  horiz-adv-x="649" vert-adv-y="1000"  />

      
      <glyph glyph-name="uni75" unicode="&#x75;" d="M711 660L711 284Q711 209 684 154Q657 99 610.50 62.50Q564 26 500 8Q436-10 363-10Q290-10 226.50 8Q163 26 116 62.50Q69 99 42 154Q15 209 15 284L15 660L314 660L314 269Q314 227 328 208.50Q342 190 363 190Q385 190 399 208.50Q413 227 413 269L413 660L711 660Z"  horiz-adv-x="727" vert-adv-y="1000"  />

      
      <glyph glyph-name="uni76" unicode="&#x76;" d="M149 0L1 660L330 660L377 275L392 275L438 660L775 660L619 0L149 0Z"  horiz-adv-x="776" vert-adv-y="1000"  />

      
      <glyph glyph-name="uni77" unicode="&#x77;" d="M119 0L1 660L360 660L384 343L399 343L453 660L555 660L609 343L624 343L648 660L1007 660L889 0L567 0L511 413L496 413L441 0L119 0Z"  horiz-adv-x="1008" vert-adv-y="1000"  />

      
      <glyph glyph-name="uni78" unicode="&#x78;" d="M337 0L0 0L147 330L0 660L330 660L369 471L384 471L423 660L760 660L612 330L760 0L430 0L391 189L376 189L337 0Z"  horiz-adv-x="760" vert-adv-y="1000"  />

      
      <glyph glyph-name="uni79" unicode="&#x79;" d="M445 661L775 661L626 0L60 0L60 198L347 198L347 213Q266 213 215 226.50Q164 240 134 263Q104 286 89.50 316Q75 346 67 380L1 661L337 661L384 276L399 276L445 661Z"  horiz-adv-x="775" vert-adv-y="1000"  />

      
      <glyph glyph-name="uni7a" unicode="&#x7a;" d="M314 289L314 274L641 274L641 0L15 0L15 274L342 371L342 386L15 386L15 660L641 660L641 386L314 289Z"  horiz-adv-x="656" vert-adv-y="1000"  />

      
      <glyph glyph-name="uni0457" unicode="&#x0457;" d="M319 0L20 0L20 660L319 660L319 0M148 795Q148 758 124 732.50Q100 707 60 707Q19 707-4.50 732.50Q-28 758-28 795Q-28 832-4.50 857.50Q19 883 60 883Q100 883 124 857.50Q148 832 148 795M284 883Q324 883 348 857.50Q372 832 372 795Q372 758 348 732.50Q324 707 284 707Q243 707 219.50 732.50Q196 758 196 795Q196 832 219.50 857.50Q243 883 284 883Z"  horiz-adv-x="339" vert-adv-y="1000"  />

      
      <glyph glyph-name="uni64" unicode="&#x64;" d="M341 675Q427 675 490 644.50Q553 614 593.50 565.50Q634 517 653.50 455Q673 393 673 330Q673 244 647 179.50Q621 115 574 72Q527 29 460.50 7.50Q394-14 312-14Q248-14 193-1Q138 12 97.50 39Q57 66 34 107.50Q11 149 11 206Q11 258 27 297Q43 336 71.50 361.50Q100 387 139.50 399.50Q179 412 227 412Q264 412 295.50 402Q327 392 349.50 374.50Q372 357 384.50 332.50Q397 308 397 279L412 279Q418 326 406 359Q394 392 370.50 412Q347 432 314 440.50Q281 449 245 449Q209 449 172.50 440.50Q136 432 105 418L33 616Q66 635 102.50 646.50Q139 658 178.50 664.50Q218 671 259 673Q300 675 341 675M340 143Q348 143 353 153Q358 163 360.50 178Q363 193 363 211Q363 229 360.50 244Q358 259 352.50 269Q347 279 340 279Q329 279 322.50 269Q316 259 312.50 244Q309 229 309 211Q309 193 312.50 178Q316 163 323 153Q330 143 340 143Z"  horiz-adv-x="679" vert-adv-y="1000"  />

      
      <glyph glyph-name="uni0434" unicode="&#x0434;" d="M811 197L811-154L613-154L613 0L200 0L200-155L2-155L2 195L75 195L96 280Q104 314 118 344.50Q132 375 162.50 398Q193 421 244 434.50Q295 448 376 448L376 463L97 463L97 660L739 660L739 197L811 197M439 394L413 394L388 196L439 196L439 394Z"  horiz-adv-x="822" vert-adv-y="1000"  />

      
      <glyph glyph-name="uni0492" unicode="&#x0492;" d="M93 348L93 660L646 660L646 461L407 461L407 348L567 348L567 274L407 274L407 1L93 1L93 274L20 274L20 348L93 348Z"  horiz-adv-x="662" vert-adv-y="1000"  />

      
      <glyph glyph-name="uni0493" unicode="&#x0493;" d="M169 333Q209 351 252 361.50Q295 372 331 382Q367 392 390.50 405Q414 418 414 441Q414 478 375 478Q355 478 341.50 473.50Q328 469 318 461.50Q308 454 300 444.50Q292 435 284 425L49 425L49 660L246 660L246 462L261 462Q261 571 320 620.50Q379 670 505 670Q620 670 681.50 623.50Q743 577 743 496Q743 462 732.50 436Q722 410 703.50 390.50Q685 371 661 357Q637 343 610 333L705 333L705 272L397 272Q377 260 377 244Q377 220 392 208.50Q407 197 430.50 193.50Q454 190 482.50 193.50Q511 197 537.50 202.50Q564 208 585 214.50Q606 221 615 224Q636 231 655.50 239Q675 247 694 256L765 61Q730 42 684 28.50Q638 15 587 6.50Q536-2 482-6Q428-10 377-10Q205-10 127 31.50Q49 73 49 168Q49 201 58 226.50Q67 252 83 272L17 272L17 333L169 333Z"  horiz-adv-x="768" vert-adv-y="1000"  />

      
      <glyph glyph-name="uni0496" unicode="&#x0496;" d="M846 0Q842 7 839.50 15.50Q837 24 835 34Q824 70 824 138L824 232Q824 263 809 280.50Q794 298 748 298L735 298L735 0L436 0L436 298L423 298Q377 298 362 280.50Q347 263 347 232L347 138Q347 70 336 34Q334 24 331.50 15.50Q329 7 325 0L11 0L11 15Q18 25 23 47Q28 65 31 94.50Q34 124 34 169L34 193Q34 230 44 257.50Q54 285 77.50 302.50Q101 320 139.50 328.50Q178 337 236 337L236 352Q191 352 153 361.50Q115 371 86.50 391Q58 411 42 441.50Q26 472 26 513L26 660L340 660L340 449Q340 435 343.50 422Q347 409 356 398.50Q365 388 381 382Q397 376 423 376L436 376L436 660L735 660L735 376L748 376Q773 376 789.50 382Q806 388 815 398.50Q824 409 827.50 422Q831 435 831 449L831 660L1145 660L1145 513Q1145 472 1129 441.50Q1113 411 1084.50 391Q1056 371 1018 361.50Q980 352 935 352L935 337Q993 337 1031.50 328.50Q1070 320 1093.50 302.50Q1117 285 1127 257.50Q1137 230 1137 193L1137 195L1205 195L1205-154L1007-154L1007 0L846 0Z"  horiz-adv-x="1218" vert-adv-y="1000"  />

      
      <glyph glyph-name="uni0497" unicode="&#x0497;" d="M1146 195L1146-154L948-154L949 0L766 0L766 193Q766 213 755.50 230Q745 247 712 247L699 247L699 0L400 0L400 247L387 247Q354 247 343.50 230Q333 213 333 193L333 0L20 0L20 270Q20 315 48.50 343Q77 371 119 379Q161 387 208 372.50Q255 358 291 319L298 329Q291 360 276 385Q264 406 242.50 423Q221 440 188 440Q162 440 141 433.50Q120 427 106 419Q89 410 76 398L5 621Q41 647 87.50 658.50Q134 670 179 670Q242 670 282.50 643Q323 616 346 569Q369 522 378 459Q387 396 387 324L400 324L400 660L699 660L699 324L712 324Q712 396 721 459Q730 522 753 569Q776 616 816.50 643Q857 670 920 670Q965 670 1011.50 658.50Q1058 647 1094 621L1023 398Q1009 410 993 419Q979 427 958 433.50Q937 440 911 440Q878 440 856.50 423Q835 406 823 385Q808 360 801 329L808 319Q844 358 891.50 372.50Q939 387 981 379Q1023 371 1051.50 343Q1080 315 1079 270L1078 195L1146 195Z"  horiz-adv-x="1158" vert-adv-y="1000"  />

      
      <glyph glyph-name="uni0498" unicode="&#x0498;" d="M389 379Q412 382 442 382Q472 382 503.50 376.50Q535 371 565 359Q595 347 618 327Q641 307 655.50 277Q670 247 670 206Q670 160 654.50 123Q639 86 607 59Q575 32 524 15Q473-2 403-7Q417-56 396.50-89.50Q376-123 338-140.50Q300-158 253.50-159Q207-160 171-142L190-54Q217-73 242.50-74Q268-75 286-65.50Q304-56 310.50-40Q317-24 307-10Q297-10 294-9.50Q291-9 281-9Q280-9 280-10L270-8Q192-4 124 12Q56 28 0 60L71 283Q98 264 128 251Q154 239 188 229Q222 219 260 219Q278 219 295.50 222.50Q313 226 326.50 233.50Q340 241 348 252.50Q356 264 356 281Q355 308 323.50 326.50Q292 345 250 344L128 344L127 405L254 404Q285 404 305 414.50Q325 425 325 442Q325 458 311.50 465Q298 472 277.50 472.50Q257 473 231.50 468Q206 463 182 456Q158 449 138.50 440.50Q119 432 109 425L42 608Q99 641 175 655.50Q251 670 335 670Q478 670 549 630.50Q620 591 622 524Q624 463 567.50 426.50Q511 390 390 392L389 379Z"  horiz-adv-x="685" vert-adv-y="1000"  />

      
      <glyph glyph-name="uni0499" unicode="&#x0499;" d="M389 379Q412 382 442 382Q472 382 503.50 376.50Q535 371 565 359Q595 347 618 327Q641 307 655.50 277Q670 247 670 206Q670 160 654.50 123Q639 86 607 59Q575 32 524 15Q473-2 403-7Q417-56 396.50-89.50Q376-123 338-140.50Q300-158 253.50-159Q207-160 171-142L190-54Q217-73 242.50-74Q268-75 286-65.50Q304-56 310.50-40Q317-24 307-10Q297-10 294-9.50Q291-9 281-9Q280-9 280-10L270-8Q192-4 124 12Q56 28 0 60L71 283Q98 264 128 251Q154 239 188 229Q222 219 260 219Q278 219 295.50 222.50Q313 226 326.50 233.50Q340 241 348 252.50Q356 264 356 281Q355 308 323.50 326.50Q292 345 250 344L128 344L127 405L254 404Q285 404 305 414.50Q325 425 325 442Q325 458 311.50 465Q298 472 277.50 472.50Q257 473 231.50 468Q206 463 182 456Q158 449 138.50 440.50Q119 432 109 425L42 608Q99 641 175 655.50Q251 670 335 670Q478 670 549 630.50Q620 591 622 524Q624 463 567.50 426.50Q511 390 390 392L389 379Z"  horiz-adv-x="685" vert-adv-y="1000"  />

      
      <glyph glyph-name="uni049A" unicode="&#x049A;" d="M426 0Q422 7 419.50 15.50Q417 24 415 34Q404 70 404 138L404 232Q404 263 389 280.50Q374 298 328 298L315 298L315 0L16 0L16 660L315 660L315 376L328 376Q353 376 369.50 382Q386 388 395 398.50Q404 409 407.50 422Q411 435 411 449L411 660L725 660L725 513Q725 472 709 441.50Q693 411 664.50 391Q636 371 598 361.50Q560 352 515 352L515 337Q573 337 611.50 328.50Q650 320 673.50 302.50Q697 285 707 257.50Q717 230 717 193L717 195L785 195L785-154L587-154L587 0L426 0Z"  horiz-adv-x="798" vert-adv-y="1000"  />

      
      <glyph glyph-name="uni049B" unicode="&#x049B;" d="M766 195L766-154L568-154L569 0L386 0L386 193Q386 213 375.50 230Q365 247 332 247L319 247L319 0L20 0L20 660L319 660L319 324L332 324Q332 396 341 459Q350 522 373 569Q396 616 436.50 643Q477 670 540 670Q585 670 631.50 658.50Q678 647 714 621L643 398Q629 410 613 419Q599 427 578 433.50Q557 440 531 440Q498 440 476.50 423Q455 406 443 385Q428 360 421 329L428 319Q464 358 511.50 372.50Q559 387 601 379Q643 371 671.50 343Q700 315 699 270L698 195L766 195Z"  horiz-adv-x="778" vert-adv-y="1000"  />

      
      <glyph glyph-name="uni04A1" unicode="&#x04A1;" d="M185 461L16 461L16 660L484 660L484 324L497 324Q497 396 506 459Q515 522 538 569Q561 616 601.50 643Q642 670 705 670Q749 670 796 658.50Q843 647 879 621L808 398Q795 410 778 419Q764 427 743 433.50Q722 440 696 440Q663 440 641.50 423Q620 406 608 385Q593 360 586 329L593 319Q629 358 676 372Q723 386 765 378.50Q807 371 835.50 343Q864 315 864 270L864 0L551 0L551 193Q551 213 540.50 230Q530 247 497 247L484 247L484 0L185 0L185 461Z"  horiz-adv-x="880" vert-adv-y="1000"  />

      
      <glyph glyph-name="uni04A0" unicode="&#x04A0;" d="M187 461L17 461L17 660L485 660L485 376L498 376Q524 376 540 382Q556 388 565 398.50Q574 409 577.50 422Q581 435 581 449L581 660L895 660L895 513Q895 472 879 441.50Q863 411 834.50 391Q806 371 768 361.50Q730 352 685 352L685 337Q743 337 781.50 328.50Q820 320 843.50 302.50Q867 285 877 257.50Q887 230 887 193L887 169Q887 124 890 94.50Q893 65 898 47Q903 26 910 15L910 0L596 0Q589 14 585 34Q580 51 577 77Q574 103 574 138L574 232Q574 263 559 280.50Q544 298 498 298L485 298L485 0L186 0L187 461Z"  horiz-adv-x="915" vert-adv-y="1000"  />

      
      <glyph glyph-name="uni04A2" unicode="&#x04A2;" d="M440 0L440 291L319 291L319 0L20 0L20 660L319 660L319 370L440 370L440 660L739 660L739 195L825 195L825-154L627-154L627 0L440 0Z"  horiz-adv-x="843" vert-adv-y="1000"  />

      
      <glyph glyph-name="uni04AA" unicode="&#x04AA;" d="M230 17Q154 44 105 92.50Q56 141 33 209Q10 277 10 360Q10 433 31.50 491Q53 549 90 588.50Q127 628 177 649Q227 670 285 670Q395 670 447 620Q499 570 499 462L514 462L514 660L712 660L712 406L477 406Q476 426 468 442Q461 456 447.50 467Q434 478 409 478Q369 478 346.50 445Q324 412 324 352Q324 292 352.50 255.50Q381 219 446 219Q487 219 524.50 229Q562 239 591 251Q625 265 656 283L727 61Q657 23 578 6Q529-4 476-8Q485-53 464.50-87.50Q444-122 408-140.50Q372-159 327.50-160.50Q283-162 245-142L260-54Q289-73 312-74Q335-75 351-65.50Q367-56 374.50-40Q382-24 380-9Q295-5 230 17Z"  horiz-adv-x="733" vert-adv-y="1000"  />

      
      <glyph glyph-name="uni04AB" unicode="&#x04AB;" d="M213 13Q146 37 101 82Q56 127 33 191.50Q10 256 10 338Q10 419 30.50 481Q51 543 88 585Q125 627 176.50 648.50Q228 670 291 670Q350 670 391 658Q432 646 458 620.50Q484 595 495.50 556Q507 517 507 463L522 463L522 660L719 660L719 407L507 407Q501 427 489 443Q478 457 460.50 468Q443 479 414 479Q364 479 344 437.50Q324 396 324 331Q324 266 342.50 224.50Q361 183 402 183Q449 183 468 223Q487 263 487 331L735 331Q735 243 709 179Q683 115 635 73Q587 31 519 10Q489 1 457-3Q467-50 447-85.50Q427-121 391-140.50Q355-160 310.50-161.50Q266-163 227-142L242-54Q271-73 294-74Q317-75 332.50-66Q348-57 356-41Q364-25 362-10Q277-9 213 13Z"  horiz-adv-x="737" vert-adv-y="1000"  />

      
      <glyph glyph-name="uni04B0" unicode="&#x04B0;" d="M502 258L615 258L615 180L497 180L497 0L198 0L198 180L72 180L72 258L193 258L-2 660L312 660L336 473L351 473L375 660L697 660L502 258Z"  horiz-adv-x="691" vert-adv-y="1000"  />

      
      <glyph glyph-name="uni04B1" unicode="&#x04B1;" d="M502 258L615 258L615 180L497 180L497 0L198 0L198 180L72 180L72 258L193 258L-2 660L312 660L336 473L351 473L375 660L697 660L502 258Z"  horiz-adv-x="691" vert-adv-y="1000"  />

      
      <glyph glyph-name="uni04AE" unicode="&#x04AE;" d="M497 209L497 0L198 0L198 209L-2 660L312 660L336 443L351 443L375 660L697 660L497 209Z"  horiz-adv-x="691" vert-adv-y="1000"  />

      
      <glyph glyph-name="uni04AF" unicode="&#x04AF;" d="M497 209L497 0L198 0L198 209L-2 660L312 660L336 443L351 443L375 660L697 660L497 209Z"  horiz-adv-x="691" vert-adv-y="1000"  />

      
      <glyph glyph-name="uni04B2" unicode="&#x04B2;" d="M760 195L760-154L562-154L562 0L430 0L391 189L376 189L337 0L0 0L147 330L0 660L330 660L369 471L384 471L423 660L760 660L612 330L672 195L760 195Z"  horiz-adv-x="782" vert-adv-y="1000"  />

      
      <glyph glyph-name="uni04B6" unicode="&#x04B6;" d="M814 195L814-154L616-154L616 0L467 0L467 348L466 349L452 349Q452 256 399.50 206Q347 156 249 156Q16 156 16 444L16 660L329 660L329 500Q329 419 340 394Q351 369 374 369Q391 369 402.50 381Q414 393 420 408Q427 426 430 448L430 660L728 660L728 195L814 195Z"  horiz-adv-x="828" vert-adv-y="1000"  />

      
      <glyph glyph-name="uni04BA" unicode="&#x04BA;" d="M277 660L277 333L278 332L292 332Q292 425 344.50 475Q397 525 495 525Q728 525 728 237L728 0L415 0L415 181Q415 262 404 287Q393 312 370 312Q353 312 341.50 300Q330 288 324 273Q317 255 314 233L314 0L16 0L16 660L277 660Z"  horiz-adv-x="749" vert-adv-y="1000"  />

      
      <glyph glyph-name="uni04BB" unicode="&#x04BB;" d="M277 660L277 333L278 332L292 332Q292 425 344.50 475Q397 525 495 525Q728 525 728 237L728 0L415 0L415 181Q415 262 404 287Q393 312 370 312Q353 312 341.50 300Q330 288 324 273Q317 255 314 233L314 0L16 0L16 660L277 660Z"  horiz-adv-x="749" vert-adv-y="1000"  />

      
      <glyph glyph-name="uni04C0" unicode="&#x04C0;" d="M319 0L20 0L20 660L319 660L319 0Z"  horiz-adv-x="339" vert-adv-y="1000"  />

      
      <glyph glyph-name="uni04CF" unicode="&#x04CF;" d="M319 0L20 0L20 660L319 660L319 0Z"  horiz-adv-x="339" vert-adv-y="1000"  />

      
      <glyph glyph-name="uni04C1" unicode="&#x04C1;" d="M436 0L735 0L735 298L748 298Q794 298 809 280.50Q824 263 824 232L824 138Q824 103 827 77Q830 51 835 34Q839 14 846 0L1160 0L1160 15Q1153 26 1148 47Q1143 65 1140 94.50Q1137 124 1137 169L1137 193Q1137 230 1127 257.50Q1117 285 1093.50 302.50Q1070 320 1031.50 328.50Q993 337 935 337L935 352Q980 352 1018 361.50Q1056 371 1084.50 391Q1113 411 1129 441.50Q1145 472 1145 513L1145 660L831 660L831 449Q831 435 827.50 422Q824 409 815 398.50Q806 388 790 382Q774 376 748 376L735 376L735 660L436 660L436 376L423 376Q397 376 381 382Q365 388 356 398.50Q347 409 343.50 422Q340 435 340 449L340 660L26 660L26 513Q26 472 42 441.50Q58 411 86.50 391Q115 371 153 361.50Q191 352 236 352L236 337Q178 337 139.50 328.50Q101 320 77.50 302.50Q54 285 44 257.50Q34 230 34 193L34 169Q34 124 31 94.50Q28 65 23 47Q18 26 11 15L11 0L325 0Q332 14 336 34Q341 51 344 77Q347 103 347 138L347 232Q347 263 362 280.50Q377 298 423 298L436 298L436 0M582 707Q538 707 501 721.50Q464 736 437 761Q410 786 394.50 818Q379 850 379 886L484 886Q482 865 496.50 850.50Q511 836 534 829Q557 822 584 822Q611 822 633 829Q655 836 668 850.50Q681 865 677 886L781 886Q781 850 766 818Q751 786 725 761Q699 736 662 721.50Q625 707 582 707Z"  horiz-adv-x="1165" vert-adv-y="1000"  />

      
      </font>
</defs>
</svg>
